<svg width="44" height="44" viewBox="0 0 44 44" fill="none" xmlns="http://www.w3.org/2000/svg">
<path d="M32.095 26.2307L32.0785 26.3682C28.047 24.3607 27.6262 24.0912 27.1037 24.8722C26.7435 25.414 25.6902 26.6405 25.374 27.0035C25.0522 27.361 24.7332 27.3885 24.1887 27.141C23.6387 26.866 21.8732 26.2885 19.7832 24.4185C18.1552 22.961 17.0635 21.1734 16.739 20.6234C16.2 19.6967 17.3247 19.5647 18.3477 17.6287C18.532 17.2437 18.4385 16.9412 18.301 16.6689C18.1635 16.3939 17.069 13.6989 16.6097 12.6237C16.1697 11.5539 15.716 11.6887 15.3777 11.6887C14.3217 11.5979 13.549 11.6117 12.8697 12.3184C9.91071 15.5717 10.656 18.924 13.1887 22.4935C18.1635 29.0055 20.8145 30.2045 25.6627 31.8682C26.9717 32.2835 28.1652 32.2257 29.1085 32.091C30.1617 31.9232 32.348 30.7682 32.8045 29.4757C33.272 28.1832 33.272 27.1107 33.1345 26.8632C33.0052 26.6157 32.645 26.4782 32.095 26.2307Z" fill="black"/>
<path d="M37.62 6.3233C23.5235 -7.30295 0.192501 2.58055 0.184251 21.8058C0.184251 25.6476 1.19075 29.3958 3.1075 32.7041L0 44.0011L11.6132 40.9733C26.1057 48.7998 43.9917 38.4076 44 21.8168C44 15.9951 41.7257 10.5143 37.5925 6.39755L37.62 6.3233ZM40.337 21.7563C40.326 35.7511 24.9645 44.4878 12.815 37.3461L12.155 36.9528L5.28 38.7403L7.1225 32.0578L6.68525 31.3703C-0.877251 19.3363 7.81 3.6063 22.132 3.6063C26.9968 3.6063 31.5645 5.5038 35.0047 8.9413C38.4422 12.3486 40.337 16.9163 40.337 21.7563Z" fill="black"/>
</svg>
