<svg width="64" height="64" viewBox="0 0 64 64" fill="none" xmlns="http://www.w3.org/2000/svg">
<path d="M15.1259 56.5004C15.1259 61.4237 23.6144 63.9999 32 63.9999C40.3857 63.9999 48.8741 61.4238 48.8741 56.5003C48.8741 46.6535 15.1259 46.6535 15.1259 56.5004Z" fill="black"/>
<path d="M48.8666 3.23003C46.4698 3.55241 44.0546 3.75316 41.6217 3.75316H22.3783C19.9455 3.75316 17.5302 3.55241 15.1335 3.23003C15.1295 3.22953 15.1259 3.23266 15.1259 3.23666V48.0249C15.1259 48.0297 15.1306 48.0329 15.1351 48.031C19.5214 46.2085 24.2667 45.2509 29.1602 45.2509H34.8398C39.7333 45.2509 44.4787 46.2085 48.865 48.031C48.8693 48.0329 48.8742 48.0297 48.8742 48.0249V3.23666C48.8742 3.23266 48.8707 3.22953 48.8666 3.23003ZM24.5003 37.6389H20.7574C19.7181 37.6389 18.8757 36.7839 18.8757 35.7448V32.0602C18.8757 31.0464 19.6554 30.1719 20.6681 30.1285C21.7421 30.0825 22.6255 30.938 22.6255 32.0017V33.8698C22.6255 33.8735 22.6285 33.8765 22.6322 33.8765H24.442C25.4557 33.8765 26.3302 34.6562 26.3736 35.6689C26.4196 36.7429 25.5641 37.6389 24.5003 37.6389ZM24.5005 15.1399H22.6324C22.6286 15.1399 22.6256 15.1429 22.6256 15.1467V16.9439C22.6256 17.9577 21.846 18.8322 20.8332 18.8755C19.7592 18.9214 18.8759 18.066 18.8759 17.0024V13.2593H18.8757C18.8757 12.22 19.7182 11.3777 20.7574 11.3777H24.442C25.4557 11.3777 26.3302 12.1573 26.3736 13.17C26.4197 14.2439 25.5642 15.1399 24.5005 15.1399ZM35.7502 26.3893H33.8821C33.8783 26.3893 33.8753 26.3923 33.8753 26.396V28.1933C33.8753 29.207 33.0957 30.0815 32.083 30.1249C31.009 30.1708 30.1256 29.3154 30.1256 28.2518V26.396C30.1256 26.3923 30.1226 26.3893 30.1188 26.3893H28.2507C27.1866 26.3894 26.3313 25.4934 26.3773 24.4195C26.4207 23.4068 27.2953 22.6272 28.309 22.6272H30.1187C30.1225 22.6272 30.1255 22.6242 30.1255 22.6204V20.8107C30.1255 19.7969 30.9051 18.9224 31.9178 18.879C32.9918 18.833 33.8752 19.6885 33.8752 20.7522V22.6203C33.8752 22.624 33.8782 22.627 33.882 22.627H35.6917C36.7055 22.627 37.58 23.4067 37.6233 24.4194C37.6692 25.4934 36.8138 26.3893 35.7502 26.3893ZM43.2426 37.6389H39.558C38.5442 37.6389 37.6697 36.8468 37.6263 35.834C37.5803 34.76 38.4358 33.8767 39.4995 33.8767H41.3676C41.3713 33.8767 41.3743 33.8737 41.3743 33.8699V32.0602C41.3743 31.0464 42.154 30.1719 43.1667 30.1285C44.2407 30.0825 45.1241 30.938 45.1241 32.0017V35.7448H45.1242C45.1243 36.7839 44.2818 37.6389 43.2426 37.6389ZM45.1243 16.944C45.1243 17.9578 44.3447 18.8323 43.332 18.8757C42.258 18.9217 41.3746 18.0662 41.3746 17.0025V15.1467C41.3746 15.1429 41.3716 15.1399 41.3678 15.1399H39.5581C38.5443 15.1399 37.6698 14.3478 37.6265 13.335C37.5807 12.2612 38.4361 11.3778 39.4997 11.3778H43.2427C44.282 11.3778 45.1243 12.2203 45.1243 13.2594V16.944Z" fill="black"/>
<path d="M11.3709 2.5843C9.28565 2.15305 7.09115 1.64117 5.06077 0.964797L2.4699 0.100422C1.8969 -0.0992035 1.26877 0.00517157 0.779898 0.356797C0.291023 0.710172 0.00164795 1.27605 0.00164795 1.8783V54.6255C0.00164795 55.3835 0.457648 56.0683 1.1589 56.3575C1.86202 56.6505 2.66577 56.4894 3.20227 55.951C5.6244 53.5289 8.46365 51.5133 11.3728 49.8854C11.3749 49.8843 11.3761 49.882 11.3761 49.8797V2.5908C11.3761 2.58767 11.3739 2.58492 11.3709 2.5843Z" fill="black"/>
<path d="M63.2201 0.356741C62.7294 0.00511602 62.0996 -0.099134 61.5301 0.100366L58.9395 0.964616C56.9091 1.64112 54.7146 2.15287 52.6294 2.58412C52.6263 2.58474 52.6241 2.58749 52.6241 2.59062V49.8795C52.6241 49.8819 52.6254 49.8841 52.6275 49.8852C55.5366 51.513 58.376 53.5287 60.798 55.9509C61.1569 56.3099 61.6366 56.5004 62.1235 56.5004C62.3653 56.5004 62.6088 56.4546 62.8413 56.3575C63.5425 56.0682 63.9985 55.3834 63.9985 54.6255V1.87837C63.9984 1.27599 63.7091 0.710116 63.2201 0.356741Z" fill="black"/>
</svg>
