<svg width="14" height="18" viewBox="0 0 14 18" fill="none" xmlns="http://www.w3.org/2000/svg">
<path d="M13.7066 14.0021C13.4552 14.596 13.1577 15.1427 12.813 15.6454C12.3431 16.3306 11.9584 16.8049 11.6619 17.0683C11.2023 17.5006 10.7098 17.722 10.1825 17.7346C9.8039 17.7346 9.34735 17.6244 8.81592 17.4009C8.28274 17.1785 7.79275 17.0683 7.34472 17.0683C6.87484 17.0683 6.37089 17.1785 5.83186 17.4009C5.29201 17.6244 4.85712 17.7409 4.52461 17.7524C4.01892 17.7745 3.51488 17.5468 3.01175 17.0683C2.69063 16.7818 2.28898 16.2907 1.80781 15.595C1.29156 14.852 0.867126 13.9905 0.534618 13.0083C0.178514 11.9474 0 10.9201 0 9.92555C0 8.78627 0.240686 7.80366 0.722776 6.98023C1.10166 6.31883 1.6057 5.79709 2.23655 5.41408C2.8674 5.03106 3.54904 4.83588 4.2831 4.8234C4.68476 4.8234 5.21148 4.95047 5.86603 5.20022C6.51873 5.4508 6.93783 5.57788 7.12157 5.57788C7.25895 5.57788 7.72452 5.42929 8.51378 5.13306C9.26015 4.85834 9.89008 4.74459 10.4061 4.7894C11.8045 4.90483 12.8551 5.46864 13.5537 6.48441C12.3031 7.25946 11.6845 8.34502 11.6968 9.73761C11.708 10.8223 12.0928 11.725 12.8489 12.4417C13.1916 12.7743 13.5742 13.0314 14 13.214C13.9077 13.4879 13.8102 13.7502 13.7066 14.0021ZM10.4995 1.094C10.4995 1.9442 10.1958 2.73802 9.5905 3.47278C8.86003 4.34626 7.97649 4.85099 7.01836 4.77135C7.00616 4.66935 6.99908 4.562 6.99908 4.4492C6.99908 3.63301 7.34646 2.75953 7.96336 2.04534C8.27135 1.68374 8.66305 1.38307 9.13806 1.14322C9.61205 0.906945 10.0604 0.776282 10.482 0.753906C10.4944 0.867564 10.4995 0.981229 10.4995 1.09399V1.094Z" fill="black"/>
</svg>
