<svg width="140" height="106" viewBox="0 0 140 106" fill="none" xmlns="http://www.w3.org/2000/svg">
<g clip-path="url(#clip0)">
<path opacity="0.18" d="M77.6483 100.943C82.8407 98.0651 87.4032 94.1201 92.6179 91.3091C99.2276 87.7705 106.688 86.1514 114.162 86.6333C116.239 86.7705 118.399 87.0589 120.347 86.3197C122.094 85.6533 123.446 84.2338 124.597 82.7555C131.125 74.3867 132.936 62.5377 129.21 52.5842C127.861 48.9779 125.832 45.5845 125.266 41.7599C123.965 32.9795 130.687 24.5491 129.636 15.7352C128.912 9.66788 124.385 4.46853 118.833 1.99345C113.282 -0.481626 106.854 -0.467627 100.974 1.0163C94.5493 2.63182 88.6435 5.89366 82.2777 7.73597C70.2346 11.2022 57.3498 9.37389 44.9304 10.9502C32.511 12.5265 18.9545 19.3834 16.4963 31.7252C15.0108 39.1784 17.9456 47.0684 16.0559 54.4293C14.4645 60.6198 9.64557 65.6511 8.39137 71.9228C5.04684 88.7724 23.9518 93.5042 34.6125 99.7199C47.6534 107.321 64.2534 108.371 77.6483 100.943Z" fill="#5D38C4"/>
<path d="M80.6733 67.3452C80.8043 68.5575 80.9297 69.8119 80.5674 70.985C79.9263 73.0457 77.9336 74.3449 76.016 75.3136C72.1475 77.2679 67.9668 78.6258 63.9339 80.2246C62.5794 80.7649 61.0632 81.5265 60.7399 82.9516C60.5949 83.59 60.7204 84.276 60.4946 84.8863C60.2688 85.4967 59.4076 85.9447 58.984 85.4463C58.8255 85.2127 58.7472 84.9335 58.761 84.6512L58.5854 81.3921C58.5269 80.303 58.4684 79.1914 58.7415 78.1331C59.0146 77.0747 59.6696 76.0612 60.6702 75.6356C61.0074 75.4956 61.3698 75.4228 61.7126 75.2884C62.9835 74.7928 63.7611 73.5329 64.5276 72.3962C66.3308 69.7279 68.7082 67.2388 71.774 66.3317C70.8114 64.8429 70.1645 63.1708 69.8739 61.4197C69.5833 59.6686 69.6552 57.8761 70.0851 56.1541C70.5338 54.4014 71.4424 52.6571 73.0059 51.7584C73.6086 51.4131 74.292 51.2356 74.9856 51.2439C75.6793 51.2523 76.3583 51.4463 76.9525 51.806C78.346 52.7103 78.5495 54.3454 78.9174 55.8574C79.8455 59.6288 80.2608 63.4926 80.6733 67.3452Z" fill="#3E3E54"/>
<path d="M80.6733 67.4909C80.8043 68.706 80.9297 69.9575 80.5674 71.1307C79.9263 73.1914 77.9336 74.4905 76.016 75.4621C72.1475 77.4248 67.9668 78.7771 63.9339 80.3842C62.5794 80.9218 61.0632 81.6834 60.7399 83.1113C60.5949 83.7469 60.7204 84.4356 60.4946 85.046C60.2688 85.6564 59.4076 86.1016 58.984 85.606C58.8255 85.3724 58.7472 85.0932 58.761 84.8108L58.5854 81.5518C58.5269 80.4598 58.4684 79.3511 58.7415 78.2927C59.0146 77.2344 59.6696 76.2208 60.6702 75.7953C61.0074 75.6525 61.3698 75.5825 61.7126 75.4481C62.9835 74.9497 63.7611 73.6898 64.5276 72.5558C66.3308 69.8876 68.7082 67.3985 71.774 66.4913C70.8114 65.002 70.1647 63.3294 69.8741 61.5779C69.5835 59.8263 69.6553 58.0334 70.0851 56.311C70.5338 54.5583 71.4424 52.8168 73.0059 51.918C73.6086 51.5728 74.292 51.3952 74.9856 51.4036C75.6793 51.412 76.3583 51.606 76.9525 51.9656C78.346 52.87 78.5495 54.5051 78.9174 56.017C79.8455 59.7856 80.2608 63.6467 80.6733 67.4909Z" fill="url(#paint0_linear)"/>
<path d="M73.6636 52.254C73.6651 54.7598 73.0707 57.2297 71.93 59.4581C71.3364 60.6144 70.595 61.7176 70.2577 62.9663C67.964 71.2119 58.6578 75.7897 51.7123 81.0058C48.8918 83.1225 45.7953 85.2728 44.5327 88.5207C44.3627 88.963 44.1899 89.4614 43.7607 89.6826C43.1447 89.9962 42.3671 89.4838 42.1469 88.8427C41.9268 88.2015 42.1191 87.5015 42.3058 86.8463L43.298 83.3549C43.3797 82.9564 43.5493 82.5814 43.7941 82.2574C44.0903 81.9795 44.4279 81.75 44.7947 81.577C47.3533 80.0819 48.1587 76.9264 49.491 74.3282C51.0205 71.3801 53.3888 68.9562 56.2943 67.3649C57.0636 66.9421 57.8885 66.5641 58.4794 65.923C59.0703 65.2818 59.3992 64.355 59.6918 63.4955C60.6719 60.6288 61.7965 57.8141 63.0614 55.0623C63.5659 53.962 66.4812 48.9026 67.3341 48.0206C69.5219 45.7668 71.5454 49.933 73.6636 52.254Z" fill="#3E3E54"/>
<path d="M84.2574 30.8629C84.2574 31.2184 84.2323 31.5852 84.2323 31.9548C84.2323 33.1391 84.1208 34.4439 83.2847 35.2782C82.6464 35.9138 81.7211 36.135 80.8683 36.415C74.692 38.4421 70.7455 44.431 65.2772 47.9532C64.1177 48.698 62.7687 49.3532 61.4281 49.1992C61.2653 49.182 61.1041 49.1521 60.946 49.1096C60.0653 48.88 59.3267 48.2892 58.485 47.9504C56.8127 47.2813 54.9314 47.6536 53.248 48.2584C51.5646 48.8632 49.9341 49.6863 48.1615 49.9383C46.3889 50.1903 44.3655 49.7143 43.376 48.2164C42.8409 47.3988 42.6793 46.3937 42.2612 45.5117C40.7339 42.3283 36.3414 41.5471 34.4015 38.6185C34.3681 38.5681 34.3319 38.5149 34.3012 38.4617C34.0117 37.9903 33.7973 37.4764 33.6657 36.9386C33.6259 36.794 33.5943 36.6472 33.571 36.499C33.3876 35.4339 33.4984 34.3386 33.8915 33.3323L33.9417 33.2007C34.3085 32.365 34.8482 31.6172 35.5247 31.0071C36.2013 30.3969 36.9994 29.9383 37.8659 29.6617C40.2879 28.8974 42.9022 29.5693 45.4413 29.5217C48.1002 29.4713 50.7619 28.623 53.379 29.0821C55.4191 29.4377 57.2809 30.5633 59.1483 31.4872C60.7007 32.2516 62.2699 32.8872 63.9811 32.8312C65.5029 32.7892 66.955 32.1956 68.3235 31.518C70.8319 30.2805 73.2148 28.735 75.8487 27.7606C77.8191 27.0298 80.007 26.6407 82.0946 27.013C84.3075 27.4218 84.3103 28.987 84.2574 30.8629Z" fill="#5D38C4"/>
<path d="M80.442 33.7215C79.8595 34.4102 78.9592 34.7154 78.1315 35.0682C74.433 36.6501 73.6024 41.3987 70.8488 44.4141C69.1514 46.2704 63.6775 48.5131 63.6023 47.9139C63.488 47.088 62.2087 48.9051 61.4367 49.1991C61.2739 49.1819 61.1126 49.152 60.9545 49.1095C60.0738 48.8799 59.3352 48.2891 58.4935 47.9503C56.8212 47.2812 54.9399 47.6536 53.2565 48.2583C51.5731 48.8631 49.9426 49.6863 48.17 49.9382C46.3974 50.1902 44.374 49.7143 43.3846 48.2163C42.8494 47.3988 42.6878 46.3936 42.2697 45.5117C41.2552 43.3922 38.9698 42.3394 36.9742 41.0067C35.966 40.3919 35.0911 39.5797 34.4017 38.6184C34.3682 38.568 34.332 38.5148 34.3014 38.4616C34.0119 37.9902 33.7975 37.4763 33.6659 36.9385C34.2971 36.2525 35.0694 35.7127 35.929 35.3566C38.2758 34.3794 40.9458 34.8218 43.4542 34.5502C46.0992 34.2702 48.6773 33.1951 51.325 33.4303C55.0932 33.7551 58.4545 36.6781 62.1948 36.2441C63.711 36.0677 65.1045 35.3482 66.4089 34.5642C68.8086 33.1139 71.0411 31.3668 73.5745 30.1656C75.4726 29.2697 77.6186 28.6817 79.7341 28.8805C80.1827 28.9098 80.6195 29.0379 81.0133 29.2557C81.0356 29.6085 81.0496 29.9752 81.083 30.342C81.2029 31.5068 81.2029 32.8171 80.442 33.7215Z" fill="url(#paint1_linear)"/>
<path d="M72.9837 41.788C71.2863 43.6443 66.3392 46.9257 64.3771 48.4433C63.7193 48.9556 62.2059 48.9052 61.4311 49.1992C61.2683 49.1821 61.1071 49.1521 60.9489 49.1096C60.0682 48.88 59.3296 48.2893 58.4879 47.9505C56.8157 47.2813 54.9343 47.6537 53.2509 48.2585C51.5675 48.8632 49.9371 49.6864 48.1645 49.9384C46.3919 50.1904 44.3684 49.7144 43.379 48.2165C42.8439 47.3989 42.6822 46.3938 42.2641 45.5118C41.2496 43.3923 38.9642 42.3396 36.9686 41.0068C37.1347 40.876 37.335 40.7964 37.5452 40.7775C37.7554 40.7586 37.9666 40.8013 38.1532 40.9004C40.1209 42.25 42.7825 41.802 45.0262 40.9984C47.2698 40.1949 49.5106 39.0777 51.8852 39.2345C54.5609 39.4081 56.8742 41.1776 59.4913 41.788C61.406 42.2265 63.4106 42.0301 65.2049 41.228C66.1831 40.7912 70.5171 36.639 71.3811 37.2718C71.6988 37.5042 75.0043 35.5135 75.113 35.8943C75.1967 36.1883 72.9837 41.4912 72.9837 41.788Z" fill="url(#paint2_linear)"/>
<path d="M104.183 17.3706C104.346 17.5453 104.454 17.7644 104.493 18.0004C104.533 18.2365 104.502 18.479 104.406 18.6977C104.205 19.1302 103.92 19.5184 103.569 19.8401C100.668 22.8275 96.7299 25.5742 93.8341 28.5589C92.3179 30.124 91.9723 30.4264 90.3669 31.9019C89.3162 32.8678 88.2236 33.803 87.3513 34.9341C86.5569 35.9701 85.8434 38.6468 85.2582 39.8143L82.3233 45.694C81.32 47.6987 80.311 49.7146 78.9788 51.5149C78.7473 51.8799 78.4306 52.1827 78.0563 52.3969C77.6876 52.544 77.2935 52.6163 76.8968 52.6097C74.8455 52.7273 72.744 53.0688 70.7652 52.5005C68.7863 51.9321 66.9775 50.0674 67.3175 48.0207C67.4807 47.3235 67.7636 46.6603 68.1536 46.0608L71.7016 39.7751C72.7719 37.8824 73.8394 35.9897 74.9458 34.1166C75.8126 32.6523 76.7268 31.1711 78.034 30.0848C79.1878 29.1244 80.5842 28.5225 81.961 27.9317C84.8791 26.6773 87.8139 25.5658 90.5119 23.8859C93.2529 22.1729 96.1134 20.6608 99.0711 19.3613C100.747 18.6277 102.451 17.9642 104.183 17.3706Z" fill="white"/>
<path d="M89.932 28.1609C90.2944 27.8166 90.3529 27.2678 90.5787 26.8226C90.8992 26.1898 91.5374 25.8007 92.1339 25.4227C94.4583 23.9253 96.5515 22.0934 98.3463 19.9854C95.7738 20.6433 93.519 22.1636 91.3228 23.6588L87.6578 26.1506C86.2029 27.1418 84.7257 28.1497 83.6053 29.5105C83.51 29.6102 83.4435 29.7341 83.413 29.8689C83.3656 30.2076 83.7307 30.4288 84.0011 30.6416C85.1494 31.5404 85.9994 32.0752 86.5819 30.4064C86.8244 29.7093 87.0864 29.2865 87.7748 28.9281C88.4632 28.5697 89.383 28.6817 89.932 28.1609Z" fill="url(#paint3_linear)"/>
<path d="M84.132 33.1307C84.5002 33.26 84.8483 33.441 85.166 33.6682C85.3162 33.7803 85.479 33.8743 85.651 33.9482C85.7369 33.985 85.8293 34.0039 85.9227 34.0039C86.0161 34.0039 86.1085 33.985 86.1945 33.9482C86.2307 33.9305 86.2608 33.9022 86.2809 33.867C86.2987 33.8173 86.2987 33.7628 86.2809 33.713C86.0615 33.0501 85.7816 32.409 85.4447 31.7979C85.4075 31.7211 85.3565 31.6518 85.2942 31.5935C85.1898 31.524 85.0682 31.4853 84.943 31.4815C84.5802 31.4426 84.2139 31.451 83.8533 31.5067C83.6462 31.5297 83.4514 31.6168 83.2958 31.7559C83.1844 31.8867 83.1103 32.0454 83.0812 32.2151C82.9995 32.5035 82.9795 32.806 83.0227 33.1027C83.1955 33.1027 83.3822 33.0271 83.5662 33.0271C83.7587 33.0347 83.9492 33.0696 84.132 33.1307Z" fill="url(#paint4_linear)"/>
<path d="M79.656 30.3867C79.3665 31.0974 79.2196 31.8586 79.224 32.6266C79.1609 33.1866 79.2346 33.7535 79.4386 34.2785C79.4535 34.3194 79.4796 34.3553 79.5138 34.3821C79.5723 34.4092 79.6383 34.4151 79.7006 34.3989C80.0494 34.3516 80.4039 34.3705 80.7458 34.4549C80.7688 34.4588 80.7902 34.4695 80.8071 34.4857C80.8244 34.5052 80.8352 34.5297 80.8377 34.5557L80.9659 35.222C81.4565 37.7419 80.5785 40.5922 78.5356 42.1405C77.8458 42.6068 77.1086 42.9981 76.3365 43.308C74.9931 43.9324 73.6776 44.708 72.6882 45.8027C71.6988 46.8975 71.0577 48.4066 71.2445 49.8849C73.1044 48.9372 74.7534 47.6198 76.0913 46.0127C77.0417 44.8676 77.8388 43.5712 78.9843 42.6249C79.6616 42.0649 80.4531 41.6365 81.0356 40.9758C82.1505 39.7158 82.287 37.8959 82.3706 36.216C82.4849 33.8641 82.4347 31.1286 80.598 29.6699C80.4113 29.7847 79.7563 30.1711 79.656 30.3867Z" fill="url(#paint5_linear)"/>
<path d="M106.736 14.3439C107.248 14.1759 107.85 14.1087 108.291 14.4195C108.55 14.6234 108.743 14.8988 108.848 15.2119C109.127 15.9342 109.16 16.8274 108.67 17.4294C108.342 17.7742 107.94 18.0386 107.494 18.2021C106.586 18.6588 105.631 19.0137 104.645 19.2605C104.049 19.3893 103.14 19.4201 102.825 18.7509C102.547 18.1573 103.137 17.5022 103.461 17.0514C104.3 15.8922 105.35 14.8059 106.736 14.3439Z" fill="url(#paint6_linear)"/>
<path d="M65.6591 35.8717C64.0565 36.7677 62.4149 37.7784 61.4952 39.3687C60.6368 40.8527 60.5225 42.6502 60.5531 44.3665C60.5654 46.2594 60.7926 48.1447 61.2304 49.9858C61.2806 50.1902 61.3642 50.4226 61.5621 50.487C61.7102 50.5143 61.8632 50.4854 61.9913 50.4058C62.6218 50.0939 63.1777 49.6486 63.6208 49.1006C64.0639 48.5525 64.3837 47.9147 64.5582 47.2308C64.6781 46.7408 64.7227 46.2368 64.8119 45.744C65.046 44.6514 65.3906 43.5857 65.8403 42.5634C65.9961 42.102 66.2299 41.671 66.5315 41.2894C66.8614 40.9595 67.2451 40.6887 67.6659 40.4887C69.9792 39.2175 72.3148 37.9856 74.6727 36.7929C75.5516 36.3913 76.3812 35.8886 77.1448 35.2949C77.9141 34.6929 78.4407 33.8317 78.6276 32.8703C78.7697 31.9211 79.4832 29.7904 78.2625 29.8688C77.0417 29.9472 74.5389 31.0167 73.438 31.4983C70.7122 32.7023 68.2456 34.4186 65.6591 35.8717Z" fill="white"/>
<path d="M78.8783 31.5794C78.7975 32.0582 78.6748 32.5454 78.6275 32.8841C78.439 33.8442 77.9127 34.704 77.1447 35.306C76.3811 35.8997 75.5515 36.4023 74.6726 36.8039C72.3184 37.9967 69.9828 39.2286 67.6658 40.4998C67.2454 40.7005 66.8618 40.9712 66.5314 41.3005C66.2272 41.6803 65.9931 42.1118 65.8402 42.5745C65.3909 43.5969 65.0464 44.6626 64.8118 45.7551C64.7226 46.2479 64.678 46.7519 64.5553 47.2418C64.3789 47.9245 64.0587 48.5612 63.6163 49.1089C63.174 49.6567 62.6198 50.1027 61.9912 50.4169C61.8634 50.4973 61.7098 50.5254 61.562 50.4953C61.3641 50.4337 61.2833 50.1985 61.2331 49.9969C60.7937 48.1522 60.5655 46.2631 60.553 44.3664C60.5196 42.6473 60.6367 40.8554 61.4951 39.3686C62.4176 37.7755 64.0592 36.7648 65.6562 35.8716C68.2538 34.4185 70.7121 32.7022 73.4379 31.5094C74.5527 31.0306 77.0611 29.9667 78.2624 29.8771C79.0511 29.8267 79.0344 30.6947 78.8783 31.5794Z" fill="white"/>
<path d="M77.1003 30.2495C77.7405 30.8889 78.4384 31.4672 79.185 31.977C79.9358 32.494 80.8382 32.7416 81.7464 32.6798C81.9052 32.6602 82.0948 32.6042 82.1338 32.4474C82.1728 32.2906 82.0223 32.1422 81.8941 32.0386C81.1973 31.4787 80.6315 30.6583 80.626 29.7596C80.626 29.3284 80.7402 28.8664 80.5284 28.4912C80.2497 28.0236 79.6254 27.9508 79.0875 27.976C78.5489 28.001 78.013 28.0685 77.4849 28.1776C77.0389 28.27 73.4436 29.8743 73.8951 29.9863C73.9703 30.0059 75.7039 28.9532 77.1003 30.2495Z" fill="#5D38C4"/>
<path d="M77.234 29.04C77.06 28.983 76.8956 28.8999 76.7463 28.7936C76.672 28.7405 76.6143 28.6673 76.5798 28.5826C76.5452 28.4979 76.5353 28.405 76.5512 28.3149C76.5809 28.2174 76.6357 28.1295 76.71 28.0601C77.2452 27.5001 78.0479 27.2845 78.8115 27.1389C79.9124 26.9289 81.1248 26.8169 82.0892 27.3881C82.2118 27.4609 82.3428 27.5757 82.3205 27.7185C82.3003 27.7976 82.2541 27.8677 82.1895 27.9173C81.7854 28.2981 81.3032 28.5724 80.8795 28.928C80.4559 29.2836 80.2636 29.8604 79.8595 30.216C79.0986 30.8851 77.9837 29.3452 77.234 29.04Z" fill="url(#paint7_linear)"/>
<path d="M78.8784 31.5796C78.7975 32.0584 78.6749 32.5455 78.6275 32.8843C78.4391 33.8444 77.9127 34.7042 77.1448 35.3062C76.3812 35.8999 75.5516 36.4025 74.6726 36.8041C72.3184 37.9969 69.9828 39.2288 67.6658 40.4999C67.2454 40.7007 66.8619 40.9714 66.5315 41.3007C66.2272 41.6805 65.9931 42.112 65.8403 42.5746C65.391 43.5971 65.0464 44.6628 64.8118 45.7553C64.7226 46.2481 64.678 46.752 64.5554 47.242C64.3753 47.9652 64.0298 48.6363 63.5465 49.2019C63.3727 47.9878 63.2796 46.7634 63.2677 45.5369C63.2371 43.8206 63.3514 42.0231 64.2098 40.5391C65.1295 38.9488 66.7711 37.9381 68.3737 37.0393C70.9713 35.589 73.4268 33.8727 76.1526 32.6827C76.7685 32.3999 77.8443 31.9408 78.8784 31.5796Z" fill="url(#paint8_linear)"/>
<path d="M58.4626 53.4073C58.8425 52.9169 59.3267 52.5181 59.8798 52.24C60.433 51.9619 61.041 51.8117 61.6595 51.8002C62.2299 51.719 62.8113 51.7736 63.3568 51.9598C63.7687 52.1328 64.1207 52.4241 64.3686 52.7971C64.6165 53.1702 64.7493 53.6084 64.7504 54.0569C64.7566 54.3659 64.6584 54.668 64.4717 54.9137C64.3785 55.0356 64.2516 55.1272 64.1068 55.177C63.962 55.2268 63.8058 55.2326 63.6578 55.1936C63.6142 55.1825 63.5739 55.1608 63.5404 55.1306C63.5069 55.1004 63.4812 55.0624 63.4655 55.0201C63.4531 54.9704 63.4531 54.9185 63.4655 54.8689C63.5589 54.4409 63.5289 53.9951 63.3791 53.5837C63.3027 53.3783 63.1779 53.1945 63.0153 53.0482C62.8526 52.9019 62.6571 52.7974 62.4454 52.7438C62.0608 52.7135 61.6739 52.7466 61.2999 52.8418C60.7425 53.0126 59.7865 53.4017 59.4604 53.8749C59.1343 54.3481 59.1092 55.1544 58.6104 55.51C58.2731 55.748 57.7324 55.9104 57.4955 55.3924C57.2586 54.8745 58.1393 53.7741 58.4626 53.4073Z" fill="#3E3E54"/>
<path d="M86.3116 32.5062C86.3394 32.6294 86.3506 32.7862 86.2503 32.8562C86.2046 32.883 86.1526 32.8971 86.0997 32.8971C86.0469 32.8971 85.9949 32.883 85.9492 32.8562C85.481 32.6406 85.1521 32.1506 84.6477 32.0414C84.3388 32.0163 84.0284 32.0163 83.7195 32.0414C83.4102 32.0246 83.0562 31.8342 83.0479 31.5234C83.0479 31.2799 83.243 31.0895 83.4269 30.9299C83.7558 30.6499 84.0568 30.3335 84.3745 30.0395C84.7703 29.6755 84.8455 29.6643 85.1744 30.1123C85.7065 30.8274 86.0929 31.6409 86.3116 32.5062Z" fill="white"/>
<path d="M81.5678 32.3105C81.5238 32.3266 81.4852 32.3547 81.4563 32.3917C81.4362 32.4314 81.4284 32.4763 81.434 32.5205C81.4643 32.8701 81.5961 33.203 81.8131 33.4781C82.0165 33.758 82.2562 34.0156 82.443 34.318C82.7345 34.1754 82.9822 33.9561 83.1599 33.6835C83.3375 33.411 83.4384 33.0952 83.4519 32.7697C83.4632 32.6457 83.4498 32.5207 83.4124 32.4019C83.3751 32.2832 83.3146 32.1731 83.2345 32.0781C82.8109 31.6302 81.9942 32.1033 81.5678 32.3105Z" fill="#5D38C4"/>
<path d="M81.7575 37.493C81.6672 38.4736 81.2555 39.3964 80.5869 40.1165C80.0792 40.5896 79.4781 40.9502 78.8226 41.1749C77.4765 41.6928 76.0355 41.9112 74.642 42.2472C73.2484 42.5832 71.827 43.0564 70.7233 43.9915C69.2433 45.2486 68.4936 47.1778 68.0699 49.0733L70.5533 48.7933C70.7005 48.7869 70.8448 48.7497 70.9769 48.6841C71.1241 48.5772 71.242 48.4346 71.3197 48.2697C72.2088 46.7438 73.3459 45.327 74.8175 44.3499C76.1804 43.4539 77.7691 42.9752 79.2268 42.25C80.6844 41.5248 82.1003 40.4357 82.5852 38.8734C82.7506 38.2763 82.8331 37.6592 82.8305 37.0395C82.8528 36.2191 82.8305 35.3959 82.7831 34.5756C82.7831 34.0122 82.6534 33.4564 82.4041 32.9517C82.0752 33.6572 81.6711 34.2508 81.7463 35.0348C81.839 35.8513 81.8428 36.6756 81.7575 37.493Z" fill="#5D38C4"/>
<path d="M62.1138 48.782C61.758 49.0336 61.4884 49.3896 61.3418 49.8012C60.9321 50.6719 60.5057 51.6155 60.6618 52.5674C60.6935 52.8218 60.797 53.0618 60.96 53.259C61.0911 53.3851 61.2491 53.4794 61.4221 53.5348C61.595 53.5901 61.7782 53.6049 61.9578 53.5782C62.3161 53.5212 62.6614 53.4008 62.9779 53.2226C63.5854 52.9174 64.2209 52.5198 64.4439 51.8759C64.6334 51.3159 64.4717 50.7167 64.3129 50.1539C64.207 49.7872 64.0342 48.7092 63.6802 48.5132C63.3903 48.362 62.3926 48.628 62.1138 48.782Z" fill="url(#paint9_linear)"/>
<path d="M68.1954 54.0988C68.4085 54.0796 68.6233 54.1064 68.8253 54.1772C69.0128 54.2713 69.1717 54.4145 69.2852 54.5916C69.7214 55.2518 69.9182 56.0427 69.8426 56.8314C69.7629 57.6134 69.5946 58.3837 69.3409 59.1273L67.6687 64.7271C67.546 65.2858 67.2939 65.8076 66.9329 66.2502C66.3002 66.911 65.2913 66.9893 64.3799 67.0117C60.5838 67.1097 56.785 66.9417 52.9945 66.7318C52.094 66.7278 51.2 66.5785 50.3468 66.2894C49.8451 66.0878 49.349 65.7294 49.2041 65.2198C49.1483 64.9717 49.1398 64.7152 49.179 64.4639C49.2808 63.6888 49.4316 62.921 49.6305 62.1652C50.0541 60.4097 50.4833 58.6374 51.2526 57.0022C51.4747 56.4596 51.8146 55.9737 52.2476 55.5799C52.5244 55.3622 52.8339 55.1902 53.1645 55.0703C54.7532 54.4572 56.4478 54.8491 58.1005 54.6896C60.267 54.4805 62.4354 54.3265 64.6056 54.2276C65.7966 54.1622 66.9932 54.1193 68.1954 54.0988Z" fill="#3E3E54"/>
<path d="M67.7884 54.1491C68.0015 54.1309 68.216 54.1576 68.4183 54.2275C68.6066 54.3215 68.7664 54.4646 68.8809 54.6418C69.3157 55.3027 69.5124 56.0931 69.4384 56.8817C69.3577 57.6638 69.1884 58.4341 68.9339 59.1776L67.2616 64.7774C67.139 65.3361 66.8869 65.8579 66.5258 66.3005C65.8932 66.9613 64.8842 67.0396 63.9728 67.0648C60.1768 67.16 56.3808 66.9921 52.5875 66.7849C51.687 66.7809 50.793 66.6316 49.9397 66.3425C49.4408 66.1409 48.942 65.7825 48.797 65.2729C48.7422 65.0246 48.7346 64.7681 48.7747 64.517C48.8759 63.742 49.0257 62.9742 49.2235 62.2183C49.6471 60.4628 50.0763 58.6905 50.8456 57.0553C51.0683 56.5131 51.4082 56.0273 51.8405 55.633C52.1168 55.4152 52.4265 55.244 52.7575 55.1262C54.3462 54.5103 56.0407 54.9022 57.6963 54.7426C59.8591 54.5336 62.0265 54.3796 64.1986 54.2807C65.3896 54.2172 66.5862 54.1733 67.7884 54.1491Z" fill="url(#paint10_linear)"/>
<path d="M83.5384 25.7505C83.6273 25.6538 83.6947 25.5393 83.7363 25.4145C83.7599 25.2962 83.7599 25.1744 83.7363 25.0561C83.6136 24.2973 83.3656 23.547 83.4157 22.777C83.4821 21.9538 83.8565 21.1864 84.4637 20.6295C85.0704 20.0818 85.8306 19.7357 86.6404 19.6384C87.1653 19.5445 87.7064 19.6314 88.1761 19.8847C88.7949 20.2683 89.0792 21.0047 89.2436 21.7215C89.408 22.4382 89.5084 23.183 89.9069 23.7906C90.0156 23.9557 90.155 24.1461 90.0964 24.3505C90.0599 24.4348 90.0111 24.5131 89.9515 24.5829C89.5279 25.2045 90.0323 26.1564 89.6003 26.7724C89.4908 26.9162 89.3508 27.0338 89.1906 27.1168C88.505 27.492 87.6717 27.4388 86.9275 27.6768C86.2164 27.9364 85.5871 28.3819 85.1047 28.9675C84.603 29.5275 84.1906 30.1686 83.7363 30.7706C83.5623 31.0647 83.3031 31.2984 82.9933 31.4405C82.6835 31.5826 82.3379 31.6263 82.0027 31.5658C81.8939 31.5863 81.7822 31.585 81.6739 31.5619C81.5656 31.5387 81.463 31.4942 81.372 31.4309C81.281 31.3676 81.2034 31.2868 81.1438 31.1932C81.0841 31.0995 81.0435 30.9949 81.0244 30.8854C80.8577 30.4709 80.758 30.0323 80.729 29.5863C80.7067 28.7043 81.2251 28.4019 81.7546 27.8224C82.3752 27.1467 82.9698 26.456 83.5384 25.7505Z" fill="url(#paint11_linear)"/>
<path d="M87.5517 18.3307C86.965 18.0389 86.299 17.9494 85.6565 18.076C85.2692 18.1164 84.892 18.2244 84.5417 18.3951C83.555 18.9047 83.0561 20.0555 82.1252 20.6602C81.788 20.8814 81.3922 21.0298 81.1275 21.3322C80.9997 21.4765 80.9078 21.6492 80.8593 21.8361C80.8109 22.023 80.8072 22.2188 80.8488 22.4073C80.9053 22.5535 80.93 22.71 80.9212 22.8665C80.864 23.0314 80.7685 23.1802 80.6425 23.3005C80.4832 23.5101 80.3932 23.7646 80.3852 24.0283C80.3772 24.2919 80.4516 24.5514 80.5979 24.7704C80.9825 25.3304 81.7434 25.4732 82.1949 25.966C82.4263 26.218 82.613 26.5763 82.953 26.6183C83.1888 26.6175 83.4148 26.524 83.5829 26.358C84.0484 25.9884 84.4776 25.4872 84.5138 24.8908C84.5138 24.6864 84.4887 24.4792 84.5138 24.2749C84.5151 24.1719 84.5427 24.0709 84.5939 23.9817C84.6452 23.8925 84.7183 23.818 84.8064 23.7653C84.9182 23.7277 85.0384 23.7234 85.1526 23.7527C85.2667 23.782 85.3701 23.8437 85.4503 23.9305C85.6231 24.0901 85.7457 24.2973 85.9157 24.4596C85.9281 24.4753 85.9461 24.4853 85.9659 24.4876C85.9755 24.487 85.9849 24.4844 85.9935 24.4801C86.0021 24.4758 86.0098 24.4698 86.0161 24.4624C86.1011 24.3612 86.1565 24.2383 86.1762 24.1073C86.1958 23.9763 86.179 23.8424 86.1275 23.7205C86.0205 23.4779 85.9473 23.2216 85.9101 22.9589C85.9192 22.7851 85.9652 22.6152 86.045 22.4607C86.1248 22.3061 86.2366 22.1705 86.3728 22.063C86.632 21.8334 86.9302 21.6598 87.2089 21.433C87.6437 21.0578 88.1956 20.3662 88.3238 19.7895C88.452 19.2127 88.0339 18.6107 87.5517 18.3307Z" fill="#3E3E54"/>
<path d="M81.9748 31.1262C82.1866 31.3334 82.4514 31.6218 82.3009 31.8794C82.1504 32.1369 81.841 32.067 81.5818 32.0418C81.3806 32.0134 81.1758 32.0271 80.9801 32.082C80.7844 32.1369 80.6021 32.2319 80.4447 32.3609C80.0461 32.7361 79.9653 33.4025 79.4915 33.6797C79.2703 32.3161 79.2779 30.925 79.5138 29.5639C79.5447 29.3583 79.5971 29.1565 79.6699 28.9619C79.8324 28.6297 80.0512 28.3284 80.3165 28.0715C80.4974 27.9346 80.7138 27.853 80.9398 27.8366C81.1657 27.8202 81.3916 27.8697 81.5902 27.9791C81.5902 27.9791 80.9659 28.9087 81.0021 29.1999C81.1038 29.9329 81.4461 30.6108 81.9748 31.1262Z" fill="white"/>
<path d="M59.6054 32.6631C59.6054 33.3631 58.7302 33.7635 58.0446 33.6263C57.3589 33.4891 56.7904 33.0327 56.1633 32.7303C54.1008 31.7392 51.6816 32.5371 49.399 32.5595C46.6118 32.5903 43.8861 31.42 41.0878 31.4704C39.1303 31.5105 37.2304 32.1428 35.6362 33.2847C35.4675 33.3811 35.3104 33.4966 35.168 33.6291C35.0927 33.7131 34.3318 35.141 33.5682 36.4961C33.3847 35.431 33.4956 34.3357 33.8887 33.3295L33.9389 33.1979C34.3063 32.3624 34.8465 31.615 35.5236 31.0053C36.2007 30.3956 36.9991 29.9376 37.8659 29.6617C40.2879 28.8973 42.9022 29.5693 45.4413 29.5217C48.1002 29.4713 50.7619 28.6229 53.379 29.0821C55.4191 29.4377 57.2809 30.5632 59.1483 31.4872C59.2486 31.6636 59.3378 31.8428 59.427 32.0247C59.5324 32.2218 59.5933 32.4397 59.6054 32.6631Z" fill="url(#paint12_linear)"/>
</g>
<defs>
<linearGradient id="paint0_linear" x1="58.5353" y1="68.6136" x2="80.8043" y2="68.6136" gradientUnits="userSpaceOnUse">
<stop stop-opacity="0"/>
<stop offset="0.99"/>
</linearGradient>
<linearGradient id="paint1_linear" x1="8185.22" y1="3366.05" x2="11162.6" y2="-642.092" gradientUnits="userSpaceOnUse">
<stop stop-opacity="0"/>
<stop offset="0.99"/>
</linearGradient>
<linearGradient id="paint2_linear" x1="6386.49" y1="2908.51" x2="7068.26" y2="-257.926" gradientUnits="userSpaceOnUse">
<stop stop-opacity="0"/>
<stop offset="0.99"/>
</linearGradient>
<linearGradient id="paint3_linear" x1="5255.08" y1="1063.35" x2="2813.32" y2="1942.51" gradientUnits="userSpaceOnUse">
<stop stop-opacity="0"/>
<stop offset="0.99"/>
</linearGradient>
<linearGradient id="paint4_linear" x1="84.5528" y1="33.5786" x2="85.8572" y2="28.2252" gradientUnits="userSpaceOnUse">
<stop stop-opacity="0"/>
<stop offset="0.72" stop-opacity="0.51"/>
<stop offset="0.99"/>
</linearGradient>
<linearGradient id="paint5_linear" x1="2448.64" y1="2744.95" x2="6039.72" y2="3119.82" gradientUnits="userSpaceOnUse">
<stop stop-opacity="0"/>
<stop offset="0.99"/>
</linearGradient>
<linearGradient id="paint6_linear" x1="102.753" y1="16.7686" x2="109.055" y2="16.7686" gradientUnits="userSpaceOnUse">
<stop stop-color="#E5C5D5"/>
<stop offset="0.42" stop-color="#EAD4D1"/>
<stop offset="1" stop-color="#F0E9CB"/>
</linearGradient>
<linearGradient id="paint7_linear" x1="1666.8" y1="362.649" x2="1756.05" y2="457.844" gradientUnits="userSpaceOnUse">
<stop stop-opacity="0"/>
<stop offset="0.99"/>
</linearGradient>
<linearGradient id="paint8_linear" x1="4038.51" y1="2256.75" x2="3966.15" y2="4130.99" gradientUnits="userSpaceOnUse">
<stop stop-opacity="0"/>
<stop offset="0.99"/>
</linearGradient>
<linearGradient id="paint9_linear" x1="905.804" y1="999.884" x2="960.376" y2="999.884" gradientUnits="userSpaceOnUse">
<stop stop-color="#E5C5D5"/>
<stop offset="0.42" stop-color="#EAD4D1"/>
<stop offset="1" stop-color="#F0E9CB"/>
</linearGradient>
<linearGradient id="paint10_linear" x1="3652.11" y1="2457.8" x2="4468.38" y2="3623.98" gradientUnits="userSpaceOnUse">
<stop stop-opacity="0"/>
<stop offset="0.99"/>
</linearGradient>
<linearGradient id="paint11_linear" x1="2790.53" y1="1156.8" x2="3106.33" y2="1156.8" gradientUnits="userSpaceOnUse">
<stop stop-color="#E5C5D5"/>
<stop offset="0.42" stop-color="#EAD4D1"/>
<stop offset="1" stop-color="#F0E9CB"/>
</linearGradient>
<linearGradient id="paint12_linear" x1="46.0377" y1="32.9459" x2="43.6972" y2="26.4122" gradientUnits="userSpaceOnUse">
<stop offset="0.02" stop-color="white" stop-opacity="0"/>
<stop offset="1" stop-color="white"/>
</linearGradient>
<clipPath id="clip0">
<rect width="140" height="106" fill="white"/>
</clipPath>
</defs>
</svg>
