<svg width="64" height="64" viewBox="0 0 64 64" fill="none" xmlns="http://www.w3.org/2000/svg">
<path d="M32 0C14.356 0 0 14.356 0 32C0 49.644 14.356 64 32 64C49.644 64 64 49.644 64 32C64 14.356 49.644 0 32 0ZM47.22 48.552C46.7 49.072 46.016 49.332 45.336 49.332C44.652 49.332 43.972 49.072 43.452 48.552L30.12 35.22C29.62 34.72 29.34 34.044 29.34 33.336V16C29.34 14.528 30.536 13.332 32.008 13.332C33.48 13.332 34.676 14.524 34.676 16V32.228L47.228 44.78C48.26 45.824 48.26 47.512 47.22 48.552Z" fill="black"/>
</svg>
