<svg width="64" height="74" viewBox="0 0 64 74" fill="none" xmlns="http://www.w3.org/2000/svg">
<path d="M49.8215 0H47.3186H31.3011H28.7983C25.7625 0 23.2946 2.85362 23.2946 6.35938V49.1406C23.2946 52.6464 25.7625 55.5 28.7983 55.5H35.1756H45.8597H47.9694H49.8171C52.8529 55.5 55.3208 52.6464 55.3208 49.1406V6.35938C55.3251 2.85362 52.8572 0 49.8215 0ZM51.3197 48.5625C51.3197 49.839 50.4242 50.875 49.3191 50.875H29.3006C28.1955 50.875 27.3 49.839 27.3 48.5625V6.16513C27.3 4.88863 28.1955 3.85263 29.3006 3.85263H30.3009C31.406 3.85263 32.3014 4.88863 32.3014 6.16513C32.3014 7.44163 33.1968 8.47763 34.302 8.47763H44.3134C45.4185 8.47763 46.314 7.44163 46.314 6.16513C46.314 4.88863 47.2094 3.85263 48.3145 3.85263H49.3148C50.4199 3.85263 51.3153 4.88863 51.3153 6.16513V48.5625H51.3197Z" fill="black"/>
<path d="M46.4364 53.2702C46.1874 52.7476 45.6851 52.4192 45.1347 52.4192H34.8918C34.4855 46.5686 31.7817 41.199 27.3351 37.5082C26.8328 37.092 26.693 36.3196 26.9988 35.6767L30.0127 29.3359C30.515 28.2767 30.7771 27.0881 30.7771 25.8995C30.7771 23.8367 30.0171 21.8942 28.6324 20.4327C27.4924 19.2256 25.8937 18.7909 24.3561 19.2672C23.1811 19.6141 22.2202 20.4512 21.6392 21.6352L15.7817 34.0395C14.9693 35.797 14.5543 37.6562 14.5543 39.5617C14.5543 41.2776 14.0651 42.9796 13.209 44.455L30.8208 63.103C32.2316 62.1919 33.8653 61.6692 35.5207 61.6692C39.2598 61.6692 42.8284 59.7776 45.0736 56.6141L46.2966 54.889C46.6286 54.4172 46.681 53.7929 46.4364 53.2702Z" fill="black"/>
<path d="M9.76249 45.1582C9.19465 44.557 8.273 44.557 7.70516 45.1582L0 53.3167V73.9997H25.3563L30.1523 68.9215C30.7202 68.3202 30.7202 67.3443 30.1523 66.7431L9.76249 45.1582Z" fill="black"/>
<path d="M53.1416 32.3748H45.8602C43.0515 32.3748 40.7627 29.956 40.7627 26.9775C40.7627 23.999 43.0472 21.5801 45.8602 21.5801H53.1416C53.5216 21.5801 53.8798 21.6263 54.2292 21.7234C56.5137 22.1859 58.2347 24.406 58.2347 26.9775C58.2347 29.549 56.5137 31.7689 54.1419 32.2499C53.8798 32.3286 53.5216 32.3748 53.1416 32.3748Z" fill="black"/>
<path d="M53.1416 40.8524H45.8602C43.0515 40.8524 40.7627 38.4335 40.7627 35.455C40.7627 32.4811 43.0472 30.0576 45.8602 30.0576H53.1416C53.5216 30.0576 53.8798 30.1039 54.2292 30.201C56.5137 30.6635 58.2347 32.8835 58.2347 35.455C58.2347 38.0265 56.5137 40.2465 54.1419 40.7275C53.8798 40.8061 53.5216 40.8524 53.1416 40.8524Z" fill="black"/>
<path d="M53.1412 49.3348H48.7732C45.9646 49.3348 43.6758 46.9159 43.6758 43.9374C43.6758 40.9589 45.9602 38.54 48.7732 38.54H53.1412C53.5213 38.54 53.8794 38.5863 54.2289 38.6834C56.5133 39.1459 58.2343 41.3659 58.2343 43.9374C58.2343 46.5089 56.5133 48.7289 54.1415 49.2099C53.8794 49.2885 53.5213 49.3348 53.1412 49.3348Z" fill="black"/>
<path d="M62.5281 10.8733C61.3575 9.63381 59.7675 9.12969 58.2343 9.36094V23.0509L62.5456 18.4861C63.4847 17.4501 64.0001 16.0949 64.0001 14.6751C64.0045 13.2321 63.4803 11.8816 62.5281 10.8733Z" fill="black"/>
</svg>
