<svg width="140" height="106" viewBox="0 0 140 106" fill="none" xmlns="http://www.w3.org/2000/svg">
<g clip-path="url(#clip0)">
<path opacity="0.24" d="M120.461 102.788C118.451 108.576 104.342 104.834 100.171 104.55C96.2547 104.285 92.3367 104.087 88.4165 103.957C77.6595 103.595 66.8795 103.73 56.1356 104.363C53.5885 104.51 51.0424 104.687 48.4975 104.893C43.4272 105.298 38.2914 105.819 33.2769 105.068C32.8801 105.008 32.48 104.942 32.0799 104.863C27.5114 103.984 22.9987 101.753 20.1881 98.1194C19.6737 97.4559 19.2204 96.7468 18.8337 96.0009C16.1575 90.812 17.0594 84.549 15.8033 78.846C14.6817 73.7526 11.8678 69.2127 10.1395 64.2906C8.54659 59.7615 7.89017 54.9536 8.21039 50.161C8.53062 45.3683 9.82075 40.6917 12.0019 36.4171C14.183 32.1425 17.2093 28.3599 20.8956 25.3005C24.5818 22.2412 28.8507 19.9694 33.4409 18.6243C42.0465 16.0974 51.3769 16.9342 59.9399 14.282C68.9785 11.4751 76.5051 4.98802 85.4649 1.92735C93.3661 -0.738869 101.937 -0.612162 109.757 2.28646C118.871 5.69635 127.116 15.1881 124.203 24.5117C122.996 28.3664 120.028 31.6511 119.635 35.6738C118.871 43.5215 127.886 49.0762 129.113 56.8646C130.497 65.6578 121.947 72.3162 116.608 79.4226C115.135 81.3763 113.84 83.5672 113.453 85.9854C112.433 92.3868 121.963 98.4719 120.461 102.788Z" fill="#5D38C4"/>
<path d="M71.8907 40.5795C71.8907 40.5795 75.2064 41.4427 74.8424 42.3684C74.4783 43.2942 72.9533 44.2398 70.8347 45.3336L70.9101 46.3911C70.9101 46.3911 76.5084 44.6878 77.1709 42.3915C77.3601 41.7206 77.3929 41.015 77.2666 40.3293C77.1404 39.6436 76.8584 38.9964 76.4428 38.438L71.8907 40.5795Z" fill="#5D38C4"/>
<path d="M71.8907 40.5795C71.8907 40.5795 75.2064 41.4427 74.8424 42.3684C74.4783 43.2942 72.9533 44.2398 70.8347 45.3336L70.9101 46.3911C70.9101 46.3911 76.5084 44.6878 77.1709 42.3915C77.3601 41.7206 77.3929 41.015 77.2666 40.3293C77.1404 39.6436 76.8584 38.9964 76.4428 38.438L71.8907 40.5795Z" fill="url(#paint0_linear)"/>
<path d="M71.0248 37.041C71.0248 37.041 68.7619 38.3852 68.4012 38.6883C68.0404 38.9914 68.047 39.9798 68.903 41.0209C70.1918 42.5825 71.2577 42.1839 71.2577 42.1839L73.4386 39.9106L71.0248 37.041Z" fill="#5D38C4"/>
<path d="M71.0248 37.041C71.0248 37.041 68.7619 38.3852 68.4012 38.6883C68.0404 38.9914 68.047 39.9798 68.903 41.0209C70.1918 42.5825 71.2577 42.1839 71.2577 42.1839L73.4386 39.9106L71.0248 37.041Z" fill="url(#paint1_linear)"/>
<path d="M69.231 38.4708C71.2874 35.0017 74.0245 31.9887 77.2758 29.615C82.7592 25.5659 90.8598 22.5646 93.5622 23.4212C96.2645 24.2777 92.8374 30.7187 81.5917 36.8927C81.3523 37.0212 79.7387 37.914 79.4895 38.0228L71.6677 41.3173C71.6677 41.3173 70.1984 41.2449 69.231 38.4708Z" fill="#5D38C4"/>
<path d="M69.231 38.4708C71.2874 35.0017 74.0245 31.9887 77.2758 29.615C82.7592 25.5659 90.8598 22.5646 93.5622 23.4212C96.2645 24.2777 92.8374 30.7187 81.5917 36.8927C81.3523 37.0212 79.7387 37.914 79.4895 38.0228L71.6677 41.3173C71.6677 41.3173 70.1984 41.2449 69.231 38.4708Z" fill="url(#paint2_linear)"/>
<path d="M73.7896 32.6363C73.7896 32.6363 71.3594 30.2147 68.6341 31.414C65.9088 32.6132 61.9962 38.4611 61.9962 38.4611L63.3474 38.5369C63.3474 38.5369 67.8568 34.2341 68.6702 34.5834C69.4835 34.9326 69.5491 37.901 69.5491 37.901C69.5491 37.901 71.4348 37.6572 72.7762 35.4465C74.1175 33.2359 73.7896 32.6363 73.7896 32.6363Z" fill="#5D38C4"/>
<path d="M73.7896 32.6363C73.7896 32.6363 71.3594 30.2147 68.6341 31.414C65.9088 32.6132 61.9962 38.4611 61.9962 38.4611L63.3474 38.5369C63.3474 38.5369 67.8568 34.2341 68.6702 34.5834C69.4835 34.9326 69.5491 37.901 69.5491 37.901C69.5491 37.901 71.4348 37.6572 72.7762 35.4465C74.1175 33.2359 73.7896 32.6363 73.7896 32.6363Z" fill="url(#paint3_linear)"/>
<path d="M88.4165 103.954C77.6595 103.592 66.8795 103.727 56.1356 104.359C53.5885 104.507 51.0424 104.683 48.4975 104.89C43.4272 105.295 38.2914 105.816 33.2769 105.064C32.8801 105.005 32.48 104.939 32.0799 104.86C27.5114 103.98 22.9987 101.75 20.1881 98.1161C21.5524 82.6118 30.3712 72.6029 34.1591 67.5984C40.5215 59.2038 66.1711 39.3737 68.7882 38.6258C71.3824 37.8911 70.7396 38.9553 70.7396 38.9553L71.2545 42.1839C70.7429 42.5365 30.4565 70.4943 49.2157 87.949C59.0839 97.1311 74.5603 101.701 88.4165 103.954Z" fill="url(#paint4_linear)"/>
<path d="M36.4417 79.8574C31.4796 92.1 41.5644 99.2789 56.1355 104.362C53.5884 104.51 51.0423 104.686 48.4974 104.893C43.4272 105.298 38.2913 105.819 33.2769 105.068C30.522 98.877 29.3414 93.207 29.5021 89.1942C30.3318 67.0974 68.2011 39.0638 68.7882 38.6289L71.2544 42.1772C70.8248 42.3221 48.4416 50.2291 36.4417 79.8574Z" fill="url(#paint5_linear)"/>
<path d="M87.9967 30.6594C88.9983 30.6594 89.8103 29.8437 89.8103 28.8375C89.8103 27.8313 88.9983 27.0156 87.9967 27.0156C86.9951 27.0156 86.1831 27.8313 86.1831 28.8375C86.1831 29.8437 86.9951 30.6594 87.9967 30.6594Z" fill="url(#paint6_linear)"/>
<path d="M87.9967 30.3596C88.8335 30.3596 89.5119 29.6782 89.5119 28.8375C89.5119 27.9969 88.8335 27.3154 87.9967 27.3154C87.1599 27.3154 86.4816 27.9969 86.4816 28.8375C86.4816 29.6782 87.1599 30.3596 87.9967 30.3596Z" fill="url(#paint7_linear)"/>
<path d="M101.548 53.975C98.2684 52.443 94.4575 51.9521 91.0008 52.9866C87.5441 54.0211 84.5335 56.7161 83.4315 60.1688C83.1265 61.1243 82.9527 62.1456 82.3657 62.9692C81.6081 64.0169 80.3159 64.5045 79.3091 65.3183C76.1738 67.8518 76.7215 73.2714 79.719 75.9697C82.7166 78.6679 87.2358 79.0073 91.1254 77.9728C95.202 82.5687 102.037 84.4763 107.891 82.6511C109.032 84.3873 111.531 84.7629 113.482 84.0612C115.434 83.3594 116.965 81.8406 118.428 80.3646L122.891 75.8675C125.387 73.3538 127.909 70.8005 129.677 67.7266C131.445 64.6528 132.389 60.9398 131.487 57.5134C131.066 55.9142 130.264 54.4418 129.15 53.2228C128.037 52.0039 126.645 51.0749 125.095 50.5158C123.545 49.9567 121.883 49.7843 120.252 50.0132C118.621 50.2422 117.07 50.8657 115.732 51.8302C115.161 48.1568 112.125 47.6362 108.645 48.3643C107.779 48.5422 100.171 53.3293 101.548 53.975Z" fill="url(#paint8_linear)"/>
<path d="M29.6367 35.4464C31.3125 34.5206 33.2442 33.8584 35.1267 34.2439C37.0091 34.6293 38.6916 36.3491 38.5046 38.2632C39.3359 38.1756 40.1719 38.3766 40.8735 38.8328C41.5752 39.289 42.1 39.9729 42.3608 40.7707C42.6215 41.5684 42.6023 42.4317 42.3065 43.217C42.0106 44.0022 41.4559 44.662 40.7348 45.0863C42.7353 46.592 42.6566 49.8997 41.0102 51.7875C39.3639 53.6753 36.655 54.3079 34.1625 54.1234C31.67 53.9389 29.2923 53.0526 26.8884 52.3674C26.2456 52.1324 25.5549 52.0611 24.878 52.1598C24.1434 52.3311 23.5661 52.8714 22.9627 53.336C21.6063 54.3821 20.0418 55.1227 18.3752 55.5075C16.7087 55.8924 14.9793 55.9125 13.3043 55.5664C12.2198 55.3753 11.2029 54.9054 10.3527 54.2025C9.20814 53.1713 8.68668 51.5997 8.51287 50.0645C8.04389 45.9297 10.1527 41.3832 14.0193 39.8512C14.0193 39.8512 14.5375 37.6933 14.6752 37.4429C15.1066 36.6196 15.7082 35.8985 16.4396 35.3278C17.7514 34.3032 19.4535 33.7628 21.0114 33.2555C24.0351 32.2605 28.7708 30.8669 29.6367 35.4464Z" fill="url(#paint9_linear)"/>
</g>
<defs>
<linearGradient id="paint0_linear" x1="75.4382" y1="44.0909" x2="70.4407" y2="37.8851" gradientUnits="userSpaceOnUse">
<stop stop-opacity="0"/>
<stop offset="0.95"/>
</linearGradient>
<linearGradient id="paint1_linear" x1="1549.06" y1="1132.88" x2="1631.33" y2="1132.88" gradientUnits="userSpaceOnUse">
<stop stop-opacity="0"/>
<stop offset="0.95"/>
</linearGradient>
<linearGradient id="paint2_linear" x1="83.8893" y1="33.6053" x2="77.3173" y2="25.683" gradientUnits="userSpaceOnUse">
<stop offset="0.02" stop-color="white" stop-opacity="0"/>
<stop offset="0.32" stop-color="white" stop-opacity="0.39"/>
<stop offset="0.68" stop-color="white" stop-opacity="0.68"/>
<stop offset="1" stop-color="white"/>
</linearGradient>
<linearGradient id="paint3_linear" x1="3532.67" y1="1361.66" x2="3413.24" y2="1700.35" gradientUnits="userSpaceOnUse">
<stop offset="0.02" stop-color="white" stop-opacity="0"/>
<stop offset="0.32" stop-color="white" stop-opacity="0.39"/>
<stop offset="0.68" stop-color="white" stop-opacity="0.68"/>
<stop offset="1" stop-color="white"/>
</linearGradient>
<linearGradient id="paint4_linear" x1="4568.98" y1="14710.6" x2="18763.2" y2="14710.6" gradientUnits="userSpaceOnUse">
<stop offset="0.02" stop-color="white" stop-opacity="0"/>
<stop offset="0.32" stop-color="white" stop-opacity="0.39"/>
<stop offset="0.68" stop-color="white" stop-opacity="0.68"/>
<stop offset="1" stop-color="white"/>
</linearGradient>
<linearGradient id="paint5_linear" x1="7959.74" y1="17897" x2="1468.17" y2="10970.6" gradientUnits="userSpaceOnUse">
<stop offset="0.02" stop-color="white" stop-opacity="0"/>
<stop offset="0.32" stop-color="white" stop-opacity="0.39"/>
<stop offset="0.68" stop-color="white" stop-opacity="0.68"/>
<stop offset="1" stop-color="white"/>
</linearGradient>
<linearGradient id="paint6_linear" x1="1411.11" y1="518.369" x2="1385.02" y2="419.945" gradientUnits="userSpaceOnUse">
<stop offset="0.02" stop-color="white" stop-opacity="0"/>
<stop offset="0.32" stop-color="white" stop-opacity="0.39"/>
<stop offset="0.68" stop-color="white" stop-opacity="0.68"/>
<stop offset="1" stop-color="white"/>
</linearGradient>
<linearGradient id="paint7_linear" x1="1185.47" y1="427.154" x2="1167.26" y2="358.442" gradientUnits="userSpaceOnUse">
<stop offset="0.02" stop-color="white" stop-opacity="0"/>
<stop offset="0.32" stop-color="white" stop-opacity="0.39"/>
<stop offset="0.68" stop-color="white" stop-opacity="0.68"/>
<stop offset="1" stop-color="white"/>
</linearGradient>
<linearGradient id="paint8_linear" x1="18576.8" y1="8167.61" x2="17270.2" y2="4686.33" gradientUnits="userSpaceOnUse">
<stop offset="0.02" stop-color="white" stop-opacity="0"/>
<stop offset="0.32" stop-color="white" stop-opacity="0.39"/>
<stop offset="0.68" stop-color="white" stop-opacity="0.68"/>
<stop offset="1" stop-color="white"/>
</linearGradient>
<linearGradient id="paint9_linear" x1="22.3396" y1="50.1831" x2="39.0724" y2="32.8343" gradientUnits="userSpaceOnUse">
<stop offset="0.02" stop-color="white" stop-opacity="0"/>
<stop offset="0.32" stop-color="white" stop-opacity="0.39"/>
<stop offset="0.66" stop-color="white" stop-opacity="0.68"/>
<stop offset="1" stop-color="white"/>
</linearGradient>
<clipPath id="clip0">
<rect width="140" height="106" fill="white"/>
</clipPath>
</defs>
</svg>
