<svg width="64" height="64" viewBox="0 0 64 64" fill="none" xmlns="http://www.w3.org/2000/svg">
<path d="M56.6645 0H7.33154C3.2878 0 0 3.288 0 7.332V43.332C0 47.376 3.2878 50.664 7.33154 50.664H10.6633V62C10.6633 62.808 11.1513 63.536 11.8993 63.848C12.1472 63.952 12.4072 64 12.6672 64C13.1872 64 13.6991 63.796 14.0831 63.416L26.8303 50.668H56.6685C60.7122 50.668 64 47.38 64 43.336V7.336C63.996 3.288 60.7082 0 56.6645 0ZM37.4377 37.04C37.4377 38.668 36.1057 40 34.4499 40H29.5422C28.1022 40 26.5543 38.932 26.5543 36.56V35.12H37.4337V37.04H37.4377ZM39.5975 29.148C38.4776 30.056 37.7576 31.228 37.5177 32.456H26.5063C26.3184 31.256 25.6544 30.136 24.5585 29.284C21.5987 26.964 19.9188 23.472 19.9988 19.684C20.1307 13.336 25.4384 8.084 31.81 8.004C35.0378 7.924 38.1296 9.176 40.4495 11.472C42.7453 13.708 43.9972 16.72 43.9972 19.92C43.9972 23.52 42.3974 26.88 39.5975 29.148Z" fill="black"/>
</svg>
