<svg width="140" height="105" viewBox="0 0 140 105" fill="none" xmlns="http://www.w3.org/2000/svg">
<path opacity="0.18" d="M57.5328 103.606C57.9838 101.079 56.0392 100.379 54.44 98.3738C52.8408 96.3687 50.9218 94.51 50.0007 92.1039C49.4729 90.7131 49.2555 89.0963 48.136 88.1096C47.3812 87.4445 46.329 87.1867 45.5933 86.4992C44.0485 85.0543 44.5603 82.5527 45.0976 80.5126C45.6349 78.4725 45.8716 75.8467 44.0965 74.6946C42.9195 73.934 41.3427 74.2045 40.0474 73.6698C38.3362 72.9569 37.4887 70.9677 37.4343 69.1249C37.3799 67.2821 37.9333 65.4776 38.1955 63.6507C39.5548 54.2618 33.2764 45.0288 34.5654 35.6431C33.753 35.5953 32.7071 35.5157 31.8979 35.4712C31.9843 42.1548 32.0675 48.8926 30.7881 55.4553C29.5088 62.018 26.7486 68.4725 21.903 73.1033C20.0448 74.876 17.6972 76.862 18.065 79.3986C18.2825 80.9581 19.5459 82.454 19.0245 83.9371C18.7814 84.6214 18.1993 85.1211 17.6652 85.6176C16.0159 87.137 14.6722 88.9548 13.7056 90.9741C11.8762 94.8506 10.6032 101.159 6.98907 103.492C23.2208 104.421 41.2915 102.67 57.5328 103.606Z" fill="#5D38C4"/>
<path d="M28.8914 21.0025C29.0123 20.0357 29.3899 19.1184 29.9852 18.345C30.0912 18.201 30.2367 18.0904 30.4042 18.0267C30.8232 17.9026 31.2038 18.2973 31.4437 18.6633C32.8318 20.7925 33.4203 23.3227 33.964 25.802C34.6101 28.7683 35.2497 31.76 35.2497 34.7931C35.2656 34.9648 35.2381 35.1376 35.1698 35.296C35.02 35.5151 34.7907 35.668 34.5301 35.7225C33.529 36.0407 31.5748 36.4354 30.7912 35.4838C30.0972 34.6404 30.1164 32.6671 29.8989 31.6645C29.1505 28.1668 28.2613 24.5767 28.8914 21.0025Z" fill="#5D38C4"/>
<path d="M64.1821 12.6641C64.5691 12.7277 83.9 20.8627 83.9 20.8627C83.9 20.8627 84.351 28.6475 84.287 28.4534C84.2231 28.2592 32.2496 33.2783 32.3168 32.8296C32.384 32.3808 31.6036 23.0396 31.6036 23.0396L48.5069 14.5482L64.1821 12.6641Z" fill="#5D38C4"/>
<path d="M63.0212 14.5322C63.4082 14.5991 83.0782 22.9918 83.0782 22.9918C83.0782 22.9918 84.3575 28.6474 84.2871 28.4533C84.2168 28.2592 32.2498 33.2782 32.3169 32.8295C32.3841 32.3807 31.7316 25.1624 31.7316 25.1624L48.683 16.48L63.0212 14.5322Z" fill="url(#paint0_linear)"/>
<path d="M46.0891 32.371C46.6808 32.8293 47.2181 33.4817 47.9697 33.5263C48.3289 33.5203 48.6829 33.4401 49.0092 33.2908C49.4195 33.1872 49.779 32.9411 50.0231 32.5969C50.1019 32.4261 50.1505 32.2431 50.167 32.0559C50.3798 30.4128 50.1364 28.743 49.4634 27.2278C49.2267 26.6931 49.3578 25.1495 48.8237 24.8948C48.2896 24.6402 47.2245 25.716 46.6328 25.8019C46.573 25.8084 46.5147 25.8246 46.4601 25.8497C46.2682 25.9547 46.2842 26.2284 46.3226 26.4416C46.5652 27.7516 46.6809 29.0817 46.668 30.4136C46.6328 29.9744 46.1243 29.7198 45.6829 29.723C44.992 29.723 43.9142 30.3913 44.202 31.2252C44.3012 31.5053 44.6018 31.5785 44.8417 31.6835C45.2854 31.8586 45.7046 32.0896 46.0891 32.371Z" fill="url(#paint1_linear)"/>
<path d="M47.8066 29.4238C47.9236 29.4578 48.0479 29.4578 48.1648 29.4238C48.4111 29.3379 48.4847 29.0323 48.5039 28.7873C48.5022 28.452 48.4701 28.1175 48.4079 27.7879L48.1073 25.9038C48.1058 25.8602 48.0913 25.8181 48.0657 25.7828C48.0407 25.7606 48.0112 25.744 47.9792 25.7341C47.9472 25.7242 47.9134 25.7213 47.8802 25.7255C47.3319 25.7318 46.7896 25.8397 46.281 26.0438L46.4537 27.4219C46.4583 27.4852 46.4723 27.5474 46.4953 27.6065C46.5253 27.6624 46.5584 27.7166 46.5944 27.7688C46.8183 28.1189 46.5944 28.5358 46.7927 28.8637C46.991 29.1915 47.49 29.3474 47.8066 29.4238Z" fill="url(#paint2_linear)"/>
<path d="M52.9847 0.270485C54.1743 -0.119824 55.4634 -0.0860678 56.6308 0.365966C56.9051 0.463038 57.1654 0.595737 57.4048 0.760619C58.3227 1.37488 59.1671 2.19283 59.4773 3.2463C59.6085 3.68869 59.6373 4.15973 59.7812 4.59894C59.8379 4.82356 59.9484 5.03118 60.1032 5.2041C60.258 5.37701 60.4526 5.51008 60.6703 5.59194C60.5489 5.76107 60.3854 5.896 60.196 5.98357C60.0065 6.07114 59.7975 6.10837 59.5893 6.09162C59.8971 6.57486 60.2505 7.02779 60.6447 7.44426C60.1681 7.54273 59.6728 7.49843 59.2215 7.31695C59.3595 7.64407 59.426 7.99667 59.4166 8.35132C59.0251 8.31737 58.6455 8.20015 58.3035 8.00759C58.267 8.1276 58.1895 8.23114 58.0843 8.3003C57.9792 8.36945 57.8531 8.39989 57.7278 8.38633C57.4777 8.35222 57.239 8.26069 57.0306 8.11899L55.9367 7.48245C55.102 7.05163 54.3366 6.49917 53.6659 5.84337C53.2643 5.38797 52.9216 4.88438 52.6456 4.34432C52.3866 3.86692 50.9921 3.3736 50.9505 2.81982C50.8641 1.6836 52.0187 0.458264 52.9847 0.270485Z" fill="#3E3E54"/>
<path d="M48.7309 25.4329L49.1946 27.2948C49.2876 27.6952 49.4051 28.0895 49.5465 28.4756C50.0038 29.6373 50.9154 30.6207 51.1456 31.8461C51.1872 32.0529 51.232 32.298 51.4271 32.3808C51.5478 32.4188 51.6774 32.4188 51.7981 32.3808C52.9495 32.1261 54.1489 32.2662 55.3163 32.158C56.1936 32.048 57.0623 31.8789 57.9166 31.6519C60.5658 31.0357 63.2562 30.6103 65.9669 30.3788C66.2419 30.3534 66.5713 30.2961 66.6737 30.0415C66.7077 29.939 66.7175 29.8301 66.7025 29.7232C66.5458 27.2757 65.4231 25.016 64.6459 22.6895C64.6136 22.6305 64.5953 22.5649 64.5925 22.4978C64.5896 22.4307 64.6023 22.3639 64.6295 22.3024C64.6567 22.2409 64.6976 22.1865 64.7493 22.1432C64.8009 22.1 64.8619 22.0691 64.9274 22.0529C66.6807 21.1777 68.3434 20.133 69.8912 18.9339L67.9275 15.9549C66.792 14.2299 65.5543 12.4158 63.664 11.5628C62.4838 11.0345 61.1565 10.9263 59.8644 10.9263C58.4731 10.9263 57.085 11.0568 55.7065 11.1809C54.8293 11.2164 53.957 11.3293 53.0998 11.5182C50.7618 12.1548 47.2212 14.0103 46.3833 15.8531C44.1444 20.7449 45.2287 25.382 45.0272 25.6653C44.9395 25.757 44.871 25.8652 44.8257 25.9836C44.7585 26.2445 45.04 26.4896 45.3086 26.5023C45.5802 26.4867 45.8433 26.4023 46.073 26.2573C46.9013 25.8517 47.8029 25.6158 48.7245 25.5634C48.7117 25.6239 48.7117 25.3597 48.7309 25.4329Z" fill="white"/>
<path d="M58.5147 21.4482C58.5232 22.0725 58.4901 22.6966 58.4155 23.3165C58.4133 23.4297 58.3789 23.5401 58.3164 23.6347C58.1746 23.7635 57.9902 23.836 57.7982 23.8384C55.617 24.1153 53.4037 24.0453 51.2 23.9785C51.1047 23.981 51.0099 23.9636 50.9218 23.9276C50.8255 23.8692 50.7513 23.7808 50.7107 23.6761C50.5092 23.2496 50.2565 22.403 50.7555 22.0561C51.2544 21.7092 52.425 21.8588 52.9943 21.8206L58.5147 21.4482Z" fill="#5D38C4"/>
<path d="M58.5147 21.4482C58.5232 22.0725 58.4901 22.6966 58.4155 23.3165C58.4133 23.4297 58.3789 23.5401 58.3164 23.6347C58.1746 23.7635 57.9902 23.836 57.7982 23.8384C55.617 24.1153 53.4037 24.0453 51.2 23.9785C51.1047 23.981 51.0099 23.9636 50.9218 23.9276C50.8255 23.8692 50.7513 23.7808 50.7107 23.6761C50.5092 23.2496 50.2565 22.403 50.7555 22.0561C51.2544 21.7092 52.425 21.8588 52.9943 21.8206L58.5147 21.4482Z" fill="url(#paint3_linear)"/>
<path d="M52.2011 31.7407C52.2011 31.5911 51.9676 31.6198 51.8429 31.6994C48.0049 34.1309 44.3331 36.7917 40.6486 39.4206C39.787 39.9971 38.9865 40.6593 38.2594 41.397C37.5558 42.164 36.9801 43.1252 36.9801 44.1628C36.993 44.7324 37.1123 45.2947 37.3319 45.8209C38.752 49.602 42.1934 52.1863 44.653 55.4072C45.8811 56.9985 46.9142 58.8286 48.571 59.9871C48.8908 60.213 49.2586 60.439 49.3834 60.8114C49.345 60.8496 49.7576 60.7127 49.7192 60.7509C51.0316 59.9568 52.2328 58.9936 53.2918 57.8865C52.1335 56.9029 51.0633 55.821 50.0934 54.6529C49.5689 54.0609 49.0443 53.4689 48.5774 52.8324C47.788 51.7034 47.0866 50.516 46.4792 49.2805C46.0155 48.3957 45.315 47.6892 45.5997 46.7344C46.0059 45.369 49.6456 43.4976 51.7405 42.2786C53.7683 41.0946 57.1778 39.2678 57.0914 39.306C57.0914 39.306 55.2012 47.6192 59.6981 54.2646C64.195 60.91 70.2815 70.9641 70.6269 70.8496C70.9723 70.735 74.0875 66.3715 74.0875 66.3715L65.5511 51.9062C65.5511 51.9062 68.001 34.0164 65.9669 30.334L52.2011 31.7407Z" fill="#3E3E54"/>
<path d="M52.2011 31.7407C52.2011 31.5911 51.9676 31.6198 51.8429 31.6994C48.0049 34.1309 44.3331 36.7917 40.6486 39.4206C39.787 39.9971 38.9865 40.6593 38.2594 41.397C37.5558 42.164 36.9801 43.1252 36.9801 44.1628C36.993 44.7324 37.1123 45.2947 37.3319 45.8209C38.752 49.602 42.1934 52.1863 44.653 55.4072C45.8811 56.9985 46.9142 58.8286 48.571 59.9871C48.8908 60.213 49.2586 60.439 49.3834 60.8114C49.345 60.8496 49.7576 60.7127 49.7192 60.7509C51.0316 59.9568 52.2328 58.9936 53.2918 57.8865C52.1335 56.9029 51.0633 55.821 50.0934 54.6529C49.5689 54.0609 49.0443 53.4689 48.5774 52.8324C47.788 51.7034 47.0866 50.516 46.4792 49.2805C46.0155 48.3957 45.315 47.6892 45.5997 46.7344C46.0059 45.369 49.6456 43.4976 51.7405 42.2786C53.7683 41.0946 57.1778 39.2678 57.0914 39.306C57.0914 39.306 55.2012 47.6192 59.6981 54.2646C64.195 60.91 70.2815 70.9641 70.6269 70.8496C70.9723 70.735 74.0875 66.3715 74.0875 66.3715L65.5511 51.9062C65.5511 51.9062 68.001 34.0164 65.9669 30.334L52.2011 31.7407Z" fill="url(#paint4_linear)"/>
<path d="M51.667 62.2024C51.7843 63.7556 51.9485 65.3045 52.1596 66.8491C52.2044 67.1674 52.2811 67.5398 52.5658 67.6925C52.7075 67.7471 52.861 67.764 53.0113 67.7417C53.1616 67.7194 53.3034 67.6586 53.4229 67.5652C53.9982 67.1674 54.4263 66.5927 54.6415 65.9293C54.8511 65.2705 54.9863 64.5905 55.0445 63.902L55.3899 61.1426C55.4379 60.7415 55.4699 60.2832 55.1884 59.9936C54.907 59.704 54.4336 59.7199 54.037 59.6149C53.4293 59.4525 52.9688 58.9783 52.5402 58.52C52.1948 58.9179 51.1009 59.7008 51.1233 60.2291C51.1233 60.5124 51.424 60.8434 51.5039 61.1203C51.5949 61.4746 51.6496 61.8371 51.667 62.2024Z" fill="#3E3E54"/>
<path d="M72.3124 70.8659C72.4328 71.1545 72.5104 71.459 72.5427 71.7698C72.7253 72.7713 72.9613 73.7625 73.2495 74.7392C73.3174 75.0538 73.4374 75.355 73.6046 75.6304C73.6895 75.7679 73.8072 75.8826 73.9472 75.9642C74.0872 76.0458 74.2452 76.0918 74.4074 76.0982C74.9447 76.0982 75.2805 75.5253 75.4884 75.0352C75.908 74.1276 76.1863 73.1617 76.3136 72.1708C76.4349 71.18 76.2354 70.1766 75.7443 69.3064C75.6634 69.1546 75.5444 69.0263 75.3989 68.934C75.199 68.8609 74.9904 68.8138 74.7784 68.794C74.2091 68.6539 73.8636 68.0778 73.3551 67.7914C73.3064 67.757 73.2484 67.7381 73.1888 67.7373C73.0952 67.753 73.0114 67.8044 72.9553 67.8805C72.499 68.3703 72.0919 68.9032 71.7399 69.4719C71.5064 69.8506 71.4393 69.9015 71.7687 70.2007C71.9903 70.3865 72.1748 70.6121 72.3124 70.8659Z" fill="#3E3E54"/>
<path d="M80.4938 16.8716C80.6155 15.9056 80.9918 14.9888 81.5844 14.2141C81.6915 14.0698 81.838 13.9593 82.0066 13.8958C82.4256 13.7685 82.8062 14.1664 83.0461 14.5324C84.4342 16.6584 85.0227 19.1918 85.5664 21.6711C86.2061 24.6342 86.8457 27.6291 86.8649 30.6622C86.8795 30.8328 86.852 31.0043 86.785 31.1619C86.6364 31.3822 86.4066 31.5355 86.1453 31.5884C85.1442 31.9067 83.1868 32.3013 82.4064 31.3529C81.7124 30.5063 81.7315 28.5362 81.5109 27.5336C80.7496 24.0359 79.8605 20.4458 80.4938 16.8716Z" fill="#5D38C4"/>
<path opacity="0.18" d="M133.021 104.955C127.206 103.886 123.307 98.523 120.381 93.4117C119.648 92.1386 118.893 90.7987 117.675 89.968C116.456 89.1373 114.62 88.9941 113.61 90.0667C112.844 87.2143 111.643 84.4956 110.05 82.0049C108.623 79.777 106.736 77.6478 104.187 76.9126C101.638 76.1774 98.3982 77.3932 97.7554 79.9521C95.5741 80.0794 93.9173 77.8992 93.444 75.7796C92.9706 73.6599 93.2233 71.4161 92.6412 69.3219C92.2542 67.9183 91.4962 66.5943 91.429 65.143C91.2915 62.0495 94.3075 59.15 93.3032 56.2315C92.7051 54.481 90.8661 53.4658 89.897 51.8903C89.2573 50.8369 89.0206 49.5861 88.8031 48.3671L85.7231 30.9419C84.9747 31.1169 83.9576 31.9158 83.2092 32.0908C84.5333 46.3716 85.7391 61.4129 79.7614 74.4619C78.5268 77.1545 76.9212 79.8057 74.4489 81.4639C72.9105 82.4887 71.1226 83.0552 69.4019 83.749C66.6321 84.8407 63.8943 86.2952 62.0616 88.6313C60.2289 90.9674 59.5029 94.3601 60.9582 96.9476C62.0104 98.8222 60.7375 101.594 60.8622 103.736C83.7721 103.351 110.111 105.312 133.021 104.955Z" fill="#5D38C4"/>
<path d="M57.3186 11.3717C57.0937 12.7179 56.3871 13.9376 55.3292 14.8058C54.9525 15.1352 54.5033 15.3717 54.0179 15.4965C53.7762 15.5569 53.5243 15.5649 53.2793 15.5198C53.0342 15.4748 52.8018 15.3778 52.5978 15.2355C52.2582 14.9414 52.0098 14.5573 51.8813 14.1279C51.8526 14.0484 51.8238 13.9656 51.7982 13.886C51.7157 13.6024 51.7177 13.3011 51.804 13.0186C51.8903 12.7361 52.0571 12.4846 52.2843 12.2947C52.3469 12.2385 52.4018 12.1743 52.4475 12.1037C52.4753 12.0546 52.4968 12.0023 52.5114 11.9478C52.7097 11.2476 52.3675 10.7097 52.3003 10.1018C52.3006 9.93928 52.3355 9.77863 52.4028 9.6305C52.47 9.48237 52.5681 9.35012 52.6905 9.24251C53.2582 8.56858 54.0193 8.08331 54.8718 7.85167C54.9833 7.82155 55.0987 7.80867 55.214 7.81348C55.9113 7.84531 56.0392 8.45002 56.116 8.95288C56.1736 9.32844 56.2311 9.70081 56.2855 10.0764C56.3128 10.3849 56.3996 10.6854 56.5414 10.9612C56.617 11.0972 56.7307 11.2084 56.8687 11.2813C57.0067 11.3542 57.163 11.3856 57.3186 11.3717Z" fill="url(#paint5_linear)"/>
<path d="M55.5626 7.99805C55.5059 8.75481 55.3266 9.49747 55.0317 10.1973C54.1586 12.0814 52.4538 12.1069 52.4538 12.1069C52.4817 12.0578 52.5032 12.0054 52.5178 11.9509C52.7161 11.2508 52.3739 10.7129 52.3067 10.105L55.5626 7.99805Z" fill="url(#paint6_linear)"/>
<path d="M49.6745 6.76329C49.4731 7.16476 49.333 7.59382 49.2587 8.03637C49.2282 8.34721 49.2621 8.66098 49.3584 8.95825C49.4546 9.25551 49.6112 9.52995 49.8184 9.76456C50.0282 9.99739 50.2844 10.1841 50.5708 10.3129C50.8571 10.4417 51.1673 10.5097 51.4815 10.5125C51.8967 10.5036 52.3066 10.4184 52.6905 10.2611C53.7674 9.8557 54.7235 9.18561 55.4699 8.31326C55.5685 8.44508 55.7023 8.54663 55.8562 8.60629C56.01 8.66595 56.1776 8.68132 56.3398 8.65062C56.6633 8.58084 56.9591 8.41817 57.1906 8.18277C57.3016 8.09909 57.392 7.99146 57.4552 7.86798C57.5183 7.7445 57.5526 7.60838 57.5552 7.46985C57.5136 7.04655 57.0179 6.84922 56.5957 6.74101C56.9494 6.45505 57.2428 6.10246 57.4593 5.70346C57.6307 5.29306 57.6791 4.84204 57.5985 4.40489C57.5179 3.96773 57.3118 3.56316 57.0051 3.24006C56.6906 2.92425 56.3151 2.67513 55.9011 2.50775C55.4872 2.34036 55.0435 2.25818 54.5967 2.26615C54.1074 2.26615 53.6212 2.34572 53.1319 2.3871C52.6991 2.39698 52.2692 2.46114 51.8525 2.57806C51.312 2.76902 51.2385 3.16686 51.0242 3.66017L49.6745 6.76329Z" fill="url(#paint7_linear)"/>
<path d="M61.0093 30.7991H59.5349C59.3784 30.664 59.2474 30.5024 59.1479 30.3217C57.1873 26.948 57.4751 11.5884 58.0636 10.9073C58.585 10.2899 60.4336 10.3503 61.0061 10.3853H61.1788L62.0584 10.9232C60.0754 15.0989 61.0093 30.7991 61.0093 30.7991Z" fill="#5D38C4"/>
<path d="M60.0754 30.3217H59.1479C57.1873 26.948 57.4751 11.5884 58.0636 10.9073C58.585 10.2899 60.4336 10.3503 61.0061 10.3853L61.1213 10.4554C59.1383 14.6183 60.0754 30.3217 60.0754 30.3217Z" fill="url(#paint8_linear)"/>
<path d="M62.7556 33.498C62.2813 33.4971 61.8154 33.3737 61.4033 33.14C60.9913 32.9062 60.6472 32.5701 60.4048 32.1644L54.8205 22.836C54.7566 22.7169 54.7413 22.578 54.7776 22.448C54.8139 22.318 54.899 22.2069 55.0155 22.1378C55.1319 22.0686 55.2706 22.0466 55.4028 22.0765C55.535 22.1063 55.6506 22.1857 55.7256 22.2981L61.326 31.6329C61.494 31.9161 61.7425 32.1433 62.0402 32.2861C62.3379 32.4288 62.6715 32.4806 62.9987 32.4349C66.8144 31.9225 68.7174 31.5533 69.3059 31.3624C69.3059 30.9295 69.3059 30.2612 69.3059 29.9938C69.3034 29.9249 69.3145 29.8561 69.3387 29.7914C69.3629 29.7267 69.3997 29.6674 69.4469 29.6169C69.4941 29.5664 69.5509 29.5256 69.6139 29.4969C69.677 29.4682 69.7451 29.4521 69.8144 29.4496C69.8837 29.4471 69.9528 29.4582 70.0178 29.4822C70.0828 29.5063 70.1424 29.5429 70.1932 29.5899C70.244 29.6369 70.285 29.6934 70.3138 29.7561C70.3427 29.8189 70.3588 29.8867 70.3613 29.9556C70.3613 30.0861 70.4029 31.2287 70.3613 31.7125C70.3198 32.1962 70.0671 32.3808 67.4188 32.8391C66.018 33.081 64.326 33.3197 63.1554 33.4757C63.0228 33.4923 62.8893 33.4998 62.7556 33.498Z" fill="#5D38C4"/>
<path d="M46.8886 35.2037C46.709 35.2027 46.5328 35.1556 46.3769 35.0669C46.1508 34.9143 45.9573 34.7188 45.8075 34.4916C45.6576 34.2644 45.5544 34.0099 45.5037 33.7429L42.913 24.4176C42.8757 24.283 42.8937 24.1391 42.9629 24.0176C43.0322 23.8962 43.1472 23.8071 43.2824 23.7699C43.4177 23.7328 43.5623 23.7507 43.6844 23.8196C43.8065 23.8885 43.896 24.0029 43.9333 24.1375L46.5208 33.4628C46.6551 33.9466 46.8406 34.1216 46.895 34.1503C48.6029 33.6538 49.3833 33.3196 49.6392 33.1668C49.6936 32.3966 49.9047 30.0987 49.9143 29.9841C49.9206 29.9154 49.9404 29.8485 49.9727 29.7874C50.0049 29.7263 50.049 29.6721 50.1023 29.6279C50.1556 29.5837 50.2171 29.5504 50.2834 29.5299C50.3496 29.5094 50.4193 29.5021 50.4884 29.5083C50.5575 29.5146 50.6246 29.5343 50.686 29.5664C50.7475 29.5985 50.8019 29.6424 50.8463 29.6954C50.8907 29.7485 50.9242 29.8097 50.9448 29.8756C50.9654 29.9415 50.9728 30.0109 50.9665 30.0796C50.877 31.0662 50.701 33.0268 50.6851 33.3832C50.6659 33.8161 50.3013 34.0898 49.1818 34.5099C48.5198 34.755 47.7266 34.9969 47.1765 35.1464C47.0839 35.1796 46.9869 35.1989 46.8886 35.2037Z" fill="#5D38C4"/>
<path d="M62.7557 33.5423C62.2815 33.5427 61.8154 33.4202 61.4032 33.187C60.9911 32.9537 60.647 32.6177 60.4049 32.212L54.8174 22.8835C54.7506 22.7647 54.7328 22.6248 54.7677 22.4933C54.8026 22.3617 54.8874 22.2487 55.0043 22.1782C55.1213 22.1076 55.2612 22.085 55.3945 22.115C55.5279 22.1451 55.6443 22.2255 55.7193 22.3393L61.3069 31.6677C61.4756 31.9494 61.7238 32.1756 62.0206 32.3182C62.3174 32.4608 62.6498 32.5135 62.9764 32.4697C66.7953 31.9573 68.6983 31.5881 69.2868 31.3972C69.2868 30.9643 69.2868 30.296 69.2868 30.0254C69.2821 29.8862 69.3332 29.7508 69.4289 29.649C69.5246 29.5472 69.657 29.4874 69.7969 29.4828C69.9369 29.4782 70.073 29.529 70.1752 29.6242C70.2775 29.7194 70.3376 29.8512 70.3422 29.9904C70.3422 30.1209 70.387 31.2635 70.3422 31.7473C70.2975 32.231 70.048 32.4156 67.3997 32.8739C65.9957 33.1158 64.3069 33.3545 63.1363 33.5105C63.0105 33.531 62.8832 33.5416 62.7557 33.5423Z" fill="url(#paint9_linear)"/>
<path d="M62.7557 33.4564C62.2816 33.4562 61.8158 33.3334 61.4037 33.1002C60.9916 32.867 60.6475 32.5314 60.4049 32.1261L54.8206 22.7976C54.781 22.7384 54.754 22.6718 54.7411 22.6019C54.7282 22.532 54.7297 22.4602 54.7455 22.3909C54.7613 22.3216 54.7911 22.2562 54.833 22.1986C54.875 22.1411 54.9283 22.0927 54.9896 22.0562C55.0509 22.0198 55.119 21.9961 55.1898 21.9866C55.2606 21.9771 55.3326 21.9821 55.4014 22.0011C55.4703 22.0201 55.5345 22.0529 55.5902 22.0973C55.646 22.1418 55.692 22.197 55.7257 22.2597L61.3132 31.585C61.4818 31.8679 61.7303 32.0951 62.0278 32.2383C62.3252 32.3815 62.6585 32.4343 62.986 32.3902C66.8016 31.8746 68.7047 31.5054 69.2932 31.3145C69.2932 30.8816 69.2932 30.2165 69.2932 29.9459C69.2888 29.8087 69.3386 29.6753 69.4318 29.5742C69.5251 29.4731 69.6544 29.4123 69.7921 29.4049C69.9322 29.4014 70.068 29.4528 70.1703 29.5481C70.2726 29.6434 70.3332 29.7748 70.339 29.9141C70.339 30.0414 70.3806 31.1872 70.339 31.6709C70.2975 32.1547 70.0448 32.3361 67.3965 32.7944C65.9956 33.0363 64.3037 33.275 63.1331 33.431C63.008 33.4477 62.8819 33.4562 62.7557 33.4564Z" fill="url(#paint10_linear)"/>
<path d="M46.879 35.2036C46.6994 35.2031 46.523 35.1559 46.3673 35.0668C45.9108 34.758 45.5957 34.282 45.4909 33.7428L42.9034 24.4175C42.8836 24.3506 42.8773 24.2805 42.885 24.2112C42.8927 24.1419 42.9142 24.0748 42.9482 24.0139C42.9822 23.9529 43.0281 23.8993 43.0831 23.8562C43.1382 23.8131 43.2013 23.7813 43.2688 23.7627C43.3363 23.7441 43.4069 23.7391 43.4764 23.7479C43.5459 23.7567 43.6129 23.7792 43.6736 23.8141C43.7343 23.849 43.7874 23.8956 43.8297 23.9511C43.8721 24.0066 43.903 24.0699 43.9205 24.1374L46.5112 33.4627C46.5535 33.7269 46.6842 33.9692 46.8822 34.1502C48.5933 33.6537 49.3737 33.3195 49.6296 33.1667C49.684 32.3965 49.8951 30.0986 49.9047 29.984C49.9174 29.8452 49.985 29.717 50.0927 29.6278C50.2003 29.5386 50.3392 29.4956 50.4788 29.5082C50.6183 29.5209 50.7471 29.5882 50.8367 29.6953C50.9264 29.8025 50.9696 29.9407 50.9569 30.0795C50.8674 31.0661 50.6883 33.0267 50.6755 33.3831C50.6563 33.816 50.2917 34.0897 49.169 34.5098C48.5102 34.7549 47.717 34.9968 47.1669 35.1463C47.0743 35.1795 46.9773 35.1988 46.879 35.2036Z" fill="url(#paint11_linear)"/>
<g opacity="0.69">
<path opacity="0.69" d="M46.9398 35.1846C46.7602 35.1836 46.5839 35.1364 46.4281 35.0477C45.9724 34.7382 45.6575 34.2626 45.5517 33.7237L42.9642 24.3953C42.9296 24.2619 42.949 24.1204 43.0183 24.0012C43.0875 23.8819 43.201 23.7945 43.3344 23.7578C43.4678 23.7211 43.6104 23.7379 43.7314 23.8048C43.8524 23.8716 43.9421 23.9831 43.9813 24.1152L46.572 33.4437C46.6155 33.7075 46.746 33.9493 46.943 34.1311C48.6541 33.6314 49.4345 33.3004 49.6904 33.1445C49.7448 32.3743 49.9558 30.0764 49.9654 29.9618C49.9717 29.893 49.9916 29.8262 50.0239 29.7651C50.0561 29.7039 50.1002 29.6497 50.1535 29.6056C50.2068 29.5614 50.2683 29.5281 50.3346 29.5076C50.4008 29.487 50.4705 29.4797 50.5395 29.486C50.6086 29.4923 50.6758 29.512 50.7372 29.5441C50.7987 29.5762 50.8531 29.62 50.8975 29.6731C50.9419 29.7261 50.9754 29.7874 50.996 29.8533C51.0166 29.9192 51.024 29.9885 51.0177 30.0573C50.9281 31.0439 50.749 33.0044 50.7362 33.3609C50.7171 33.7937 50.3524 34.0675 49.233 34.4844C48.571 34.7326 47.7778 34.9745 47.2276 35.1209C47.1354 35.1563 47.0384 35.1777 46.9398 35.1846Z" fill="url(#paint12_linear)"/>
</g>
<path d="M45.2959 26.2031C45.5452 26.205 45.7917 26.2547 46.022 26.3496C46.1363 26.398 46.2379 26.472 46.3189 26.5658C46.3999 26.6597 46.4581 26.7708 46.4889 26.8906C46.5337 27.1166 46.4505 27.3585 46.5305 27.5749C46.6105 27.7913 46.7608 27.8932 46.8183 28.065C46.9271 28.3833 46.6456 28.7525 46.7384 29.0867C46.78 29.2363 46.8919 29.3604 46.9303 29.5131C46.9597 29.6581 46.9418 29.8087 46.8791 29.9428C46.5593 30.7703 45.555 31.1522 44.6594 31.1268C44.135 31.1406 43.6249 30.9551 43.233 30.608C42.9436 30.2702 42.7572 29.8573 42.6957 29.4177C42.5764 28.8642 42.5142 28.3001 42.5102 27.734C42.4974 26.1745 44.0262 26.1427 45.2959 26.2031Z" fill="url(#paint13_linear)"/>
<path d="M69.2036 19.4873C69.2036 19.4873 73.611 27.8514 72.3572 29.2009C71.1035 30.5503 61.0702 29.5701 61.0702 29.5701C60.1587 29.5255 59.4422 30.3116 58.5403 30.4357C58.2122 30.4773 57.879 30.4276 57.5775 30.2922C57.276 30.1568 57.0181 29.941 56.8324 29.6687C56.7367 29.471 56.5953 29.2987 56.4198 29.1659C56.3238 29.1117 56.2087 29.0926 56.0999 29.0449C55.6906 28.8539 55.6202 28.3065 55.633 27.8546C55.6462 27.7682 55.6305 27.6798 55.5882 27.6032C55.5528 27.5605 55.5107 27.524 55.4635 27.4949C55.3334 27.371 55.2477 27.208 55.2194 27.031C55.1911 26.854 55.2218 26.6727 55.3068 26.5147C55.4899 26.2009 55.7788 25.9618 56.1223 25.8399C56.4422 25.7031 56.81 25.6331 57.149 25.5217C57.6012 25.3672 58.0223 25.1344 58.3932 24.8342C58.6362 24.6369 58.9337 24.395 59.2279 24.5159C59.3352 24.5661 59.4301 24.6388 59.5062 24.7292L60.4657 25.7095C60.576 25.856 60.722 25.9723 60.8898 26.0475C61.0576 26.1226 61.2418 26.1541 61.4252 26.1391L64.7867 26.2601C65.5166 26.331 66.2534 26.2641 66.9584 26.0627L64.5788 22.7655C64.4924 22.6445 64.4029 22.4949 64.4637 22.3581C64.5075 22.2849 64.572 22.2262 64.6492 22.1894C66.1876 21.2569 67.6844 20.4039 69.2036 19.4873Z" fill="url(#paint14_linear)"/>
<path d="M56.5668 7.20241C56.6117 7.19011 56.6586 7.18687 56.7047 7.19288C56.7509 7.19889 56.7953 7.21404 56.8355 7.23742C56.9536 7.28135 57.0499 7.36922 57.1042 7.48249C57.1201 7.56951 57.1137 7.65911 57.0858 7.74308C57.0579 7.82705 57.0092 7.90269 56.9442 7.96307C56.8729 8.06532 56.7808 8.15156 56.674 8.21625C56.5671 8.28093 56.4478 8.32262 56.3238 8.33863C56.2207 8.34059 56.1195 8.31115 56.0338 8.25426C55.948 8.19738 55.8818 8.11576 55.844 8.02036C55.8112 7.92355 55.8168 7.81794 55.8596 7.72508C55.9024 7.63221 55.9792 7.55911 56.0743 7.52068C56.167 7.49522 56.247 7.52068 56.3333 7.45066C56.4197 7.38064 56.4581 7.24697 56.5668 7.20241Z" fill="url(#paint15_linear)"/>
<path d="M52.2011 31.7407L51.4878 31.8712L51.0465 31.9507L49.1626 25.6808C45.7052 19.8311 47.0933 13.5866 47.6402 12.9501C47.8641 12.6859 48.4846 12.4823 49.1306 12.3358C49.7437 12.1959 50.3641 12.0897 50.9889 12.0176C49.2586 15.8113 52.2011 31.7407 52.2011 31.7407Z" fill="#5D38C4"/>
<path d="M51.4942 31.8712L51.0528 31.9508L49.169 25.6809C45.7115 19.8311 47.0996 13.5867 47.6465 12.9502C47.8704 12.686 48.4909 12.4823 49.137 12.3359C49.7831 12.1895 50.2852 12.1704 50.2852 12.1704C48.5741 15.8973 51.411 31.4225 51.4942 31.8712Z" fill="url(#paint16_linear)"/>
<path d="M65.9541 21.3271C65.9541 21.3271 68.9574 25.2737 68.4488 25.7829C67.9403 26.2921 66.6354 26.2317 66.6354 26.2317C66.6926 26.1092 66.7148 25.9735 66.6995 25.8393C66.6843 25.7051 66.6322 25.5777 66.549 25.471C66.2644 25.0477 64.2814 22.2883 64.2814 22.2883L65.9541 21.3271Z" fill="url(#paint17_linear)"/>
<defs>
<linearGradient id="paint0_linear" x1="55.9209" y1="8.21459" x2="62.7403" y2="73.0497" gradientUnits="userSpaceOnUse">
<stop stop-opacity="0"/>
<stop offset="0.99"/>
</linearGradient>
<linearGradient id="paint1_linear" x1="44.1573" y1="29.1915" x2="50.2406" y2="29.1915" gradientUnits="userSpaceOnUse">
<stop stop-color="#E5C5D5"/>
<stop offset="0.42" stop-color="#EAD4D1"/>
<stop offset="1" stop-color="#F0E9CB"/>
</linearGradient>
<linearGradient id="paint2_linear" x1="323.117" y1="493.441" x2="472.241" y2="561.594" gradientUnits="userSpaceOnUse">
<stop stop-color="#E5C5D5"/>
<stop offset="0.42" stop-color="#EAD4D1"/>
<stop offset="1" stop-color="#F0E9CB"/>
</linearGradient>
<linearGradient id="paint3_linear" x1="1279.14" y1="305.393" x2="1281.24" y2="358.402" gradientUnits="userSpaceOnUse">
<stop stop-opacity="0"/>
<stop offset="0.99"/>
</linearGradient>
<linearGradient id="paint4_linear" x1="5274.32" y1="9232.05" x2="7489.53" y2="7923.5" gradientUnits="userSpaceOnUse">
<stop stop-opacity="0"/>
<stop offset="0.99"/>
</linearGradient>
<linearGradient id="paint5_linear" x1="858.391" y1="636.678" x2="955.777" y2="636.678" gradientUnits="userSpaceOnUse">
<stop stop-color="#E5C5D5"/>
<stop offset="0.42" stop-color="#EAD4D1"/>
<stop offset="1" stop-color="#F0E9CB"/>
</linearGradient>
<linearGradient id="paint6_linear" x1="544.081" y1="318.915" x2="437.492" y2="476.304" gradientUnits="userSpaceOnUse">
<stop stop-color="#E5C5D5"/>
<stop offset="0.42" stop-color="#EAD4D1"/>
<stop offset="1" stop-color="#F0E9CB"/>
</linearGradient>
<linearGradient id="paint7_linear" x1="1196.56" y1="536.168" x2="1417.02" y2="536.168" gradientUnits="userSpaceOnUse">
<stop stop-color="#E5C5D5"/>
<stop offset="0.42" stop-color="#EAD4D1"/>
<stop offset="1" stop-color="#F0E9CB"/>
</linearGradient>
<linearGradient id="paint8_linear" x1="666.31" y1="1830.59" x2="114.432" y2="2093.83" gradientUnits="userSpaceOnUse">
<stop stop-opacity="0"/>
<stop offset="0.99"/>
</linearGradient>
<linearGradient id="paint9_linear" x1="2571.08" y1="1643.99" x2="3185.04" y2="1067.58" gradientUnits="userSpaceOnUse">
<stop stop-opacity="0"/>
<stop offset="0.99"/>
</linearGradient>
<linearGradient id="paint10_linear" x1="60.3026" y1="28.2909" x2="57.874" y2="29.5994" gradientUnits="userSpaceOnUse">
<stop offset="0.02" stop-color="white" stop-opacity="0"/>
<stop offset="0.58" stop-color="white" stop-opacity="0.39"/>
<stop offset="0.68" stop-color="white" stop-opacity="0.68"/>
<stop offset="1" stop-color="white"/>
</linearGradient>
<linearGradient id="paint11_linear" x1="955.532" y1="1657.94" x2="1400.69" y2="1517.62" gradientUnits="userSpaceOnUse">
<stop stop-opacity="0"/>
<stop offset="0.99"/>
</linearGradient>
<linearGradient id="paint12_linear" x1="1064.84" y1="1586.55" x2="1020.51" y2="1594.85" gradientUnits="userSpaceOnUse">
<stop offset="0.02" stop-color="white" stop-opacity="0"/>
<stop offset="0.58" stop-color="white" stop-opacity="0.39"/>
<stop offset="0.68" stop-color="white" stop-opacity="0.68"/>
<stop offset="1" stop-color="white"/>
</linearGradient>
<linearGradient id="paint13_linear" x1="555.523" y1="691.486" x2="617.023" y2="691.486" gradientUnits="userSpaceOnUse">
<stop stop-color="#E5C5D5"/>
<stop offset="0.42" stop-color="#EAD4D1"/>
<stop offset="1" stop-color="#F0E9CB"/>
</linearGradient>
<linearGradient id="paint14_linear" x1="2755.42" y1="1368.67" x2="3698.57" y2="1368.67" gradientUnits="userSpaceOnUse">
<stop stop-color="#E5C5D5"/>
<stop offset="0.42" stop-color="#EAD4D1"/>
<stop offset="1" stop-color="#F0E9CB"/>
</linearGradient>
<linearGradient id="paint15_linear" x1="263.694" y1="82.4578" x2="257.418" y2="95.5755" gradientUnits="userSpaceOnUse">
<stop stop-color="#E5C5D5"/>
<stop offset="0.42" stop-color="#EAD4D1"/>
<stop offset="1" stop-color="#F0E9CB"/>
</linearGradient>
<linearGradient id="paint16_linear" x1="768.353" y1="2030.36" x2="350.122" y2="2094.96" gradientUnits="userSpaceOnUse">
<stop stop-opacity="0"/>
<stop offset="0.99"/>
</linearGradient>
<linearGradient id="paint17_linear" x1="849.835" y1="609.744" x2="940.024" y2="600.063" gradientUnits="userSpaceOnUse">
<stop stop-color="#E5C5D5"/>
<stop offset="0.42" stop-color="#EAD4D1"/>
<stop offset="1" stop-color="#F0E9CB"/>
</linearGradient>
</defs>
</svg>
