<svg width="140" height="106" viewBox="0 0 140 106" fill="none" xmlns="http://www.w3.org/2000/svg">
<g clip-path="url(#clip0)">
<path opacity="0.24" d="M71.4549 0.0715209C60.6466 0.813777 50.2496 6.32402 43.536 14.8654C37.4685 22.5878 34.4839 32.3487 28.7658 40.3252C23.0186 48.3492 14.5943 54.4701 10.414 63.4284C4.13356 76.8767 10.4923 94.839 23.8157 101.283C31.2117 104.861 39.7197 105.059 47.9292 105.187L97.998 105.964C103.904 106.055 109.946 106.126 115.544 104.229C126.594 100.483 134.332 87.8808 131.402 76.5403C129.089 67.5821 121.149 60.6348 120.033 51.459C119.404 46.2742 121.072 41.0894 121.151 35.8662C121.462 14.5382 89.8395 -1.19178 71.4549 0.0715209Z" fill="#5D38C4"/>
<path d="M80.3452 68.7866H65.3839L58.4792 51.4058L86.2107 50.6909L80.3452 68.7866ZM65.9353 67.9767H79.7665L85.1024 51.5228L59.6712 52.1791L65.9353 67.9767Z" fill="#5D38C4"/>
<path d="M83.994 57.5503L82.9439 58.1116L81.9594 61.2122L82.8875 60.5833L83.994 57.5503Z" fill="url(#paint0_linear)"/>
<path d="M75.9538 60.5359C75.275 60.3531 74.5489 60.2123 73.87 60.3897C73.3528 60.5513 72.8749 60.8197 72.4669 61.1776C70.5508 62.7025 69.1246 64.7609 68.3667 67.0956C68.2684 67.4045 68.1938 67.7775 68.4122 68.0261C68.576 68.209 68.849 68.262 69.0983 68.2967C71.1014 68.5856 73.1105 68.8293 75.1258 69.028C75.3676 69.0665 75.6146 69.0591 75.8537 69.0061C76.0903 68.9217 76.3027 68.7805 76.4725 68.5947C77.4388 67.6386 77.8556 66.2985 78.2378 65.0114C78.4294 64.4758 78.5357 63.913 78.5526 63.3441C78.5253 61.7608 77.4152 60.94 75.9538 60.5359Z" fill="#5D38C4"/>
<path d="M72.9273 64.0498L73.4733 65.3588C73.5785 65.6731 73.7477 65.962 73.9701 66.2071C74.2959 66.5216 74.7636 66.6239 75.1767 66.8104C75.7099 67.0508 76.1638 67.4389 76.4852 67.9293C75.6953 67.9671 74.9036 67.9346 74.1194 67.8324C73.8755 67.808 73.6368 67.7463 73.4114 67.6496C72.9728 67.443 73.0966 66.9037 72.6744 66.6642C72.3723 66.4923 71.5933 66.6093 71.2785 66.4813C71.4532 65.5563 72.2085 64.633 72.9273 64.0498Z" fill="url(#paint1_linear)"/>
<path d="M51.8166 9.05141C47.6901 12.3152 44.9268 17.0106 44.0692 22.2158C43.2116 27.4211 44.3216 32.7604 47.1813 37.1858C48.1532 38.6905 49.3142 40.0689 50.2115 41.6174C51.9349 44.5938 52.7593 48.2667 55.4364 50.4038C57.5256 52.0675 60.3282 52.4405 62.9853 52.6745C63.4202 52.7442 63.8649 52.7206 64.2901 52.605C65.2274 52.2814 65.6478 51.1863 65.7806 50.2009C66.1446 47.4842 65.2601 44.7802 64.5522 42.133C62.2086 33.3379 61.7864 24.1376 63.3147 15.1631C63.7787 12.4519 65.2237 7.63088 61.7441 6.3877C58.4246 5.20667 54.3826 7.02209 51.8166 9.05141Z" fill="#5D38C4"/>
<path d="M53.7857 8.74828C49.6592 12.0121 46.8959 16.7075 46.0383 21.9127C45.1808 27.118 46.2907 32.4573 49.1505 36.8827C50.1223 38.3855 51.2834 39.764 52.1806 41.3143C53.904 44.2888 54.7284 47.9617 57.4055 50.1007C59.4947 51.7644 62.2973 52.1373 64.9544 52.3714C65.3895 52.4396 65.8341 52.4153 66.2593 52.3001C67.1965 51.9765 67.6151 50.8832 67.7497 49.896C68.1137 47.1811 67.2293 44.4753 66.5213 41.828C64.1764 33.03 63.7542 23.8264 65.2838 14.849C65.7479 12.1396 67.1929 7.31862 63.7132 6.08275C60.3937 4.90355 56.3518 6.71714 53.7857 8.74828Z" fill="url(#paint2_linear)"/>
<path d="M92.1908 8.70951C96.3173 11.9733 99.0805 16.6687 99.9381 21.8739C100.796 27.0792 99.6857 32.4185 96.826 36.8439C95.8542 38.3485 94.6931 39.7252 93.7959 41.2755C92.0725 44.25 91.2481 47.9247 88.571 50.0619C86.4818 51.7256 83.6773 52.0986 81.0221 52.3326C80.5865 52.4005 80.1415 52.3768 79.7154 52.2631C78.78 51.9377 78.3596 50.8444 78.2268 49.859C77.8628 47.1423 78.7472 44.4365 79.4552 41.7892C81.7996 32.9911 82.2211 23.7875 80.6909 14.8103C80.2268 12.1008 78.7836 7.27984 82.2633 6.04397C85.5809 4.86477 89.6265 6.68018 92.1908 8.70951Z" fill="#5D38C4"/>
<path d="M91.168 9.39522C95.2945 12.6591 98.0578 17.3544 98.9153 22.5597C99.7729 27.7649 98.6629 33.1042 95.8032 37.5296C94.8314 39.0324 93.6703 40.4109 92.7731 41.9612C91.0497 44.9358 90.2253 48.6086 87.5482 50.7477C85.459 52.4113 82.6564 52.7843 79.9993 53.0183C79.5642 53.0865 79.1196 53.0622 78.6944 52.947C77.7572 52.6234 77.3386 51.5301 77.204 50.5429C76.84 47.828 77.7244 45.1222 78.4324 42.475C80.7773 33.6769 81.1995 24.4734 79.6699 15.496C79.2058 12.7847 77.7608 7.96373 81.2405 6.72054C84.56 5.55048 88.6019 7.36407 91.168 9.39522Z" fill="url(#paint3_linear)"/>
<path d="M51.5745 17.1396C52.3571 13.8653 53.7985 10.6769 56.1698 8.29655C59.613 4.83757 64.6104 3.44447 69.4459 2.85944C74.1193 2.29452 79.0585 2.40056 83.2643 4.52495C88.602 7.21974 92.0507 12.9859 92.7168 18.9496C93.3829 24.9132 91.5011 30.9811 88.2726 36.0288C86.0888 39.4475 83.2352 42.5902 82.2415 46.53C81.6701 48.7897 81.6719 51.3712 80.0995 53.0842C79.1987 54.0678 77.9156 54.5906 76.6526 55.0111C72.4032 56.428 66.747 57.0039 63.1308 53.6985C60.8287 51.596 60.6303 48.3455 59.5111 45.5903C57.653 41.0198 54.1788 37.3908 52.4863 32.716C50.6811 27.7234 50.3642 22.3104 51.5745 17.1396Z" fill="#5D38C4"/>
<path d="M54.086 17.1396C54.7557 13.8653 55.9932 10.6769 58.0279 8.29656C60.9852 4.83757 65.2747 3.44447 69.4258 2.85944C73.4387 2.29452 77.6772 2.40056 81.2879 4.52495C85.8685 7.21974 88.8277 12.9859 89.4009 18.9496C89.9742 24.9132 88.3563 30.9811 85.5792 36.0288C83.7065 39.4475 81.2551 42.5866 80.407 46.53C79.9175 48.7897 79.9175 51.3712 78.5689 53.0842C77.7973 54.0678 76.6926 54.5907 75.6134 55.0185C71.9737 56.4353 67.1127 57.0112 64.0062 53.7058C62.0316 51.6033 61.8605 48.3528 60.8996 45.5977C59.3036 41.0235 56.3226 37.3908 54.8667 32.7142C53.3139 27.67 53.0455 22.3151 54.086 17.1396Z" fill="url(#paint4_linear)"/>
<path d="M80.6019 68.1157H64.4212C63.1799 68.1157 62.1736 69.1266 62.1736 70.3736V83.8896C62.1736 85.1365 63.1799 86.1474 64.4212 86.1474H80.6019C81.8431 86.1474 82.8494 85.1365 82.8494 83.8896V70.3736C82.8494 69.1266 81.8431 68.1157 80.6019 68.1157Z" fill="#5D38C4"/>
<path d="M82.8457 71.1065V83.9314C82.8461 84.2214 82.7898 84.5087 82.6797 84.7768C82.5697 85.045 82.4081 85.2887 82.2043 85.4941C82.0005 85.6995 81.7585 85.8626 81.4919 85.974C81.2254 86.0855 80.9396 86.1431 80.6509 86.1435H64.3738C64.0845 86.144 63.7979 86.0871 63.5305 85.9761C63.2631 85.8651 63.0202 85.7022 62.8156 85.4967C62.611 85.2912 62.4489 85.0471 62.3384 84.7785C62.2279 84.5099 62.1712 84.222 62.1717 83.9314V71.1065C62.1756 70.5226 62.4094 69.9641 62.822 69.553C63.2347 69.1419 63.7926 68.9116 64.3738 68.9126H80.6509C81.2309 68.9131 81.7873 69.144 82.1985 69.555C82.6096 69.966 82.8423 70.5238 82.8457 71.1065Z" fill="url(#paint5_linear)"/>
<path d="M82.8457 71.1065V83.9314C82.8461 84.2214 82.7898 84.5087 82.6797 84.7768C82.5697 85.045 82.4081 85.2887 82.2043 85.4941C82.0005 85.6995 81.7585 85.8626 81.4919 85.974C81.2254 86.0855 80.9396 86.1431 80.6509 86.1435H66.4157C66.127 86.1431 65.8412 86.0855 65.5747 85.974C65.3081 85.8626 65.0661 85.6995 64.8623 85.4941C64.6584 85.2887 64.4969 85.045 64.3869 84.7768C64.2768 84.5087 64.2204 84.2214 64.2209 83.9314V71.1065C64.2243 70.5238 64.4569 69.966 64.8681 69.555C65.2793 69.144 65.8356 68.9131 66.4157 68.9126H80.6509C81.2309 68.9131 81.7873 69.144 82.1985 69.555C82.6096 69.966 82.8423 70.5238 82.8457 71.1065Z" fill="url(#paint6_linear)"/>
<path d="M78.1758 65.4976C78.9545 66.333 79.6147 67.2724 80.1376 68.2893C80.1938 68.3722 80.2165 68.4735 80.2013 68.5726C80.1621 68.667 80.0886 68.7428 79.9957 68.7847C78.6611 69.6062 77.318 70.4069 75.9665 71.187C75.7807 71.3205 75.5579 71.3921 75.3295 71.3917C75.192 71.3678 75.0608 71.3162 74.9437 71.24C74.0325 70.724 73.2046 70.0718 72.4886 69.3057C72.4427 69.2683 72.4055 69.2212 72.3794 69.1679C72.3533 69.1146 72.3391 69.0562 72.3376 68.9968C72.3527 68.9433 72.3781 68.8933 72.4125 68.8497C72.4468 68.806 72.4894 68.7697 72.5378 68.7427C73.4148 68.0557 74.326 67.4138 75.2676 66.8194C76.0465 66.3532 77.2276 65.4976 78.1758 65.4976Z" fill="white"/>
<path d="M76.6417 56.0784C75.6299 56.4349 74.7873 57.2594 73.7299 57.3929C73.537 57.4185 73.3132 57.4331 73.2003 57.5922C73.0875 57.7512 73.1603 58.009 73.2895 58.1754C73.4398 58.3236 73.5734 58.4879 73.6881 58.6653C73.7518 58.7951 73.77 58.945 73.8428 59.0712C73.9591 59.234 74.1186 59.3607 74.3032 59.4368C75.1968 59.8975 76.1467 60.371 77.1495 60.3089C77.5958 60.278 78.0279 60.1384 78.4085 59.902C78.789 59.6656 79.1064 59.3397 79.3334 58.9523C79.6864 58.3271 79.8793 57.0528 79.4171 56.4148C78.8729 55.6689 77.3806 55.8188 76.6417 56.0784Z" fill="#606161"/>
<path d="M78.8164 60.6695C78.7286 60.9716 78.5469 61.2375 78.2978 61.4283C78.0963 61.5413 77.8644 61.5874 77.6353 61.5599C77.4084 61.5307 77.1844 61.4824 76.9656 61.4155C76.8658 61.3781 76.7566 61.3743 76.6544 61.4045C76.5729 61.4441 76.5056 61.5079 76.4615 61.5873C76.3753 61.7214 76.3074 61.8665 76.2595 62.0188C76.2376 62.1278 76.1922 62.2308 76.1266 62.3204C76.0605 62.3753 75.984 62.4163 75.9018 62.4408C75.8196 62.4653 75.7332 62.4729 75.648 62.463C75.556 62.471 75.4634 62.4559 75.3787 62.4191C75.3087 62.3642 75.2539 62.2921 75.2195 62.2099C75.1851 62.1277 75.1723 62.0379 75.1821 61.9493C75.1712 61.6897 75.1821 61.4283 75.1967 61.1686C75.1912 60.6996 75.2695 60.2333 75.4278 59.792C75.5332 59.562 75.6626 59.3439 75.8136 59.1412C76.2249 58.558 76.6963 57.9674 77.3605 57.7078C77.7641 57.5752 78.1861 57.508 78.6108 57.5086C78.7657 57.4917 78.9224 57.4998 79.0749 57.5323C79.6882 57.7005 79.4024 58.4775 79.3169 58.9236C79.2026 59.5195 79.0351 60.1038 78.8164 60.6695Z" fill="url(#paint7_linear)"/>
<path d="M76.3413 59.2691C76.3413 59.4153 76.3177 59.6054 76.1776 59.6438C76.1291 59.5682 76.094 59.4847 76.0738 59.397C76.0411 59.3148 75.9774 59.2288 75.8918 59.2252C75.8434 59.2282 75.7968 59.2447 75.7572 59.2727C75.6998 59.3025 75.649 59.3436 75.6077 59.3936C75.5664 59.4435 75.5356 59.5013 75.5169 59.5634C75.4805 59.7462 75.617 59.929 75.5679 60.1119C75.5497 60.1777 75.4878 60.2435 75.4223 60.2234C75.3849 60.2054 75.3547 60.1751 75.3368 60.1375C75.2063 59.9134 75.0926 59.68 74.9964 59.4391C74.9569 59.3527 74.9306 59.2609 74.9182 59.1667C74.913 59.0575 74.931 58.9484 74.971 58.8467C75.0992 58.5217 75.3139 58.2384 75.5916 58.0277C75.8678 57.8172 76.1634 57.6336 76.4742 57.4792C76.6744 57.3695 77.1203 57.1136 77.3496 57.2964C77.5789 57.4792 77.2113 57.7004 77.0893 57.7992C76.869 57.9778 76.6885 58.2009 76.5597 58.4542C76.4308 58.7074 76.3564 58.9851 76.3413 59.2691Z" fill="#606161"/>
<path d="M79.1677 63.0004L80.9876 65.5599C81.0948 65.5196 81.1885 65.4496 81.2577 65.358C81.327 65.2665 81.369 65.1571 81.3789 65.0425C81.3952 64.8131 81.3767 64.5826 81.3243 64.3588C81.2698 64.0173 81.2478 63.6714 81.2588 63.3258C81.2435 63.0734 81.3155 62.8235 81.4626 62.6183C81.7593 62.2709 82.3598 62.3751 82.6692 62.7115C82.9786 63.0479 83.0696 63.5251 83.1333 63.9785C83.2627 64.8171 83.3133 65.6661 83.2843 66.5142C83.2643 66.9311 83.2042 67.379 82.9203 67.6788C82.6972 67.8827 82.4182 68.0146 82.1196 68.0572C80.5363 68.3772 78.8547 67.5417 77.9229 66.2162C77.1424 65.0732 76.7862 63.6911 76.9165 62.3112C77.1131 60.4683 78.6545 62.2782 79.1677 63.0004Z" fill="#5D38C4"/>
<path d="M74.6325 66.8489C74.7575 66.8479 74.8815 66.8728 74.9965 66.9221C75.2476 67.0482 75.3313 67.3608 75.3714 67.6406C75.4037 67.796 75.3993 67.9569 75.3586 68.1104C75.2905 68.2817 75.1605 68.4207 74.9947 68.4998C74.6307 68.6936 74.1976 68.6589 73.7917 68.6113C73.5315 68.5821 73.2166 68.5016 73.153 68.2457C73.1202 68.1086 73.1529 67.9184 73.0256 67.8599C72.9904 67.8456 72.9524 67.8394 72.9145 67.8417C72.7623 67.8526 72.6093 67.849 72.4578 67.8307C72.3818 67.8206 72.3092 67.7927 72.246 67.7492C72.1827 67.7056 72.1306 67.6478 72.0938 67.5802C72.045 67.4283 72.0561 67.2634 72.1247 67.1195C72.283 66.6844 72.5433 66.6204 72.9437 66.7118C73.486 66.8343 74.0829 66.8106 74.6325 66.8489Z" fill="url(#paint8_linear)"/>
<path d="M79.7228 60.32C79.7696 60.2333 79.8339 60.1575 79.9117 60.0974C79.9894 60.0372 80.0788 59.9941 80.1741 59.9708C81.0659 59.7569 83.8576 58.9817 84.0196 57.6453C84.044 57.537 84.1076 57.4417 84.1981 57.3778C84.2886 57.314 84.3994 57.2861 84.5091 57.2998C84.9459 57.2998 85.6411 61.4315 85.5246 61.5211C85.4082 61.6107 85.0096 61.4187 84.7967 61.2268C84.5887 61.0354 84.3342 60.9025 84.0587 60.8415C83.7833 60.7805 83.4967 60.7936 83.2279 60.8794C82.8749 60.9891 82.2324 61.139 81.6319 61.2688C81.2006 61.3621 80.7911 61.4517 80.5272 61.4992C80.4175 61.5216 80.3039 61.5139 80.1982 61.4769C80.0925 61.4399 79.9987 61.375 79.9266 61.2889C79.8217 61.1723 79.7437 61.0338 79.6984 60.8834C79.6531 60.7329 79.6415 60.5742 79.6646 60.4187C79.6646 60.4187 79.6919 60.3803 79.7228 60.32Z" fill="#5D38C4"/>
<path d="M85.6229 61.5079C86.0141 61.4064 86.0901 60.3858 85.7925 59.2283C85.4949 58.0708 84.9366 57.2147 84.5454 57.3162C84.1542 57.4177 84.0783 58.4383 84.3758 59.5958C84.6734 60.7533 85.2317 61.6094 85.6229 61.5079Z" fill="#5D38C4"/>
<path d="M85.6229 61.5079C86.0141 61.4064 86.0901 60.3858 85.7925 59.2283C85.4949 58.0708 84.9366 57.2147 84.5454 57.3162C84.1542 57.4177 84.0783 58.4383 84.3758 59.5958C84.6734 60.7533 85.2317 61.6094 85.6229 61.5079Z" fill="url(#paint9_linear)"/>
<path d="M85.3002 60.1795C85.4182 60.149 85.4413 59.8416 85.3519 59.4929C85.2624 59.1442 85.0943 58.8863 84.9763 58.9169C84.8583 58.9474 84.8352 59.2548 84.9247 59.6035C85.0141 59.9522 85.1823 60.2101 85.3002 60.1795Z" fill="url(#paint10_linear)"/>
<path d="M84.8403 58.8081L84.2834 58.8812C84.2834 58.8812 84.4964 60.2286 84.733 60.3438L85.1133 60.0623L84.8403 58.8081Z" fill="url(#paint11_linear)"/>
<path d="M80.984 60.5709C80.984 60.5709 81.135 61.2546 81.6391 61.2729L80.3925 61.5563C80.3925 61.5563 79.9466 61.5307 79.8593 61.3497C79.7719 61.1687 79.3279 60.5453 79.9539 60.059L80.9585 59.75C80.8938 60.021 80.9026 60.3044 80.984 60.5709Z" fill="url(#paint12_linear)"/>
<path d="M83.9431 58.1265C83.8904 59.1935 84.1655 60.2511 84.7311 61.1558C84.3731 60.8992 83.9351 60.7804 83.4972 60.8212C83.4972 60.8212 83.1332 59.4702 83.2915 59.0936C83.4744 58.7492 83.6928 58.425 83.9431 58.1265Z" fill="url(#paint13_linear)"/>
<path d="M80.9748 61.4026L81.3297 63.4374L81.3151 64.2638L82.3943 64.0261L82.2632 63.2089L81.8083 61.1924L80.9748 61.4026Z" fill="#5D38C4"/>
<path d="M80.9748 61.4026L81.3297 63.4374L81.3151 64.2638L82.3943 64.0261L82.2632 63.2089L81.8083 61.1924L80.9748 61.4026Z" fill="url(#paint14_linear)"/>
<path d="M81.4062 63.5123C81.1187 63.0936 81.0714 62.5597 81.0331 62.0497C80.9889 61.8283 81.0299 61.5984 81.1478 61.4061C81.2596 61.292 81.4018 61.2127 81.5573 61.1776C81.7747 61.0883 82.0143 61.0685 82.2434 61.1209C82.3603 61.1671 82.4655 61.239 82.5512 61.3314C82.6369 61.4238 82.7008 61.5343 82.7384 61.6548C82.8104 61.8961 82.8466 62.1469 82.8457 62.3989L82.8785 63.1868L82.9222 64.2143C82.9411 64.3482 82.9189 64.4847 82.8585 64.6055C82.3962 65.324 81.5991 63.7938 81.4062 63.5123Z" fill="url(#paint15_linear)"/>
<path d="M98.6697 67.4502C99.3107 69.1781 99.8413 70.9453 100.258 72.7411C99.6361 72.8197 99.0064 72.7557 98.3804 72.7904C96.3457 72.9038 94.5295 74.0464 92.8169 75.1543C93.847 74.487 90.3801 71.1688 92.1636 69.9457C92.9498 69.3972 94.4512 69.2857 95.3666 68.942C96.4981 68.5158 97.6014 68.0175 98.6697 67.4502Z" fill="white"/>
<path d="M43.8472 76.7741C43.5748 76.6479 43.2853 76.5629 42.9882 76.5218C42.618 76.5136 42.2489 76.5674 41.8963 76.6809C39.5795 77.2604 37.2137 77.4944 34.8478 77.7284L27.4645 78.4597C30.5317 80.7657 33.546 83.1393 36.5076 85.5806C39.9741 83.2785 43.9846 81.9377 48.133 81.6938C48.7118 81.6609 49.3069 81.6445 49.8364 81.4105C52.0076 80.4525 49.4543 79.4269 48.4715 78.9131C46.9647 78.1258 45.4232 77.4128 43.8472 76.7741Z" fill="white"/>
<path d="M100.855 88.4238C102.995 87.442 105.316 86.9319 107.549 86.1787C105.829 87.0087 104.091 87.857 102.682 89.1569C100.699 90.9979 99.4904 93.6653 97.1919 95.0913C96.3195 95.6227 95.338 95.9475 94.322 96.041C93.306 96.1344 92.2821 95.9941 91.3282 95.6306C91.3882 95.6525 93.2427 92.8883 93.4338 92.6396C94.3765 91.4348 94.4129 91.6049 95.6377 91.3398C96.7697 91.0966 96.7296 91.2557 97.7852 90.4037C98.7202 89.6148 99.752 88.9494 100.855 88.4238Z" fill="white"/>
<path d="M45.123 64.4795L48.0567 67.5235C48.1567 67.6442 48.2806 67.7426 48.4207 67.8123C48.5376 67.8535 48.6608 67.8739 48.7847 67.8727C50.6501 67.9805 52.5136 68.1652 54.3645 68.4211C53.8549 67.3608 51.8403 66.3022 50.9067 65.6276C50.1787 65.0974 49.3488 64.9695 48.4334 64.8104C47.8674 64.708 45.4506 64.8195 45.123 64.4795Z" fill="white"/>
<path d="M90.4037 50.3326C88.5838 52.8318 88.8732 56.6619 91.0643 58.8466C93.9761 61.7608 98.737 61.2818 102.795 60.5981C103.136 63.9857 106.481 66.4282 109.838 66.8926C113.196 67.357 116.559 66.3112 119.789 65.2801C119.917 65.9673 120.255 66.5975 120.756 67.0831C121.256 67.5688 121.895 67.8857 122.583 67.9901C123.271 68.0944 123.974 67.9809 124.595 67.6653C125.216 67.3497 125.724 66.8477 126.048 66.229C123.948 63.6 121.831 60.9454 120.341 57.927C118.85 54.9087 118.021 51.4497 118.652 48.1406C118.88 46.945 119.136 45.3745 118.064 44.8041C117.725 44.6519 117.356 44.5829 116.985 44.603C114.18 44.5756 111.43 45.3829 109.081 46.923C108.379 47.3856 107.664 47.9322 106.826 47.9797C106.153 48.0181 105.512 47.7274 104.859 47.5665C102.453 46.9724 100.004 48.1955 97.5795 47.9578C94.8278 47.6909 92.2072 47.8664 90.4037 50.3326Z" fill="url(#paint16_linear)"/>
<path d="M38.1236 58.4921C39.4431 60.419 39.2283 63.3716 37.6486 65.0572C35.5412 67.3041 32.1125 66.9348 29.1843 66.4065C28.9405 69.019 26.5273 70.9021 24.105 71.2604C21.6827 71.6187 19.2568 70.8125 16.9256 70.0172C16.7436 71.0666 15.8955 71.946 14.9109 72.105C14.4054 72.1672 13.8933 72.0691 13.4459 71.8246C12.9986 71.5801 12.6385 71.2013 12.4159 70.7412C13.9318 68.7155 15.4587 66.6679 16.5343 64.3424C17.6098 62.0169 18.2068 59.3495 17.7518 56.7973C17.588 55.8832 17.4042 54.6656 18.1758 54.225C18.4185 54.1088 18.6863 54.0554 18.9547 54.0696C20.9952 54.0557 22.989 54.6834 24.6564 55.865C25.1642 56.2215 25.6792 56.6419 26.2834 56.6785C26.7675 56.7078 27.2298 56.4847 27.7029 56.3604C29.4373 55.9015 31.2044 56.8449 32.9588 56.6621C34.9388 56.4555 36.8279 56.5908 38.1236 58.4921Z" fill="url(#paint17_linear)"/>
<path d="M118.803 78.2549C116.852 78.0113 114.887 77.9001 112.921 77.9222C113.123 79.0544 113.351 80.1806 113.607 81.3007C115.376 80.8071 117.273 81.2312 118.994 81.8711C120.716 82.511 122.368 83.3666 124.159 83.7743C124.227 83.8 124.3 83.8102 124.373 83.8042C124.446 83.7982 124.516 83.7761 124.579 83.7396C124.778 83.5787 124.63 83.2606 124.476 83.0558C122.781 80.8309 121.764 78.6023 118.803 78.2549Z" fill="white"/>
<path opacity="0.24" d="M82.6219 71.8052H62.2883V74.7724H82.6219V71.8052Z" fill="#5D38C4"/>
<path opacity="0.24" d="M82.6219 75.915H62.2883V78.8822H82.6219V75.915Z" fill="#5D38C4"/>
<path opacity="0.24" d="M82.6219 80.0229H62.2883V82.9902H82.6219V80.0229Z" fill="#5D38C4"/>
</g>
<defs>
<linearGradient id="paint0_linear" x1="82.6382" y1="57.9818" x2="84.0884" y2="63.9113" gradientUnits="userSpaceOnUse">
<stop stop-color="#010101" stop-opacity="0"/>
<stop offset="0.95" stop-color="#010101"/>
</linearGradient>
<linearGradient id="paint1_linear" x1="1998.96" y1="1503.9" x2="1808.72" y2="1751.94" gradientUnits="userSpaceOnUse">
<stop stop-color="#010101" stop-opacity="0"/>
<stop offset="0.95" stop-color="#010101"/>
</linearGradient>
<linearGradient id="paint2_linear" x1="5060.93" y1="7395" x2="14463.5" y2="7930.92" gradientUnits="userSpaceOnUse">
<stop stop-color="#010101" stop-opacity="0"/>
<stop offset="0.95" stop-color="#010101"/>
</linearGradient>
<linearGradient id="paint3_linear" x1="10884.6" y1="7774.17" x2="4156.7" y2="7974.56" gradientUnits="userSpaceOnUse">
<stop stop-color="#010101" stop-opacity="0"/>
<stop offset="0.95" stop-color="#010101"/>
</linearGradient>
<linearGradient id="paint4_linear" x1="72.1429" y1="16.6405" x2="56.5927" y2="148.212" gradientUnits="userSpaceOnUse">
<stop offset="0.12" stop-color="#010101" stop-opacity="0"/>
<stop offset="0.95" stop-color="#010101"/>
</linearGradient>
<linearGradient id="paint5_linear" x1="7481.02" y1="6131.79" x2="7409.35" y2="13812.1" gradientUnits="userSpaceOnUse">
<stop stop-color="#010101" stop-opacity="0"/>
<stop offset="0.95" stop-color="#010101"/>
</linearGradient>
<linearGradient id="paint6_linear" x1="6852.57" y1="6133.69" x2="6773.02" y2="13803.7" gradientUnits="userSpaceOnUse">
<stop stop-color="#010101" stop-opacity="0"/>
<stop offset="0.95" stop-color="#010101"/>
</linearGradient>
<linearGradient id="paint7_linear" x1="75.1785" y1="59.9858" x2="79.4588" y2="59.9858" gradientUnits="userSpaceOnUse">
<stop stop-color="#E5C6D6"/>
<stop offset="0.42" stop-color="#EAD4D0"/>
<stop offset="1" stop-color="#F0E9CB"/>
</linearGradient>
<linearGradient id="paint8_linear" x1="1255.53" y1="814.64" x2="1316.39" y2="814.64" gradientUnits="userSpaceOnUse">
<stop stop-color="#E5C6D6"/>
<stop offset="0.42" stop-color="#EAD4D0"/>
<stop offset="1" stop-color="#F0E9CB"/>
</linearGradient>
<linearGradient id="paint9_linear" x1="2463.99" y1="1500.09" x2="2441.36" y2="1502" gradientUnits="userSpaceOnUse">
<stop stop-color="#010101" stop-opacity="0"/>
<stop offset="0.95" stop-color="#010101"/>
</linearGradient>
<linearGradient id="paint10_linear" x1="620.758" y1="500.451" x2="624.526" y2="500.268" gradientUnits="userSpaceOnUse">
<stop stop-color="#010101" stop-opacity="0"/>
<stop offset="0.95" stop-color="#010101"/>
</linearGradient>
<linearGradient id="paint11_linear" x1="1316.34" y1="572.36" x2="1311.19" y2="573.052" gradientUnits="userSpaceOnUse">
<stop stop-color="#010101" stop-opacity="0"/>
<stop offset="0.95" stop-color="#010101"/>
</linearGradient>
<linearGradient id="paint12_linear" x1="3398.52" y1="671.462" x2="3420.69" y2="698.877" gradientUnits="userSpaceOnUse">
<stop stop-color="#010101" stop-opacity="0"/>
<stop offset="0.95" stop-color="#010101"/>
</linearGradient>
<linearGradient id="paint13_linear" x1="2478.84" y1="1073.44" x2="2509.74" y2="1073.82" gradientUnits="userSpaceOnUse">
<stop stop-color="#010101" stop-opacity="0"/>
<stop offset="0.95" stop-color="#010101"/>
</linearGradient>
<linearGradient id="paint14_linear" x1="650.325" y1="1115.02" x2="661.397" y2="1115.02" gradientUnits="userSpaceOnUse">
<stop stop-color="#010101" stop-opacity="0"/>
<stop offset="0.95" stop-color="#010101"/>
</linearGradient>
<linearGradient id="paint15_linear" x1="855.253" y1="1369.65" x2="875.224" y2="1369.65" gradientUnits="userSpaceOnUse">
<stop stop-color="#E5C6D6"/>
<stop offset="0.42" stop-color="#EAD4D0"/>
<stop offset="1" stop-color="#F0E9CB"/>
</linearGradient>
<linearGradient id="paint16_linear" x1="111.887" y1="50.9579" x2="104.793" y2="64.8554" gradientUnits="userSpaceOnUse">
<stop stop-color="white" stop-opacity="0"/>
<stop offset="0.95" stop-color="white"/>
</linearGradient>
<linearGradient id="paint17_linear" x1="18083.9" y1="6042.1" x2="18515.5" y2="7217.46" gradientUnits="userSpaceOnUse">
<stop stop-color="white" stop-opacity="0"/>
<stop offset="0.95" stop-color="white"/>
</linearGradient>
<clipPath id="clip0">
<rect width="140" height="106" fill="white"/>
</clipPath>
</defs>
</svg>
