<svg width="64" height="65" viewBox="0 0 64 65" fill="none" xmlns="http://www.w3.org/2000/svg">
<path d="M62.6908 0.00558819C50.1982 -0.218423 35.9495 6.3099 26.9291 16.4424C18.3087 16.6064 9.91624 20.1386 3.73594 26.3189C3.37592 26.6749 3.24791 27.2029 3.40392 27.6829C3.56393 28.163 3.97995 28.515 4.48398 28.587L14.7605 30.0591L13.4924 31.4791C13.0204 32.0072 13.0444 32.8112 13.5444 33.3112L30.6853 50.4521C30.9453 50.7121 31.2853 50.8441 31.6293 50.8441C31.9453 50.8441 32.2653 50.7321 32.5174 50.5041L33.9374 49.236L35.4095 59.5125C35.4815 60.0125 35.8775 60.3806 36.3535 60.5406C36.4776 60.5806 36.6056 60.6006 36.7336 60.6006C37.1096 60.6006 37.4976 60.4366 37.7656 60.1725C43.8619 54.0802 47.3901 45.6878 47.5541 37.0674C57.6986 28.031 64.2789 13.7863 63.9909 1.30565C63.9789 0.597616 63.4029 0.0255892 62.6908 0.00558819ZM50.4022 23.0267C49.1022 24.3268 47.3941 24.9748 45.69 24.9748C43.9819 24.9748 42.2738 24.3268 40.9738 23.0267C38.3776 20.4266 38.3776 16.1984 40.9738 13.5983C43.5739 10.9981 47.8021 10.9981 50.4022 13.5983C53.0024 16.1984 53.0024 20.4266 50.4022 23.0267Z" fill="black"/>
<path d="M7.26409 45.0798C4.40795 47.9319 0.491762 60.8286 0.0557406 62.2887C-0.0842663 62.7607 0.0437385 63.2687 0.391756 63.6127C0.643768 63.8687 0.983787 64.0047 1.3318 64.0047C1.45981 64.0047 1.58782 63.9847 1.71582 63.9487C3.17589 63.5127 16.0685 59.5925 18.9247 56.7364C22.1408 53.5202 22.1408 48.292 18.9247 45.0798C15.7085 41.8637 10.4803 41.8677 7.26409 45.0798Z" fill="black"/>
</svg>
