<svg width="44" height="28" viewBox="0 0 44 28" fill="none" xmlns="http://www.w3.org/2000/svg">
<path d="M39.601 0H4.39901C1.97345 0 0 1.93215 0 4.30695V23.6931C0 26.0679 1.97345 28 4.39901 28H39.601C42.0266 28 44 26.0679 44 23.6931V4.30695C44 1.93215 42.0266 0 39.601 0ZM39.601 9.69305L24.4206 17.189C23.6715 17.5767 22.8366 17.7706 22.0016 17.7706C21.1667 17.7706 20.3087 17.5767 19.5596 17.1664L4.40231 9.69305V6.07431L21.0776 14.3037C21.6485 14.6042 22.3548 14.6042 22.9026 14.3263L39.601 6.07431V9.69305Z" fill="black"/>
</svg>
