<svg width="400" height="550" viewBox="0 0 400 550" fill="none" xmlns="http://www.w3.org/2000/svg">
<path d="M99.0938 173.262C99.4896 174.099 100.029 174.859 100.688 175.509C105.971 181.095 112.809 184.962 120.315 186.608C122.965 187.219 125.676 187.527 128.396 187.524C129.99 177.23 131.612 166.921 132.859 156.585C133.843 148.511 134.578 140.45 134.924 132.348C135.16 127.27 146.152 109.567 143.906 104.822C141.425 99.6055 123.558 117.461 121.549 120.86C110.391 139.59 106.385 154.074 98.7334 170.182C98.4438 171.216 98.5732 172.323 99.0938 173.262Z" fill="url(#paint0_linear)"/>
<path d="M118.513 184.722C119.048 185.418 119.652 186.06 120.315 186.636C122.965 187.247 125.676 187.554 128.396 187.552C129.99 177.257 131.612 166.949 132.859 156.613C132.388 148.492 131.533 140.404 130.295 132.348C130.822 135.719 126.677 143.072 125.554 146.374L120.689 160.761C118.153 168.267 112.733 177.396 118.513 184.722Z" fill="url(#paint1_linear)"/>
<path d="M124.487 202.327C123.378 209.098 121.964 215.951 118.624 221.945C116.905 225.025 114.341 228.049 110.862 228.59C108.927 228.773 106.977 228.483 105.179 227.744C101.453 226.461 97.9396 224.628 94.7553 222.305C91.7128 219.97 88.8452 217.415 86.1754 214.661C82.2041 210.909 78.5292 206.855 75.1835 202.535C73.645 200.454 72.245 198.262 70.5679 196.278C63.6373 188.023 52.5485 184.319 44.6893 176.952C42.5686 174.982 38.2717 165.964 38.5905 163.078C41.4736 161.413 47.3922 168.114 50.5803 169.085C53.7683 170.057 56.7484 171.638 59.9503 172.54C63.7842 173.61 67.8303 173.663 71.6906 172.693C72.9935 172.36 74.546 151.785 75.8489 152.257C76.5047 152.532 77.0916 152.949 77.5676 153.477C80.2567 156.252 81.726 179.935 83.9576 183.015C87.0209 187.177 91.2623 190.34 95.4622 193.365C95.8365 193.628 96.3077 193.906 96.7236 193.698C96.8606 193.596 96.9755 193.467 97.0612 193.319C97.147 193.171 97.2019 193.007 97.2226 192.837C98.3176 188.772 99.5512 184.735 100.896 180.753C101.838 177.979 103.169 174.926 105.955 174.094C108.436 173.359 111.014 174.76 113.232 176.106C116.087 177.854 118.97 179.574 121.812 181.336C123.392 182.307 125.305 183.251 126.053 185.04C126.968 187.191 126.192 190.16 125.929 192.366C125.513 195.709 125.028 199.025 124.487 202.327Z" fill="#F5BCBA"/>
<path d="M99.1908 391.025C99.1908 395.27 99.3987 399.446 99.7729 403.594C103.007 439.094 119.74 471.995 146.517 495.499C173.293 519.002 208.066 531.314 243.652 529.889C279.238 528.464 312.917 513.412 337.732 487.843C362.548 462.273 376.602 428.14 376.993 392.495C376.993 392.024 376.993 391.566 376.993 391.108C377.176 372.732 373.719 354.503 366.82 337.473C359.922 320.443 349.719 304.951 336.802 291.893C323.885 278.834 308.51 268.467 291.566 261.393C274.622 254.318 256.444 250.675 238.085 250.675C219.726 250.675 201.548 254.318 184.604 261.393C167.66 268.467 152.285 278.834 139.368 291.893C126.451 304.951 116.248 320.443 109.35 337.473C102.451 354.503 98.9936 372.732 99.1769 391.108L99.1908 391.025Z" fill="url(#paint2_linear)"/>
<path d="M174.401 336.668C168.856 338.666 162.827 340.094 158.28 343.882C154.247 347.226 151.794 352.068 149.811 356.91C143.203 373.159 140.818 390.82 142.881 408.243C143.435 412.877 144.267 417.649 143.061 422.117C141.855 426.584 137.738 430.774 133.109 430.219C126.691 417.455 126.553 402.555 126.539 388.264C126.539 377.831 126.539 367.176 130.032 357.34C132.887 349.237 137.933 342.078 143.144 335.266C162.148 310.294 185.143 286.999 214.418 275.775C215.631 275.154 217.026 274.982 218.354 275.29C224.384 277.496 223.399 288.234 221.057 292.549C217.73 298.509 214.027 304.251 209.968 309.739C201.065 322.068 188.677 331.447 174.401 336.668Z" fill="url(#paint3_linear)"/>
<path d="M229.221 305.313C229.139 303.446 228.898 301.589 228.5 299.763C228.287 298.857 227.829 298.027 227.176 297.364C226.523 296.701 225.701 296.23 224.799 296.003C224.038 295.983 223.279 295.913 222.526 295.795C220.988 295.324 220.336 293.534 219.893 291.994L214.972 274.79C214.029 271.461 213.073 267.964 213.794 264.593C214.93 259.321 219.768 255.755 224.481 253.175C227.904 251.288 231.758 249.609 235.569 250.317C241.474 251.413 244.898 257.517 247.102 263.109C249.667 269.099 251.244 275.467 251.773 281.963C252.161 289.469 252.799 307.852 248.155 314.414C241.724 323.626 230.247 313.637 229.221 305.313Z" fill="url(#paint4_linear)"/>
<path d="M154.454 283.6C141.882 287.859 128.479 289.649 116.364 295.074C115.974 295.192 115.612 295.39 115.302 295.655C114.992 295.92 114.74 296.246 114.562 296.614C114.457 297.215 114.534 297.833 114.784 298.39C125.015 328.844 130.786 360.621 131.916 392.732C124.668 394.037 117.26 394.201 109.961 393.217C109.14 393.166 108.345 392.914 107.646 392.482C106.973 391.892 106.466 391.137 106.177 390.29C94.4501 363.939 83.925 337.093 74.6012 309.752C72.9517 304.91 71.3161 299.846 71.9814 294.769C72.9379 287.374 78.4961 281.547 83.7772 276.289L124.931 235.194C125.977 234.013 127.262 233.067 128.701 232.42C130.356 231.927 132.106 231.841 133.802 232.17C150.033 234.182 172.197 234.806 202.025 233.557C205.893 233.391 186.778 255.436 185.184 259.668C183.909 263.025 179.876 267.354 177.408 269.962C171.226 276.455 162.882 280.742 154.454 283.6Z" fill="#525263"/>
<path d="M154.454 283.6C141.882 287.859 128.479 289.649 116.364 295.074C115.974 295.192 115.612 295.39 115.302 295.655C114.992 295.92 114.74 296.246 114.562 296.614C114.457 297.215 114.534 297.833 114.784 298.39C125.015 328.844 130.786 360.621 131.916 392.732C124.668 394.037 117.26 394.201 109.961 393.217C109.14 393.166 108.345 392.914 107.646 392.482C106.973 391.892 106.466 391.137 106.177 390.29C94.4501 363.939 83.925 337.093 74.6012 309.752C72.9517 304.91 71.3161 299.846 71.9814 294.769C72.9379 287.374 78.4961 281.547 83.7772 276.289L124.931 235.194C125.977 234.013 127.262 233.067 128.701 232.42C130.356 231.927 132.106 231.841 133.802 232.17C150.033 234.182 172.197 234.806 202.025 233.557C205.893 233.391 186.778 255.436 185.184 259.668C183.909 263.025 179.876 267.354 177.408 269.962C171.226 276.455 162.882 280.742 154.454 283.6Z" fill="url(#paint5_linear)"/>
<path d="M134.024 410.948C135.033 412.521 135.717 414.28 136.033 416.123C136.773 419.348 137.319 422.614 137.669 425.904C137.946 428.457 138.043 431.231 136.588 433.326C135.133 435.421 132.735 436.184 130.489 437.059C124.836 439.387 119.344 442.089 114.05 445.147C110.474 447.117 106.745 449.157 102.67 449.309C98.5948 449.462 94.09 447.228 93.1613 443.26C92.8396 441.35 93.0017 439.389 93.6326 437.558C95.8575 429.597 100.22 422.4 106.246 416.747C107.302 415.716 108.48 414.817 109.753 414.07C110.974 413.438 112.25 412.918 113.565 412.516C117.267 411.16 121.06 410.071 124.917 409.255C128.285 408.714 131.695 407.715 134.024 410.948Z" fill="#2E2E3F"/>
<path d="M134.024 410.948C135.033 412.521 135.717 414.28 136.033 416.123C136.773 419.348 137.319 422.614 137.669 425.904C137.946 428.457 138.043 431.231 136.588 433.326C135.133 435.421 132.735 436.184 130.489 437.059C124.836 439.387 119.344 442.089 114.05 445.147C110.474 447.117 106.745 449.157 102.67 449.309C98.5948 449.462 94.09 447.228 93.1613 443.26C92.8396 441.35 93.0017 439.389 93.6326 437.558C95.8575 429.597 100.22 422.4 106.246 416.747C107.302 415.716 108.48 414.817 109.753 414.07C110.974 413.438 112.25 412.918 113.565 412.516C117.267 411.16 121.06 410.071 124.917 409.255C128.285 408.714 131.695 407.715 134.024 410.948Z" fill="url(#paint6_linear)"/>
<path d="M129.907 393.772C130.957 399.26 131.505 404.832 131.542 410.42C131.542 412.876 131.376 415.595 129.616 417.357C127.949 418.683 125.825 419.292 123.711 419.05C121.161 418.956 118.645 418.435 116.267 417.51C115.74 417.345 115.263 417.049 114.881 416.65C114.6 416.256 114.407 415.806 114.313 415.332C112.198 407.39 111.076 399.216 110.973 390.997C110.838 389.709 111.104 388.41 111.735 387.279C113.052 385.433 115.782 385.517 118 385.961C120.839 386.569 123.622 387.419 126.317 388.5C128.867 389.388 129.394 391.136 129.907 393.772Z" fill="#F5BCBA"/>
<path d="M102.573 419.855C101.571 422.32 100.755 424.857 100.133 427.444C99.7038 429.456 99.4543 431.606 98.1652 433.216C96.5296 435.227 93.6881 435.741 91.0961 435.782C88.9598 435.903 86.8235 435.543 84.8448 434.728C83.8152 434.324 82.9545 433.58 82.4053 432.619C82.0199 431.67 81.8862 430.638 82.0172 429.622C82.2197 422.574 83.9757 415.657 87.1596 409.367C88.9854 406.115 91.0421 403 93.3139 400.043C94.0314 398.714 95.2403 397.718 96.6821 397.269C97.4231 397.242 98.1619 397.365 98.8548 397.63C99.5476 397.894 100.18 398.295 100.716 398.809C103.003 400.529 108.034 403.401 107.508 406.661C106.842 411.004 104.125 415.735 102.573 419.855Z" fill="#F5BCBA"/>
<path d="M85.7732 424.975C87.3416 425.853 88.8637 426.811 90.3335 427.846C92.6206 429.109 95.3096 429.359 97.8185 430.08C98.4807 430.207 99.0894 430.531 99.565 431.01C99.9107 431.477 100.126 432.027 100.189 432.605C100.66 436.392 100.505 440.231 99.7313 443.968C98.4561 452.052 96.9683 460.103 95.268 468.122C94.5611 471.424 93.7156 474.906 91.3176 477.279C88.9197 479.651 85.2742 480.47 81.8644 480.567C78.6742 480.75 75.4871 480.155 72.5776 478.833C70.2634 477.593 68.2587 475.846 66.713 473.722C65.1674 471.599 64.1208 469.153 63.6511 466.568C62.7484 461.371 63.3844 456.022 65.4807 451.182C66.9042 447.872 68.5626 444.668 70.443 441.595C72.9379 437.304 75.4237 433.012 77.9002 428.72C79.7853 425.446 81.5041 423.157 85.7732 424.975Z" fill="#2E2E3F"/>
<path d="M85.7732 424.975C87.3416 425.853 88.8637 426.811 90.3335 427.846C92.6206 429.109 95.3096 429.359 97.8185 430.08C98.4807 430.207 99.0894 430.531 99.565 431.01C99.9107 431.477 100.126 432.027 100.189 432.605C100.66 436.392 100.505 440.231 99.7313 443.968C98.4561 452.052 96.9683 460.103 95.268 468.122C94.5611 471.424 93.7156 474.906 91.3176 477.279C88.9197 479.651 85.2742 480.47 81.8644 480.567C78.6742 480.75 75.4871 480.155 72.5776 478.833C70.2634 477.593 68.2587 475.846 66.713 473.722C65.1674 471.599 64.1208 469.153 63.6511 466.568C62.7484 461.371 63.3844 456.022 65.4807 451.182C66.9042 447.872 68.5626 444.668 70.443 441.595C72.9379 437.304 75.4237 433.012 77.9002 428.72C79.7853 425.446 81.5041 423.157 85.7732 424.975Z" fill="url(#paint7_linear)"/>
<path d="M253.713 171.028C254.926 174.082 255.737 177.282 256.125 180.545C257.444 188.996 258.286 197.514 258.648 206.059C259.341 222.375 258.288 238.718 258.745 255.034C259.216 272.002 261.212 289.594 255.113 305.424C254.164 308.296 252.56 310.909 250.428 313.054C249.35 314.11 248.02 314.873 246.565 315.271C245.11 315.669 243.577 315.689 242.112 315.33C240.786 314.818 239.596 314.008 238.634 312.961C237.672 311.914 236.965 310.66 236.567 309.294C235.803 306.56 235.467 303.724 235.569 300.887L235.348 285.376C235.348 285.057 235.348 284.682 235.029 284.544C234.895 284.497 234.752 284.487 234.613 284.514C234.475 284.541 234.345 284.603 234.239 284.696C233.046 285.728 231.912 286.825 230.843 287.984C229.609 288.983 227.641 289.469 226.546 288.317C226.243 287.913 226.028 287.45 225.916 286.958C225.803 286.465 225.796 285.955 225.894 285.459C226.56 278.744 232.409 273.902 235.888 268.117C240.906 259.793 240.906 249.304 239.644 239.62C238.078 227.494 234.807 215.66 231.55 203.867L228.777 193.892C226.684 186.317 224.619 178.048 227.669 170.792C228.893 168.005 230.758 165.547 233.111 163.618C235.464 161.69 238.24 160.345 241.211 159.693C247.005 158.625 251.62 166.311 253.713 171.028Z" fill="#F5BCBA"/>
<path d="M125.028 234.112C126.816 238.926 136.906 233.307 142.673 236.193C153.678 241.743 166.236 236.041 178.503 236.193C191.56 236.429 200.57 249.304 213.53 250.941C214.472 251.135 215.444 251.135 216.385 250.941C218.173 250.414 219.227 248.624 219.989 246.945C221.108 244.356 221.908 241.64 222.373 238.857C223.981 229.645 222.373 219.767 220.655 210.402C219.213 202.466 217.776 194.525 216.344 186.58C214.681 177.331 213.003 168.026 211.312 158.666C210.326 152.491 208.937 146.388 207.154 140.394C206.821 139.354 206.475 138.341 206.101 137.342C202.876 129.206 198.987 121.35 194.471 113.854C191.699 109.04 188.927 104.142 184.644 100.493C179.862 96.456 173.694 94.4442 167.498 93.4731C161.926 92.4219 156.181 92.7553 150.767 94.4442C147.676 95.5264 146.512 98.8006 144.059 100.812C140.949 103.119 138.173 105.845 135.811 108.915C133.412 112.62 131.699 116.728 130.752 121.04C122.061 154.865 134.633 191.353 126.372 225.275C125.429 229.256 123.6 230.311 125.028 234.112Z" fill="url(#paint8_linear)"/>
<path d="M136.837 115.296L135.756 122.386L139.914 120.069V138.854L144.655 117.988L140.067 111.301L136.837 115.296Z" fill="url(#paint9_linear)"/>
<path d="M172.044 114.839L169.425 116.226L165.266 119.847L176.355 149.62C176.355 149.62 160.249 124.814 159.722 112.161C159.396 104.378 160.366 96.5949 162.591 89.1304L172.044 114.839Z" fill="url(#paint10_linear)"/>
<path d="M207.556 200.177C208.436 206.993 208.436 213.894 207.556 220.71C206.988 224.997 206.073 229.27 206.364 233.571C206.351 234.411 206.619 235.232 207.126 235.902C207.777 236.432 208.576 236.747 209.414 236.804C213.747 237.488 218.086 238.186 222.429 238.899C224.037 229.686 222.429 219.808 220.71 210.443C219.269 202.507 217.832 194.567 216.399 186.622C214.736 177.373 213.059 168.068 211.368 158.708C210.382 152.533 208.993 146.429 207.21 140.436C206.877 139.395 206.53 138.383 206.156 137.384C201.859 134.997 195.885 133.222 193.224 137.078C190.452 141.241 194.097 150.952 195.178 155.114C199.115 170.195 205.574 184.61 207.556 200.177Z" fill="url(#paint11_linear)"/>
<path d="M107.854 79.8907C107.71 81.6159 107.761 83.3519 108.007 85.0656C108.147 85.92 108.573 86.7013 109.215 87.2812C109.857 87.8611 110.678 88.205 111.541 88.2566C115.866 87.9375 118.985 92.0858 122.422 94.7495C125.119 96.7723 128.321 98.0121 131.676 98.3327C135.03 98.6533 138.409 98.0424 141.439 96.567C142.042 96.3503 142.704 96.3734 143.289 96.6316C143.875 96.8898 144.339 97.3634 144.586 97.9544C145.018 99.1783 145.114 100.496 144.863 101.77L143.269 116.948C142.964 119.875 142.936 123.454 145.417 125.036C147.899 126.618 150.837 125.244 152.889 123.454C156.113 120.35 158.445 116.435 159.639 112.12C162.349 103.376 162.738 94.0758 160.767 85.1357C158.796 76.1956 154.533 67.9233 148.398 61.1332C146.094 58.5563 143.394 56.3643 140.4 54.6403C137.265 53.0118 133.899 51.8748 130.42 51.2689C127.306 50.5333 124.087 50.3549 120.911 50.7417C116.646 51.5179 112.768 53.7129 109.906 56.9711C107.799 59.2741 105.747 66.1417 103.53 67.2655C105.179 71.4554 107.785 75.1597 107.854 79.8907Z" fill="#F5BCBA"/>
<path d="M140.843 20.3162C142.875 19.8403 144.996 19.9025 146.997 20.4965C150.906 21.8839 153.096 25.9767 154.51 29.8752C155.924 33.7738 157.088 38.033 160.165 40.7939C162.813 43.1802 166.569 44.1375 168.953 46.7736C171.725 49.8397 171.989 54.3764 171.725 58.497C171.725 61.5884 170.856 64.6174 169.216 67.2375C167.747 69.2353 165.488 70.6227 164.337 72.787C163.034 75.2704 162.591 79.1135 159.791 79.28C158.623 79.2209 157.52 78.7259 156.7 77.8926C153.87 75.444 151.737 72.2897 150.518 68.7497C149.839 66.7796 149.395 64.5876 147.898 63.2002C146.401 61.8128 143.352 61.7296 142.672 63.6996C142.482 64.9531 142.675 66.235 143.227 67.3762C143.587 68.5971 143.435 70.2481 142.243 70.6643C139.997 67.1958 138.736 63.1169 136.075 59.9676C134.564 58.1964 132.669 56.7945 130.535 55.8694C128.4 54.9443 126.082 54.5204 123.758 54.6302C121.434 54.74 119.166 55.3806 117.128 56.5029C115.09 57.6252 113.335 59.1995 111.998 61.1052C110.612 63.0892 109.669 65.4477 107.729 66.8629C105.901 67.9777 103.812 68.5903 101.672 68.6387C96.9034 69.1104 91.858 69.2908 87.5611 67.1681C83.2642 65.0454 80.09 59.8982 81.7395 55.3892C83.0424 51.8514 86.7572 49.8397 90.361 48.702C93.9649 47.5644 97.8183 46.9955 100.992 44.97C105.303 42.1952 107.604 37.2561 110.113 32.7749C112.622 28.2936 116.018 23.6875 121.035 22.6331C123.084 22.314 125.169 22.314 127.217 22.6331C129.216 23.0575 131.262 23.2161 133.302 23.1048C135.797 22.5915 138.209 20.8989 140.843 20.3162Z" fill="#2E2E3F"/>
<path d="M140.843 134.317C137.678 150.367 136.745 166.778 138.071 183.084C139.166 196.653 141.772 210.124 141.675 223.734C141.471 227.562 141.587 231.4 142.021 235.208C142.631 238.982 167.914 237.539 171.601 237.497C177.81 237.414 169.937 245.821 174.608 241.77C181.941 235.374 185.212 225.399 186.113 215.715C187.402 201.911 184.575 188.092 181.497 174.565C179.363 165.201 177.09 155.808 173.264 146.998C168.523 136.107 161.025 122.247 158.613 110.607C158.266 108.901 164.157 102.699 161.621 102.782C159.971 102.782 160.747 105.349 160.456 106.625C159.936 108.569 158.941 110.352 157.559 111.814C155.626 114.074 153.007 115.638 150.102 116.268C148.231 116.614 146.096 116.531 144.738 117.863C143.089 119.472 143.352 122.608 142.881 124.8C142.201 127.935 141.481 131.113 140.843 134.317Z" fill="#F2F2F2"/>
<path d="M196.966 93.043C203.675 96.123 209.441 100.896 214.889 105.89C219.397 109.957 223.656 114.294 227.641 118.876C231.161 123.038 234.377 127.353 238.092 131.279C243.22 136.676 249.624 141.893 250.636 149.315C250.946 153.186 250.269 157.072 248.668 160.609C247.349 164.22 245.401 167.569 242.916 170.501C239.761 173.993 235.6 176.417 231.009 177.438C229.57 177.813 228.068 177.879 226.601 177.632C224.536 177.043 222.637 175.979 221.057 174.524C217.443 171.787 214.021 168.807 210.813 165.603C207.542 162.204 204.77 158.333 201.582 154.851C198.81 151.854 195.857 149.149 193.085 146.208C189.772 142.684 186.82 138.841 183.868 134.997C179.69 129.785 175.861 124.302 172.405 118.585C169.518 113.539 167.225 108.176 165.571 102.602C164.504 98.9671 162.799 94.361 166.486 91.7389C174.317 86.2171 189.163 89.3942 196.966 93.043Z" fill="url(#paint12_linear)"/>
<path d="M196.966 93.043C203.675 96.123 209.441 100.896 214.889 105.89C219.397 109.957 223.656 114.294 227.641 118.876C231.161 123.038 234.377 127.353 238.092 131.279C243.22 136.676 249.624 141.893 250.636 149.315C250.946 153.186 250.269 157.072 248.668 160.609C247.349 164.22 245.401 167.569 242.916 170.501C239.761 173.993 235.6 176.417 231.009 177.438C229.57 177.813 228.068 177.879 226.601 177.632C224.536 177.043 222.637 175.979 221.057 174.524C217.443 171.787 214.021 168.807 210.813 165.603C207.542 162.204 204.77 158.333 201.582 154.851C198.81 151.854 195.857 149.149 193.085 146.208C189.772 142.684 186.82 138.841 183.868 134.997C179.69 129.785 175.861 124.302 172.405 118.585C169.518 113.539 167.225 108.176 165.571 102.602C164.504 98.9671 162.799 94.361 166.486 91.7389C174.317 86.2171 189.163 89.3942 196.966 93.043Z" fill="url(#paint13_linear)"/>
<path d="M80.7697 156.391C82.2686 157.338 83.34 158.833 83.7566 160.558C84.1731 162.283 83.9023 164.102 83.0013 165.631C80.6742 169.682 77.5531 173.222 73.8253 176.036C71.6075 178.422 66.6176 178.811 62.182 176.202C57.7465 173.594 36.5807 162.065 26.0047 154.531C25.2289 153.998 24.5698 153.311 24.0677 152.514C23.5657 151.717 23.2312 150.826 23.0846 149.895C22.938 148.964 22.9825 148.013 23.2153 147.1C23.448 146.187 23.8642 145.331 24.4384 144.584L33.2956 133.485C34.3453 132.171 35.8425 131.292 37.5001 131.015C39.1578 130.739 40.859 131.085 42.2776 131.986L80.7697 156.391Z" fill="#3D3D54"/>
<path d="M221.445 275.969C219.881 281.716 217.107 287.061 213.308 291.646C209.15 296.502 203.495 299.971 198.061 303.273L175.177 317.216C171.821 319.148 168.61 321.322 165.571 323.723C158.072 329.91 153.096 338.54 148.259 346.975L114.881 405.204C113.19 408.187 110.82 411.558 107.396 411.447C105.553 411.207 103.819 410.436 102.407 409.227C98.1235 406.217 93.5216 402.79 92.2464 397.698C91.3593 394.146 92.2464 390.414 93.3137 386.89C98.4423 369.534 106.482 353.191 114.549 336.945C127.366 311.232 140.372 285.57 153.567 259.959C157.074 253.16 161.33 242.575 167.124 237.58C167.124 237.58 220.96 234.306 222.318 239.647C225.343 251.607 225.042 264.168 221.445 275.969Z" fill="#525263"/>
<path d="M221.445 275.969C219.881 281.716 217.107 287.061 213.308 291.646C209.15 296.502 203.495 299.971 198.061 303.273L175.177 317.216C171.821 319.148 168.61 321.322 165.571 323.723C158.072 329.91 153.096 338.54 148.259 346.975L114.881 405.204C113.19 408.187 110.82 411.558 107.396 411.447C105.553 411.207 103.819 410.436 102.407 409.227C98.1235 406.217 93.5216 402.79 92.2464 397.698C91.3593 394.146 92.2464 390.414 93.3137 386.89C98.4423 369.534 106.482 353.191 114.549 336.945C127.366 311.232 140.372 285.57 153.567 259.959C157.074 253.16 161.33 242.575 167.124 237.58C167.124 237.58 220.96 234.306 222.318 239.647C225.343 251.607 225.042 264.168 221.445 275.969Z" fill="url(#paint14_linear)"/>
<path d="M160.9 85.4404L168.51 88.451L173.126 114.298L157.781 113.604L160.9 85.4404Z" fill="#6A5D8D"/>
<path d="M144.794 112.98C144.794 114.145 144.794 115.311 144.794 116.476C144.794 116.981 144.766 117.486 144.71 117.988C144.628 118.498 144.516 119.003 144.378 119.501L142.465 127.048L141.675 114.784C139.416 115.88 137.101 116.879 134.744 117.753C134.922 115.915 135.39 114.116 136.13 112.425C137.517 108.873 138.792 105.308 140.289 101.825C140.639 100.895 141.145 100.032 141.786 99.2727C142.109 98.8962 142.515 98.5999 142.972 98.4073C143.429 98.2147 143.924 98.131 144.419 98.1628C145.805 98.7455 144.932 103.948 144.918 105.1L144.794 112.98Z" fill="#6A5D8D"/>
<path d="M32.6578 150.314L60.8234 168.142C61.317 168.409 61.8867 168.499 62.4385 168.398C62.9903 168.297 63.4913 168.011 63.8589 167.587L72.8131 157.487C72.9972 157.315 73.1399 157.103 73.2303 156.868C73.3208 156.633 73.3567 156.38 73.3353 156.129C73.314 155.878 73.2359 155.635 73.107 155.418C72.9781 155.202 72.8018 155.017 72.5913 154.879L44.3703 137.065C43.8767 136.798 43.307 136.708 42.7552 136.809C42.2034 136.909 41.7024 137.195 41.3348 137.62L32.3806 147.706C32.1992 147.882 32.0602 148.097 31.9742 148.334C31.8881 148.572 31.8573 148.826 31.884 149.078C31.9107 149.329 31.9943 149.571 32.1284 149.785C32.2625 150 32.4435 150.18 32.6578 150.314Z" fill="url(#paint15_linear)"/>
<defs>
<linearGradient id="paint0_linear" x1="121.395" y1="103.874" x2="121.395" y2="187.524" gradientUnits="userSpaceOnUse">
<stop stop-color="#9A8DEC"/>
<stop offset="1" stop-color="#D5B0EE"/>
</linearGradient>
<linearGradient id="paint1_linear" x1="157.975" y1="160.387" x2="101.09" y2="159.514" gradientUnits="userSpaceOnUse">
<stop offset="0.01"/>
<stop offset="0.13" stop-opacity="0.69"/>
<stop offset="1" stop-opacity="0"/>
</linearGradient>
<linearGradient id="paint2_linear" x1="238.085" y1="250.675" x2="238.496" y2="576.91" gradientUnits="userSpaceOnUse">
<stop stop-color="#B0A9DD"/>
<stop offset="1" stop-color="#DFC5EF"/>
</linearGradient>
<linearGradient id="paint3_linear" x1="-28667.6" y1="32350.9" x2="-15958.7" y2="40595.9" gradientUnits="userSpaceOnUse">
<stop offset="0.01"/>
<stop offset="0.13" stop-opacity="0.69"/>
<stop offset="1" stop-opacity="0"/>
</linearGradient>
<linearGradient id="paint4_linear" x1="-6264.07" y1="13368.6" x2="-12030.7" y2="15415.3" gradientUnits="userSpaceOnUse">
<stop offset="0.01"/>
<stop offset="0.13" stop-opacity="0.69"/>
<stop offset="1" stop-opacity="0"/>
</linearGradient>
<linearGradient id="paint5_linear" x1="-29437.6" y1="38182.4" x2="-41763.7" y2="38182.4" gradientUnits="userSpaceOnUse">
<stop offset="0.01"/>
<stop offset="0.13" stop-opacity="0.69"/>
<stop offset="1" stop-opacity="0"/>
</linearGradient>
<linearGradient id="paint6_linear" x1="-13833.2" y1="13569.5" x2="-12685.2" y2="13244.5" gradientUnits="userSpaceOnUse">
<stop offset="0.01"/>
<stop offset="0.13" stop-opacity="0.69"/>
<stop offset="1" stop-opacity="0"/>
</linearGradient>
<linearGradient id="paint7_linear" x1="-11075.4" y1="19277.2" x2="-12076.1" y2="19277.2" gradientUnits="userSpaceOnUse">
<stop offset="0.01"/>
<stop offset="0.13" stop-opacity="0.69"/>
<stop offset="1" stop-opacity="0"/>
</linearGradient>
<linearGradient id="paint8_linear" x1="173.769" y1="92.8729" x2="173.769" y2="251.087" gradientUnits="userSpaceOnUse">
<stop stop-color="#9A8DEC"/>
<stop offset="1" stop-color="#D5B0EE"/>
</linearGradient>
<linearGradient id="paint9_linear" x1="-1636.8" y1="2344.51" x2="-2026.25" y2="2449.15" gradientUnits="userSpaceOnUse">
<stop offset="0.01"/>
<stop offset="0.13" stop-opacity="0.69"/>
<stop offset="1" stop-opacity="0"/>
</linearGradient>
<linearGradient id="paint10_linear" x1="-4412.89" y1="5253.76" x2="-3434.73" y2="5360.69" gradientUnits="userSpaceOnUse">
<stop offset="0.01"/>
<stop offset="0.13" stop-opacity="0.69"/>
<stop offset="1" stop-opacity="0"/>
</linearGradient>
<linearGradient id="paint11_linear" x1="-5597.34" y1="15200.2" x2="-7560.84" y2="15180" gradientUnits="userSpaceOnUse">
<stop offset="0.01"/>
<stop offset="0.13" stop-opacity="0.69"/>
<stop offset="1" stop-opacity="0"/>
</linearGradient>
<linearGradient id="paint12_linear" x1="207.471" y1="88.7596" x2="207.471" y2="177.778" gradientUnits="userSpaceOnUse">
<stop stop-color="#9A8DEC"/>
<stop offset="1" stop-color="#D5B0EE"/>
</linearGradient>
<linearGradient id="paint13_linear" x1="207.471" y1="88.7596" x2="207.471" y2="177.778" gradientUnits="userSpaceOnUse">
<stop stop-color="#9A8DEC"/>
<stop offset="1" stop-color="#D5B0EE"/>
</linearGradient>
<linearGradient id="paint14_linear" x1="-31774.6" y1="43733.7" x2="-41856.4" y2="40521.1" gradientUnits="userSpaceOnUse">
<stop offset="0.01"/>
<stop offset="0.13" stop-opacity="0.69"/>
<stop offset="1" stop-opacity="0"/>
</linearGradient>
<linearGradient id="paint15_linear" x1="52.608" y1="136.768" x2="52.608" y2="168.438" gradientUnits="userSpaceOnUse">
<stop stop-color="#9A8DEC"/>
<stop offset="1" stop-color="#D5B0EE"/>
</linearGradient>
</defs>
</svg>
