<svg width="34" height="32" viewBox="0 0 34 32" fill="none" xmlns="http://www.w3.org/2000/svg">
<path d="M14.639 1.41065V7.15641C14.639 7.93566 14.0153 8.56705 13.2458 8.56705C10.5005 8.56705 9.00721 11.4186 8.80023 17.0467H13.2458C14.0153 17.0467 14.639 17.6787 14.639 18.4577V30.5896C14.639 31.3684 14.0153 31.9999 13.2458 31.9999H1.39291C0.623162 31.9999 0 31.3679 0 30.5896V18.4577C0 15.7597 0.268238 13.2838 0.79702 11.0981C1.33934 8.85686 2.17181 6.89728 3.27058 5.27357C4.40119 3.60489 5.81543 2.29544 7.47433 1.38322C9.14444 0.465481 11.0866 0 13.2463 0C14.0153 0 14.639 0.631393 14.639 1.41065ZM32.6067 8.56715C33.3758 8.56715 34 7.93517 34 7.15651V1.41074C34 0.631491 33.3759 9.85855e-05 32.6067 9.85855e-05C30.4478 9.85855e-05 28.5054 0.465678 26.8359 1.38332C25.1767 2.29554 23.7617 3.60498 22.6309 5.27367C21.5325 6.89738 20.7 8.85705 20.1576 11.0987C19.6291 13.2852 19.3609 15.761 19.3609 18.4578V30.5896C19.3609 31.3685 19.9848 32 20.7541 32H32.6066C33.3757 32 33.9993 31.368 33.9993 30.5896V18.4577C33.9993 17.6788 33.3758 17.0467 32.6066 17.0467H28.2244C28.4283 11.4187 29.8998 8.56715 32.6067 8.56715Z" fill="black"/>
</svg>
