<svg width="1046" height="760" viewBox="0 0 1046 760" fill="none" xmlns="http://www.w3.org/2000/svg">
<path opacity="0.3" d="M500.155 757.143L453.683 756.118L415.732 759.983C415.668 759.994 415.611 760 415.562 760L415.732 759.983C416.855 759.784 419.963 757.951 413.773 758.364C407.23 758.8 392.145 757.818 385.42 757.273L378.877 756.182L372.879 754.546C310.174 748.91 162.519 720.62 73.5326 652.55C-15.4534 584.481 -99.7723 498.739 -59.7867 469.831C-35.6696 464.431 36.4109 372.937 115.517 287.657C201.549 194.912 304.345 315.145 354.34 355.836C450.306 433.942 488.837 659.641 498.288 668.368L500.155 757.143Z" fill="url(#paint0_linear)"/>
<path opacity="0.18" d="M533.616 356.713L704.93 88.3193C722.452 60.7261 748.268 44.405 777.711 42.3061C807.154 40.2071 838.282 52.4687 865.469 76.8747C901.113 109.05 933.278 138.882 974.519 212.194C1040.49 349.53 1009.69 404.351 1009.69 404.351C1002.53 418.073 997.754 424.7 986.282 432.442C952.491 453.28 939.115 455.589 922.382 461.919C905.648 468.248 887.423 469.687 868.814 466.146L559.942 407.566L533.616 356.713Z" fill="url(#paint1_radial)"/>
<path d="M460.318 669.443C446.599 694.977 435.69 721.867 427.776 749.66C426.828 753.007 425.572 756.786 422.287 758.125C421.114 758.547 419.876 758.766 418.627 758.773C405.017 759.629 391.355 758.412 378.126 755.167C380.331 745.838 379.229 736.143 378.898 726.599C377.95 699.543 372.614 690.604 376.032 653.788C376.142 652.752 393.162 644.892 394.132 644.482C394.732 644.269 395.373 644.195 396.006 644.266L418.869 645.216C428.857 645.626 439.77 646.403 447.09 653.075C453.064 658.495 455.357 666.938 455.027 674.906C454.696 682.874 452.072 690.539 449.449 698.075" fill="#3E3E54"/>
<path d="M460.679 669.778C446.961 695.39 436.054 722.362 428.142 750.239C427.194 753.597 425.937 757.387 422.653 758.73C421.481 759.153 420.242 759.373 418.993 759.379C405.386 760.238 391.725 759.018 378.499 755.762C380.703 746.406 379.601 736.681 379.27 727.108C378.322 699.97 373.407 689.791 377.066 651.607C377.066 650.545 393.423 645.109 394.392 644.741C394.992 644.527 395.633 644.453 396.266 644.524L419.126 645.477C429.112 645.889 440.023 646.668 447.342 653.361C453.316 658.797 455.608 667.266 455.278 675.258C454.947 683.25 452.324 690.938 449.701 698.497" fill="url(#paint2_linear)"/>
<path d="M504.761 757.701C495.44 756.69 465.285 756.948 456.053 755.938C448.453 740.006 441.844 723.647 436.259 706.947C432.783 697.081 426.562 679.281 420.761 670.532C420.16 669.792 419.84 668.874 419.853 667.931C420.103 667.007 420.684 666.199 421.492 665.653C432.761 655.85 444.097 645.983 456.916 638.288C465.772 633.021 485.344 621.972 496.325 625.067C504.562 627.389 503.189 655.162 503.809 663.589C506.096 694.912 506.414 726.34 504.761 757.701Z" fill="#3E3E54"/>
<path d="M492.159 757.143C495.158 757.143 495.158 757.143 504.652 757.643C504.719 751.925 505.56 746.261 505.651 740.621C506.06 715.334 505.695 690.54 503.653 663.522V650.005L490.287 656.513V706.89C490.287 725.102 491.16 741.122 492.159 757.143Z" fill="url(#paint3_linear)"/>
<path d="M607.152 430.302H538.387C532.786 430.302 528.245 425.855 528.245 420.369V312.923C528.245 307.437 532.786 302.99 538.387 302.99H607.152C612.753 302.99 617.294 307.437 617.294 312.923V420.369C617.294 425.855 612.753 430.302 607.152 430.302Z" fill="#BC8FD5"/>
<path d="M607.061 430.302H538.375C532.78 430.302 528.245 425.86 528.245 420.381V313.06C528.245 307.58 532.78 303.138 538.375 303.138H607.061C612.656 303.138 617.191 307.58 617.191 313.06V420.381C617.191 425.86 612.656 430.302 607.061 430.302Z" fill="url(#paint4_linear)"/>
<path d="M603.592 430.223H534.634C529.039 430.223 524.64 425.689 524.64 420.21V313.072C524.64 307.593 529.039 303.06 534.634 303.06H603.592C609.187 303.06 613.586 307.593 613.586 313.072V420.21C613.586 425.689 609.187 430.223 603.592 430.223Z" fill="url(#paint5_linear)"/>
<path d="M595.597 416.205H540.63C536.106 416.205 532.635 412.664 532.635 408.195V319.08C532.635 314.611 536.106 311.07 540.63 311.07H595.597C600.121 311.07 603.592 314.611 603.592 319.08V408.195C603.592 412.664 600.121 416.205 595.597 416.205Z" fill="white"/>
<path d="M495.88 417.584C496.447 416.39 497.339 415.374 498.46 414.647C500.288 413.977 502.309 414.024 504.104 414.777C508.513 416.072 513.716 417.864 515.348 422.183C515.897 423.876 516.085 425.662 515.899 427.43C515.083 443.625 507.234 458.74 497.732 471.998C495.479 475.482 492.595 478.533 489.222 481.002C487.524 482.227 485.554 483.041 483.474 483.379C481.393 483.717 479.261 483.568 477.25 482.945C473.149 481.434 470.636 477.525 468.431 473.833C465.653 469.191 457.65 459.431 457.915 453.946C458.179 448.461 464.904 448.461 469.093 447.36C484.482 443.279 488.737 430.086 495.88 417.584Z" fill="#BC8FD5"/>
<path d="M495.913 417.569C496.478 416.381 497.37 415.369 498.488 414.645C500.314 413.978 502.332 414.024 504.123 414.774C508.525 416.064 513.72 417.849 515.349 422.149C515.897 423.836 516.084 425.614 515.899 427.375C515.085 443.501 507.249 458.553 497.762 471.756C495.512 475.225 492.633 478.264 489.266 480.722C487.57 481.942 485.604 482.753 483.527 483.089C481.45 483.426 479.321 483.278 477.314 482.657C473.219 481.152 470.71 477.26 468.509 473.583C465.736 468.96 457.746 459.241 458.01 453.78C458.274 448.318 464.987 448.318 469.169 447.221C484.533 443.157 488.781 430.019 495.913 417.569Z" fill="url(#paint6_linear)"/>
<path d="M481.483 347.338C481.035 349.739 480.379 352.099 479.524 354.392C478.006 360.087 479.524 366.085 480.031 371.952C480.537 377.82 479.833 384.486 475.211 388.24C470.082 392.425 462.313 391.346 456.415 394.41C449.218 398.185 446.621 407.138 446.687 415.141C446.687 418.874 447.061 422.951 444.772 425.928C442.612 428.185 439.732 429.654 436.606 430.091C430.924 431.376 425.116 432.056 419.285 432.119C416.565 432.352 413.836 431.805 411.428 430.544C409.382 429.03 407.849 426.948 407.026 424.569C401.677 411.992 403.768 397.754 403.306 384.141C403.042 376.245 401.876 368.307 403.152 360.411C404.284 354.788 406.064 349.31 408.456 344.08C411.524 335.772 415.745 327.917 421.002 320.738C426.526 313.792 439.049 297.289 447.963 296.08C458.241 294.678 466.495 311.182 470.699 321.04C472.592 325.355 472.9 329.411 475.673 333.66C478.446 337.91 481.902 342.117 481.483 347.338Z" fill="url(#paint7_linear)"/>
<path d="M433.817 278.72C422.784 276.697 411.376 278.669 401.716 284.269C392.156 289.897 383.849 297.351 377.288 306.186C370.939 314.305 364.787 323.676 354.866 326.807C352.177 327.628 349.354 327.973 346.753 328.966C345.416 329.41 344.214 330.173 343.255 331.188C342.296 332.202 341.611 333.435 341.263 334.775C340.602 338.899 344.592 342.16 348.12 344.492C343.115 345.269 341.263 352.071 343.71 356.433C346.158 360.794 351.008 363.17 355.616 365.199C354.043 366.399 353.008 368.15 352.731 370.084C352.454 372.017 352.956 373.98 354.131 375.557C355.306 377.134 357.061 378.202 359.025 378.534C360.99 378.865 363.009 378.435 364.655 377.334C361.502 381.027 364.655 387.116 369.263 388.757C373.871 390.398 378.986 388.995 383.66 387.591C383.065 393.875 388.841 399.51 395.191 400.547C401.54 401.583 407.978 398.949 413.203 395.256C418.428 391.564 422.727 386.792 427.622 382.711C422.658 378.175 419.338 372.18 418.164 365.631C417.504 362.987 417.776 360.202 418.935 357.728C419.559 356.546 420.589 355.618 421.844 355.108C423.099 354.598 424.497 354.539 425.792 354.943C428.151 355.957 429.055 358.678 430.201 360.945C431.348 363.213 433.751 365.48 436.154 364.573C438.006 363.882 438.668 361.744 439.064 359.844C441.49 347.709 441.534 334.213 449.581 324.691C452.447 321.279 456.195 318.58 458.4 314.737C467.373 299.535 447.509 281.678 433.817 278.72Z" fill="#3E3E54"/>
<path d="M433.741 278.804C422.665 276.776 411.212 278.753 401.515 284.368C391.917 290.011 383.577 297.484 376.99 306.344C370.616 314.484 364.441 323.881 354.48 327.02C351.78 327.843 348.947 328.189 346.335 329.185C344.993 329.63 343.786 330.395 342.823 331.412C341.861 332.43 341.173 333.666 340.824 335.009C340.16 339.145 344.166 342.414 347.708 344.752C342.683 345.532 340.824 352.352 343.281 356.725C345.738 361.099 350.607 363.48 355.233 365.515C353.654 366.718 352.615 368.474 352.337 370.413C352.059 372.351 352.563 374.32 353.742 375.901C354.922 377.483 356.684 378.553 358.656 378.885C360.628 379.218 362.655 378.787 364.308 377.683C361.143 381.385 364.308 387.491 368.934 389.136C373.56 390.782 378.695 389.375 383.387 387.967C382.79 394.268 388.589 399.918 394.963 400.958C401.338 401.997 407.801 399.356 413.046 395.653C418.292 391.951 422.608 387.166 427.522 383.074C422.538 378.526 419.205 372.514 418.026 365.948C417.364 363.297 417.637 360.505 418.801 358.024C419.427 356.839 420.461 355.908 421.721 355.397C422.981 354.886 424.385 354.827 425.685 355.231C428.053 356.249 428.96 358.977 430.111 361.25C431.262 363.523 433.675 365.797 436.088 364.887C437.947 364.195 438.611 362.051 439.009 360.146C441.444 347.978 441.488 334.446 449.567 324.898C452.444 321.478 456.207 318.771 458.421 314.917C467.429 299.675 447.486 281.77 433.741 278.804Z" fill="#2E2E3F"/>
<path d="M315.332 486.168C317.757 498.53 326.022 512.532 338.872 511.906C345.969 511.561 352.802 506.556 359.656 508.389C359.524 522.952 363.557 537.169 367.503 551.192C376.628 583.251 366.996 621.48 376.099 653.539C377.355 657.854 419.255 670.022 429.812 667.454C436.006 665.944 463.623 663.744 485.025 659.019C499.946 655.718 511.848 651.209 511.341 644.866C509.247 618.266 496.574 552.465 494.48 525.864L499.087 528.022C510.402 533.016 522.134 537.051 534.154 540.082C544.116 542.627 555.974 544.03 563.578 537.234C566.649 534.063 569.053 530.332 570.653 526.253C583.099 499.645 595.589 473.037 608.123 446.429C609.106 444.73 609.679 442.834 609.798 440.884C609.798 433.7 599.549 431.543 595.163 425.783C594.133 426.305 593.145 426.903 592.209 427.573C586.39 431.716 582.489 438.231 578.478 444.207C569.07 458.376 557.657 471.167 544.579 482.199C543.425 483.351 541.98 484.184 540.391 484.615H539.95C538.364 484.661 536.788 484.352 535.344 483.709C511.275 474.971 492.232 459.201 474.864 441.122C467.953 433.931 459.444 428.394 449.996 424.941C440.547 421.488 430.413 420.211 420.379 421.209C418.06 421.47 415.723 421.542 413.392 421.425C407.992 421.101 402.636 420.562 397.258 420.001C388.314 418.938 379.311 418.433 370.302 418.491C355.887 418.836 340.944 422.331 330.21 431.759C320.093 440.604 315.134 453.484 314.164 466.881C313.703 473.333 314.095 479.815 315.332 486.168Z" fill="url(#paint8_linear)"/>
<path d="M540.135 484.05C540.614 484.334 541.114 484.584 541.63 484.798C557.189 491.491 571.958 477.785 581.188 467.693L599.978 447.038C602.418 444.344 605.011 440.901 603.78 437.523C602.22 433.246 595.803 432.755 593.297 428.97C593.009 428.458 592.686 427.965 592.33 427.495C586.528 431.6 582.638 438.057 578.639 443.98C569.258 458.023 557.878 470.7 544.838 481.634C543.687 482.776 542.247 483.602 540.663 484.029L540.135 484.05Z" fill="url(#paint9_linear)"/>
<path d="M504.731 399.644C507.472 390.67 513.117 382.849 520.789 377.399C521.494 378.103 522.004 378.977 522.266 379.936C522.529 380.895 522.537 381.905 522.288 382.868C521.941 384.814 521.072 386.651 520.746 388.597C519.312 396.725 526.917 404.724 524.592 412.636C523.403 415.875 521.183 418.638 518.269 420.505C517.181 421.651 515.697 422.344 514.117 422.444C512.536 422.544 510.976 422.044 509.751 421.045C507.165 419.446 501.277 416.289 501.059 412.895C500.929 411.015 502.493 408.269 502.971 406.41C503.558 404.205 504.058 401.892 504.731 399.644Z" fill="url(#paint10_linear)"/>
<path d="M609.918 399.12C608.823 400.17 607.019 399.12 606.031 398.006C603.368 394.857 602.251 390.594 599.46 387.531C598.476 386.337 597.125 385.501 595.616 385.153C594.863 384.992 594.079 385.061 593.366 385.351C592.653 385.642 592.045 386.14 591.621 386.781C591.308 387.666 591.188 388.607 591.269 389.542C591.351 390.477 591.632 391.383 592.094 392.201C595.293 400.77 595.573 410.195 595.487 419.363C595.487 424.462 595.487 429.903 598.193 434.144C599.44 435.964 601.048 437.509 602.917 438.685C603.508 439.169 604.204 439.509 604.949 439.68C605.694 439.851 606.468 439.848 607.212 439.671C607.962 439.333 608.613 438.81 609.102 438.15C618.186 427.782 621.429 413.173 619.839 399.591C619.152 393.465 621.879 386.867 617.305 382.733C617.992 385.646 617.005 395.221 609.853 399.206" fill="url(#paint11_linear)"/>
<path d="M425.34 361.96C424.656 362.176 424.06 362.609 423.642 363.193C423.224 363.777 423.006 364.481 423.021 365.2C423.081 366.638 423.482 368.041 424.191 369.293C425.025 371.256 426.191 373.059 427.638 374.623C428.364 375.399 429.25 376.005 430.236 376.4C431.221 376.794 432.281 376.966 433.341 376.904C433.893 376.865 434.423 376.673 434.873 376.35C435.209 376.061 435.481 375.705 435.672 375.305C435.862 374.905 435.967 374.469 435.979 374.026C436.298 370.977 434.234 369.016 432.234 367.097C430.234 365.179 428.149 361.363 425.34 361.96Z" fill="url(#paint12_linear)"/>
<path d="M360.189 508.127C360.189 508.127 393.107 489.736 400.612 476.68C408.117 463.623 436.8 420.238 444.92 426.046C453.039 431.853 461.796 425.744 474.875 441.103C486.901 455.148 408.754 550.674 364.007 530.992C359.991 529.164 360.189 512.967 360.189 508.127Z" fill="url(#paint13_linear)"/>
<path d="M338.854 443.157C345.156 442.705 351.547 443.329 357.803 442.361C368.814 440.663 385.595 417.205 396.426 419.441C405.396 421.269 412.505 420.387 423.201 420.366C423.426 424.903 392.337 449.371 382.201 455.584C372.065 461.798 364.262 471.258 355.718 479.708C347.174 488.158 337.262 496.092 325.243 498.091C322.26 498.586 318.515 498.392 317.035 495.941C316.643 495.212 316.371 494.428 316.228 493.619C313.739 482.315 313.134 470.704 314.434 459.218C315.779 448.016 328.315 443.823 338.854 443.157Z" fill="url(#paint14_linear)"/>
<path d="M464.469 529.616L467.913 599.79C468.736 616.016 469.537 632.328 473.24 648.143C474.171 652.183 475.687 656.656 479.412 658.492C481.313 659.312 483.407 659.582 485.455 659.27C500.116 655.964 511.811 651.449 511.313 645.097C509.256 618.457 496.803 552.561 494.746 525.921L499.272 528.082C496.557 526.632 493.75 525.362 490.869 524.279C484.22 521.341 477.68 518.251 470.858 515.637C470.016 515.234 469.067 515.113 468.151 515.291C467.36 515.615 466.713 516.214 466.332 516.977C464.123 520.649 464.253 525.295 464.469 529.616Z" fill="url(#paint15_linear)"/>
<path opacity="0.59" d="M812.465 232.97L847.444 296.051L788.48 313.073L753.501 248.99L812.465 232.97Z" fill="url(#paint16_linear)"/>
<path opacity="0.43" d="M753.501 248.99L788.48 313.073L762.496 354.125L728.516 287.039L753.501 248.99Z" fill="url(#paint17_linear)"/>
<path opacity="0.98" d="M846.445 296.051L788.48 313.072L761.496 354.125L821.46 334.099L846.445 296.051Z" fill="url(#paint18_linear)"/>
<path opacity="0.59" d="M675.548 231.968L710.527 245.986L692.538 272.02L656.56 258.002L675.548 231.968Z" fill="url(#paint19_linear)"/>
<path opacity="0.43" d="M656.56 258.002L692.538 272.02L696.536 297.052L659.558 281.031L656.56 258.002Z" fill="url(#paint20_linear)"/>
<path opacity="0.98" d="M710.527 245.986L692.538 272.02L696.536 297.052L713.525 270.017L710.527 245.986Z" fill="url(#paint21_linear)"/>
<path opacity="0.59" d="M852.441 191.917L887.42 205.935L869.431 231.968L833.453 217.95L852.441 191.917Z" fill="url(#paint22_linear)"/>
<path opacity="0.43" d="M833.453 217.95L869.431 231.968L873.429 257.001L836.451 240.98L833.453 217.95Z" fill="url(#paint23_linear)"/>
<path opacity="0.98" d="M887.42 205.935L869.431 231.968L873.429 257L890.418 229.966L887.42 205.935Z" fill="url(#paint24_linear)"/>
<path opacity="0.59" d="M901.412 356.128L871.43 378.156L857.438 350.12L888.419 327.091L901.412 356.128Z" fill="url(#paint25_linear)"/>
<path opacity="0.43" d="M888.419 327.09L857.438 349.119L833.453 339.106L866.433 317.078L888.419 327.09Z" fill="url(#paint26_linear)"/>
<path opacity="0.98" d="M870.43 377.155L857.438 349.119L833.453 339.106L848.444 367.142L870.43 377.155Z" fill="url(#paint27_linear)"/>
<path d="M313.768 466.415C313.988 467.749 314.252 469.084 314.538 470.397C314.623 471.257 314.861 472.095 315.243 472.873C316.741 475.37 320.375 475.586 323.283 475.026C335.111 473.024 344.934 465.101 353.216 456.641C361.498 448.18 369.119 438.815 379.251 432.485C383.061 430.096 389.823 425.166 396.717 419.719C387.78 418.658 378.782 418.155 369.78 418.212C355.375 418.556 340.441 422.044 329.714 431.452C319.649 440.257 314.737 453.11 313.768 466.415Z" fill="url(#paint28_linear)"/>
<defs>
<linearGradient id="paint0_linear" x1="-94.4067" y1="310.02" x2="222.458" y2="758.377" gradientUnits="userSpaceOnUse">
<stop stop-color="white" stop-opacity="0"/>
<stop offset="1" stop-color="#9A8DEC"/>
</linearGradient>
<radialGradient id="paint1_radial" cx="0" cy="0" r="1" gradientUnits="userSpaceOnUse" gradientTransform="translate(491.525 430.028) rotate(-24.4108) scale(367.351 768.495)">
<stop stop-color="#BC8FD5"/>
<stop offset="1" stop-color="#BC8FD5" stop-opacity="0"/>
</radialGradient>
<linearGradient id="paint2_linear" x1="-35026.6" y1="34949.4" x2="-32721.3" y2="34176.5" gradientUnits="userSpaceOnUse">
<stop stop-opacity="0"/>
<stop offset="0.99"/>
</linearGradient>
<linearGradient id="paint3_linear" x1="478.273" y1="706.268" x2="591.697" y2="701.207" gradientUnits="userSpaceOnUse">
<stop offset="0.02" stop-color="white" stop-opacity="0"/>
<stop offset="0.58" stop-color="white" stop-opacity="0.39"/>
<stop offset="0.68" stop-color="white" stop-opacity="0.68"/>
<stop offset="1" stop-color="white"/>
</linearGradient>
<linearGradient id="paint4_linear" x1="-32873.7" y1="13933.8" x2="-17687.4" y2="19951.3" gradientUnits="userSpaceOnUse">
<stop stop-opacity="0"/>
<stop offset="0.99"/>
</linearGradient>
<linearGradient id="paint5_linear" x1="569.113" y1="430.223" x2="569.113" y2="303.06" gradientUnits="userSpaceOnUse">
<stop stop-color="#9A8DEC"/>
<stop offset="1" stop-color="#D5B0EE"/>
</linearGradient>
<linearGradient id="paint6_linear" x1="486.986" y1="414.176" x2="486.986" y2="483.265" gradientUnits="userSpaceOnUse">
<stop stop-color="#9A8DEC"/>
<stop offset="1" stop-color="#D5B0EE"/>
</linearGradient>
<linearGradient id="paint7_linear" x1="481.505" y1="364.121" x2="402.492" y2="364.121" gradientUnits="userSpaceOnUse">
<stop stop-color="#E5C5D5"/>
<stop offset="0.42" stop-color="#EAD4D1"/>
<stop offset="1" stop-color="#F0E9CB"/>
</linearGradient>
<linearGradient id="paint8_linear" x1="461.887" y1="418.486" x2="461.887" y2="667.807" gradientUnits="userSpaceOnUse">
<stop stop-color="#9A8DEC"/>
<stop offset="1" stop-color="#D5B0EE"/>
</linearGradient>
<linearGradient id="paint9_linear" x1="-19753.5" y1="11520.8" x2="-21275.7" y2="9854.86" gradientUnits="userSpaceOnUse">
<stop stop-opacity="0"/>
<stop offset="0.99"/>
</linearGradient>
<linearGradient id="paint10_linear" x1="-7821.67" y1="7182.04" x2="-8086.23" y2="7182.04" gradientUnits="userSpaceOnUse">
<stop stop-color="#E5C5D5"/>
<stop offset="0.42" stop-color="#EAD4D1"/>
<stop offset="1" stop-color="#F0E9CB"/>
</linearGradient>
<linearGradient id="paint11_linear" x1="-8213.33" y1="9308.43" x2="-8605.75" y2="9308.43" gradientUnits="userSpaceOnUse">
<stop stop-color="#E5C5D5"/>
<stop offset="0.42" stop-color="#EAD4D1"/>
<stop offset="1" stop-color="#F0E9CB"/>
</linearGradient>
<linearGradient id="paint12_linear" x1="-4678.34" y1="2438.16" x2="-5271.95" y2="2733.57" gradientUnits="userSpaceOnUse">
<stop stop-color="#E5C5D5"/>
<stop offset="0.42" stop-color="#EAD4D1"/>
<stop offset="1" stop-color="#F0E9CB"/>
</linearGradient>
<linearGradient id="paint13_linear" x1="-45640.7" y1="20898.4" x2="-48034.7" y2="19263.7" gradientUnits="userSpaceOnUse">
<stop stop-opacity="0"/>
<stop offset="0.99"/>
</linearGradient>
<linearGradient id="paint14_linear" x1="-47146.6" y1="12579.6" x2="-42912.4" y2="19679.6" gradientUnits="userSpaceOnUse">
<stop stop-opacity="0"/>
<stop offset="0.99"/>
</linearGradient>
<linearGradient id="paint15_linear" x1="-17438.8" y1="35534.9" x2="-13592" y2="35040.3" gradientUnits="userSpaceOnUse">
<stop stop-opacity="0"/>
<stop offset="0.99"/>
</linearGradient>
<linearGradient id="paint16_linear" x1="800.473" y1="232.97" x2="800.473" y2="313.073" gradientUnits="userSpaceOnUse">
<stop stop-color="#9A8DEC"/>
<stop offset="1" stop-color="#D5B0EE"/>
</linearGradient>
<linearGradient id="paint17_linear" x1="758.498" y1="248.99" x2="758.498" y2="354.125" gradientUnits="userSpaceOnUse">
<stop stop-color="#9A8DEC"/>
<stop offset="1" stop-color="#D5B0EE"/>
</linearGradient>
<linearGradient id="paint18_linear" x1="803.971" y1="296.051" x2="803.971" y2="354.125" gradientUnits="userSpaceOnUse">
<stop stop-color="#9A8DEC"/>
<stop offset="1" stop-color="#D5B0EE"/>
</linearGradient>
<linearGradient id="paint19_linear" x1="683.544" y1="231.968" x2="683.544" y2="272.02" gradientUnits="userSpaceOnUse">
<stop stop-color="#7A7A7A"/>
<stop offset="1" stop-color="#5C5C5C"/>
</linearGradient>
<linearGradient id="paint20_linear" x1="676.548" y1="258.002" x2="676.548" y2="297.052" gradientUnits="userSpaceOnUse">
<stop stop-color="#7A7A7A"/>
<stop offset="1" stop-color="#5C5C5C"/>
</linearGradient>
<linearGradient id="paint21_linear" x1="703.032" y1="245.986" x2="703.032" y2="297.052" gradientUnits="userSpaceOnUse">
<stop stop-color="#7A7A7A"/>
<stop offset="1" stop-color="#5C5C5C"/>
</linearGradient>
<linearGradient id="paint22_linear" x1="860.436" y1="191.917" x2="860.436" y2="231.968" gradientUnits="userSpaceOnUse">
<stop stop-color="#9A8DEC"/>
<stop offset="1" stop-color="#D5B0EE"/>
</linearGradient>
<linearGradient id="paint23_linear" x1="853.441" y1="217.95" x2="853.441" y2="257.001" gradientUnits="userSpaceOnUse">
<stop stop-color="#9A8DEC"/>
<stop offset="1" stop-color="#D5B0EE"/>
</linearGradient>
<linearGradient id="paint24_linear" x1="879.925" y1="205.935" x2="879.925" y2="257" gradientUnits="userSpaceOnUse">
<stop stop-color="#9A8DEC"/>
<stop offset="1" stop-color="#D5B0EE"/>
</linearGradient>
<linearGradient id="paint25_linear" x1="879.425" y1="327.091" x2="879.425" y2="378.156" gradientUnits="userSpaceOnUse">
<stop stop-color="#7A7A7A"/>
<stop offset="1" stop-color="#5C5C5C"/>
</linearGradient>
<linearGradient id="paint26_linear" x1="860.936" y1="317.078" x2="860.936" y2="349.119" gradientUnits="userSpaceOnUse">
<stop stop-color="#7A7A7A"/>
<stop offset="1" stop-color="#5C5C5C"/>
</linearGradient>
<linearGradient id="paint27_linear" x1="851.942" y1="339.106" x2="851.942" y2="377.155" gradientUnits="userSpaceOnUse">
<stop stop-color="#7A7A7A"/>
<stop offset="1" stop-color="#5C5C5C"/>
</linearGradient>
<linearGradient id="paint28_linear" x1="-35969.3" y1="9315.37" x2="-33675.2" y2="13323.9" gradientUnits="userSpaceOnUse">
<stop stop-opacity="0"/>
<stop offset="0.99"/>
</linearGradient>
</defs>
</svg>
