<svg width="12" height="12" viewBox="0 0 12 12" fill="none" xmlns="http://www.w3.org/2000/svg">
<path d="M11.9683 4.6024C11.8893 4.35941 11.6738 4.18738 11.4198 4.1644L7.95577 3.84991L6.58676 0.644782C6.48568 0.409304 6.2557 0.257324 5.99971 0.257324C5.74372 0.257324 5.51365 0.409304 5.41321 0.644782L4.0442 3.84991L0.579607 4.1644C0.325635 4.18784 0.110574 4.35987 0.0311052 4.6024C-0.0479061 4.84538 0.0250626 5.1119 0.217143 5.28036L2.83569 7.57645L2.06361 10.977C2.00712 11.227 2.10417 11.4855 2.31163 11.6355C2.42314 11.7165 2.55416 11.757 2.68563 11.757C2.79861 11.757 2.91168 11.727 3.01266 11.6665L5.99971 9.8805L8.98621 11.6665C9.2053 11.7975 9.48079 11.7855 9.68779 11.6355C9.89525 11.4855 9.9923 11.227 9.93581 10.977L9.16373 7.57645L11.7823 5.28036C11.9743 5.1119 12.0473 4.84593 11.9683 4.6024Z" fill="white"/>
</svg>
