<svg width="22" height="23" viewBox="0 0 22 23" fill="none" xmlns="http://www.w3.org/2000/svg">
<path d="M16.0475 13.8697L16.0392 13.9385C14.0235 12.9347 13.8131 12.8 13.5519 13.1905C13.3717 13.4614 12.8451 14.0746 12.687 14.2561C12.5261 14.4349 12.3666 14.4486 12.0944 14.3249C11.8194 14.1874 10.9366 13.8986 9.89161 12.9636C9.07761 12.2349 8.53173 11.3411 8.36948 11.0661C8.09998 10.6027 8.66236 10.5367 9.17386 9.56874C9.26598 9.37624 9.21923 9.22499 9.15048 9.08887C9.08173 8.95137 8.53448 7.60387 8.30486 7.06624C8.08486 6.53137 7.85798 6.59874 7.68886 6.59874C7.16086 6.55337 6.77448 6.56024 6.43486 6.91362C4.95536 8.54024 5.32798 10.2164 6.59436 12.0011C9.08173 15.2571 10.4072 15.8566 12.8314 16.6885C13.4859 16.8961 14.0826 16.8672 14.5542 16.7999C15.0809 16.716 16.174 16.1385 16.4022 15.4922C16.636 14.846 16.636 14.3097 16.5672 14.186C16.5026 14.0622 16.3225 13.9935 16.0475 13.8697Z" fill="black"/>
<path d="M18.81 3.91556C11.7618 -2.89757 0.0962505 2.04418 0.0921255 11.6568C0.0921255 13.5777 0.595375 15.4518 1.55375 17.1059L0 22.7544L5.80662 21.2406C13.0529 25.1538 21.9959 19.9577 22 11.6623C22 8.75143 20.8629 6.01106 18.7962 3.95268L18.81 3.91556ZM20.1685 11.6321C20.163 18.6294 12.4823 22.9978 6.4075 19.4269L6.0775 19.2303L2.64 20.1241L3.56125 16.7828L3.34262 16.4391C-0.438625 10.4221 3.905 2.55706 11.066 2.55706C13.4984 2.55706 15.7822 3.50581 17.5024 5.22456C19.2211 6.92818 20.1685 9.21206 20.1685 11.6321Z" fill="black"/>
</svg>
