<svg width="22" height="15" viewBox="0 0 22 15" fill="none" xmlns="http://www.w3.org/2000/svg">
<path d="M19.8005 0.730469H2.19951C0.986725 0.730469 0 1.69506 0 2.88064V12.5589C0 13.7444 0.986725 14.709 2.19951 14.709H19.8005C21.0133 14.709 22 13.7444 22 12.5589V2.88064C22 1.69506 21.0133 0.730469 19.8005 0.730469ZM19.8005 5.56957L12.2103 9.31181C11.8357 9.50538 11.4183 9.60216 11.0008 9.60216C10.5834 9.60216 10.1544 9.50538 9.77979 9.30052L2.20115 5.56957V3.76297L10.5388 7.87137C10.8243 8.02139 11.1774 8.02139 11.4513 7.88266L19.8005 3.76297V5.56957Z" fill="black"/>
</svg>
