<svg width="20" height="17" viewBox="0 0 20 17" fill="none" xmlns="http://www.w3.org/2000/svg">
<path d="M17.3912 4.41083C18.1798 3.85115 18.8425 3.15216 19.3827 2.34778V2.34657C18.6619 2.66275 17.8939 2.87232 17.0932 2.97408C17.9169 2.48224 18.5457 1.70936 18.8412 0.777774C18.0732 1.23569 17.2252 1.55914 16.3215 1.73964C15.5922 0.964332 14.5528 0.483398 13.4189 0.483398C11.219 0.483398 9.44788 2.26903 9.44788 4.45807C9.44788 4.77304 9.47453 5.0759 9.53995 5.36422C6.2364 5.2031 3.31324 3.61977 1.34952 1.20783C1.00669 1.80264 0.805595 2.48345 0.805595 3.21637C0.805595 4.59254 1.51428 5.81244 2.57064 6.5187C1.93222 6.50659 1.30591 6.32124 0.77531 6.02929V6.0729C0.77531 8.0039 2.1527 9.60783 3.95893 9.97731C3.63548 10.0657 3.28295 10.1081 2.9171 10.1081C2.6627 10.1081 2.40588 10.0936 2.16481 10.0403C2.67966 11.6139 4.14064 12.7708 5.87782 12.8084C4.52587 13.866 2.80929 14.5032 0.950966 14.5032C0.625093 14.5032 0.312547 14.4886 0 14.4487C1.7602 15.5838 3.84626 16.2319 6.09587 16.2319C13.1076 16.2319 17.6783 10.3819 17.3912 4.41083Z" fill="black"/>
</svg>
