<svg width="48" height="39" viewBox="0 0 48 39" fill="none" xmlns="http://www.w3.org/2000/svg">
<path d="M20.3041 6.97494L18.3677 4.93457H29.5683L27.6054 6.97494H20.3041Z" fill="#7E7E7E"/>
<path d="M27.6054 32.3987L29.5683 34.3857H18.3677L20.3041 32.3987H27.6054Z" fill="#7E7E7E"/>
<path d="M18.3677 4.93457V34.3855L20.3041 32.3985V6.97494L18.3677 4.93457Z" fill="#6B6B6B"/>
<path d="M29.5703 4.93457V34.3855L27.6074 32.3985V6.97494L29.5703 4.93457Z" fill="#6B6B6B"/>
<path d="M0.838379 4.93457L2.4578 6.97494H13.1018V4.93457H0.838379Z" fill="#7E7E7E"/>
<path d="M47.1558 34.3858L45.5285 32.3721H34.8325V34.3858H47.1558Z" fill="#7E7E7E"/>
<path d="M29.5695 0.789307H34.8338V34.3858H47.1571V38.5294H17.3062V34.3858H29.5695V0.789307Z" fill="black"/>
<path d="M13.1033 4.93466H0.839844V0.791138H30.6907V4.93472H18.3674V38.5312H13.1033V4.93466Z" fill="black"/>
</svg>
